<svg width="266" height="265" viewBox="0 0 266 265" fill="none" xmlns="http://www.w3.org/2000/svg">
<path d="M174.211 265.001C163.804 265.001 153.814 261.265 145.904 253.38C130.086 237.608 130.086 212.706 145.904 196.935C167.135 175.768 167.135 140.905 145.904 119.739C124.674 98.572 90.1237 98.572 68.4774 119.739C52.659 135.51 27.6823 135.51 11.8638 119.739C-3.95461 103.967 -3.95461 79.0653 11.8638 63.294C64.3145 10.9997 149.651 10.9997 202.518 63.294C254.969 115.588 254.969 200.67 202.518 253.38C194.609 261.265 184.618 265.001 174.211 265.001Z" fill="#F9F5FF"/>
<path d="M91.0789 94.2353L91.0719 94.2421L91.0651 94.249C76.0272 109.242 52.3138 109.242 37.2759 94.249C22.2414 79.2592 22.2414 55.6268 37.2759 40.6371C88.9424 -10.8754 173.019 -10.8839 225.11 40.6409C276.768 92.1496 276.776 175.96 225.104 227.892C217.599 235.374 207.714 238.927 198.211 238.927C188.303 238.927 178.829 235.381 171.316 227.89C156.282 212.9 156.282 189.268 171.316 174.278C193.33 152.33 193.33 116.197 171.316 94.249C149.298 72.2965 113.495 72.316 91.0789 94.2353Z" stroke="#CC45FF" stroke-width="4" stroke-miterlimit="10"/>
</svg>
