<svg width="266" height="265" viewBox="0 0 266 265" fill="none" xmlns="http://www.w3.org/2000/svg">
<path d="M174.211 265.001C163.804 265.001 153.814 261.265 145.904 253.38C130.086 237.608 130.086 212.706 145.904 196.935C167.135 175.768 167.135 140.905 145.904 119.739C124.674 98.572 90.1237 98.572 68.4774 119.739C52.659 135.51 27.6823 135.51 11.8638 119.739C-3.95461 103.967 -3.95461 79.0653 11.8638 63.294C64.3145 10.9997 149.651 10.9997 202.518 63.294C254.969 115.588 254.969 200.67 202.518 253.38C194.609 261.265 184.618 265.001 174.211 265.001Z" fill="url(#paint0_radial_3619_1698)"/>
<path d="M91.2234 94.2353L91.2165 94.2421L91.2096 94.249C76.1717 109.242 52.4584 109.242 37.4205 94.249C22.3859 79.2592 22.3859 55.6268 37.4205 40.6371C89.0869 -10.8754 173.163 -10.8839 225.254 40.6409C276.913 92.1496 276.921 175.96 225.249 227.892C217.743 235.374 207.858 238.927 198.356 238.927C188.447 238.927 178.974 235.381 171.461 227.89C156.426 212.9 156.426 189.268 171.461 174.278C193.475 152.33 193.475 116.197 171.461 94.249C149.443 72.2965 113.639 72.316 91.2234 94.2353Z" stroke="url(#paint1_linear_3619_1698)" stroke-width="4" stroke-miterlimit="10"/>
<defs>
<radialGradient id="paint0_radial_3619_1698" cx="0" cy="0" r="1" gradientUnits="userSpaceOnUse" gradientTransform="translate(-15.116 24.0732) rotate(42.5043) scale(356.589 606.184)">
<stop stop-color="#B4FF24"/>
<stop offset="0.183581" stop-color="#41DABE"/>
<stop offset="0.367041" stop-color="#9D99FF"/>
<stop offset="0.564559" stop-color="#CC45FF"/>
<stop offset="0.825501" stop-color="#8427FD"/>
<stop offset="1" stop-color="#5672FF"/>
</radialGradient>
<linearGradient id="paint1_linear_3619_1698" x1="24.1445" y1="30.6771" x2="230.804" y2="187.874" gradientUnits="userSpaceOnUse">
<stop stop-color="#41DABE"/>
<stop offset="1" stop-color="#B4FF24"/>
</linearGradient>
</defs>
</svg>
