<svg width="56" height="71" viewBox="0 0 56 71" fill="none" xmlns="http://www.w3.org/2000/svg">
<path fill-rule="evenodd" clip-rule="evenodd" d="M41.6818 4.55019C40.7632 5.15244 40.5286 6.38189 41.1579 7.29625C41.7871 8.2106 43.042 8.4636 43.9606 7.86135C44.8392 7.28536 46.4251 6.31732 47.7829 5.62604C48.5139 7.32246 49.5652 9.54228 50.5288 10.8944C51.1735 11.799 52.4318 12.0319 53.3393 11.4145C54.2469 10.7971 54.4599 9.56332 53.8152 8.65871C52.7946 7.22652 51.4252 4.0654 50.8435 2.56484C50.6255 2.00258 50.1788 1.58873 49.649 1.38969C49.1472 1.08759 48.5205 0.998834 47.9291 1.1997C45.9598 1.86858 42.8853 3.76118 41.6818 4.55019Z" fill="#5672FF"/>
<path d="M4.19324 68.4997C4.19324 68.4997 18.7198 25.5181 23.8432 23.7916C28.9667 22.0651 17.1177 59.777 24.6679 59.8921C32.2181 60.0073 48.0855 4.97614 48.0855 4.97614" stroke="#5672FF" stroke-width="4" stroke-linecap="round"/>
</svg>
