<svg width="257" height="84" viewBox="0 0 257 84" fill="none" xmlns="http://www.w3.org/2000/svg">
<path d="M-1.42216e-05 53.5496C-1.42458e-05 54.1019 0.447701 54.5496 0.999986 54.5496C1.55227 54.5496 1.99999 54.1019 1.99999 53.5496L-1.42216e-05 53.5496ZM249.362 45.0801C249.788 45.4323 250.418 45.373 250.77 44.9476L256.51 38.0153C256.862 37.5899 256.803 36.9595 256.377 36.6073C255.952 36.2551 255.322 36.3144 254.969 36.7398L249.867 42.9019L243.705 37.8C243.28 37.4478 242.65 37.5071 242.297 37.9325C241.945 38.3579 242.005 38.9883 242.43 39.3405L249.362 45.0801ZM222.544 -1.20013e-06C214.292 -1.56084e-06 207.056 6.28606 201.943 15.9226C196.806 25.6034 193.659 38.9082 193.659 53.5496L195.659 53.5496C195.659 39.1685 198.754 26.1985 203.709 16.8601C208.688 7.4775 215.396 2 222.544 2L222.544 -1.20013e-06ZM193.659 53.5496C193.659 61.7769 194.993 69.2715 197.188 74.7462C198.284 77.4808 199.614 79.7608 201.142 81.3735C202.673 82.9883 204.47 84 206.463 84L206.463 82C205.196 82 203.888 81.3635 202.594 79.9978C201.298 78.6299 200.084 76.597 199.044 74.0021C196.966 68.8178 195.659 61.5872 195.659 53.5496L193.659 53.5496ZM206.463 84C208.456 84 210.253 82.9883 211.784 81.3735C213.312 79.7608 214.642 77.4808 215.738 74.7462C217.932 69.2715 219.267 61.7769 219.267 53.5496L217.267 53.5496C217.267 61.5872 215.96 68.8178 213.882 74.0021C212.842 76.597 211.628 78.6299 210.332 79.9978C209.038 81.3635 207.73 82 206.463 82L206.463 84ZM219.267 53.5496C219.267 38.9082 216.12 25.6034 210.983 15.9226C205.869 6.28606 198.634 -2.24528e-06 190.382 -2.60599e-06L190.382 2C197.53 2 204.238 7.47749 209.216 16.8601C214.172 26.1985 217.267 39.1685 217.267 53.5496L219.267 53.5496ZM190.382 -2.60599e-06C182.13 -2.96671e-06 174.894 6.28605 169.78 15.9226C164.643 25.6034 161.496 38.9082 161.496 53.5496L163.496 53.5496C163.496 39.1685 166.591 26.1986 171.547 16.8601C176.526 7.4775 183.233 2 190.382 2L190.382 -2.60599e-06ZM161.496 53.5496C161.496 61.7769 162.831 69.2715 165.025 74.7462C166.121 77.4808 167.452 79.7608 168.98 81.3735C170.51 82.9884 172.308 84 174.301 84L174.301 82C173.033 82 171.726 81.3635 170.431 79.9978C169.135 78.6299 167.922 76.597 166.882 74.0021C164.804 68.8178 163.496 61.5872 163.496 53.5496L161.496 53.5496ZM174.301 84C176.293 84 178.091 82.9883 179.621 81.3735C181.149 79.7608 182.48 77.4808 183.576 74.7462C185.77 69.2715 187.105 61.7769 187.105 53.5496L185.105 53.5496C185.105 61.5872 183.797 68.8178 181.719 74.0021C180.679 76.597 179.466 78.6299 178.169 79.9978C176.875 81.3635 175.568 82 174.301 82L174.301 84ZM187.105 53.5496C187.105 38.9073 183.938 25.6016 178.769 15.9204C173.623 6.28186 166.344 -3.6567e-06 158.048 -4.01933e-06L158.048 2C165.247 2 171.997 7.48169 177.005 16.8623C181.991 26.2003 185.105 39.1694 185.105 53.5496L187.105 53.5496ZM158.048 -4.01933e-06C149.752 -4.38197e-06 142.473 6.28185 137.327 15.9204C132.158 25.6016 128.991 38.9073 128.991 53.5496L130.991 53.5496C130.991 39.1694 134.106 26.2003 139.091 16.8624C144.1 7.48169 150.849 2 158.048 2L158.048 -4.01933e-06ZM128.991 53.5496C128.991 61.7769 130.326 69.2715 132.521 74.7462C133.617 77.4808 134.947 79.7608 136.475 81.3735C138.006 82.9884 139.803 84 141.796 84L141.796 82C140.529 82 139.221 81.3635 137.927 79.9978C136.631 78.6299 135.417 76.597 134.377 74.0021C132.299 68.8178 130.991 61.5872 130.991 53.5496L128.991 53.5496ZM141.796 84C143.789 84 145.587 82.9883 147.117 81.3735C148.645 79.7608 149.975 77.4808 151.071 74.7462C153.265 69.2715 154.6 61.7769 154.6 53.5496L152.6 53.5496C152.6 61.5872 151.292 68.8178 149.215 74.0021C148.175 76.597 146.961 78.6299 145.665 79.9978C144.371 81.3635 143.063 82 141.796 82L141.796 84ZM154.6 53.5496C154.6 38.9082 151.453 25.6034 146.316 15.9226C141.202 6.28606 133.967 -5.07197e-06 125.715 -5.43268e-06L125.715 1.99999C132.864 1.99999 139.571 7.47749 144.549 16.8601C149.505 26.1985 152.6 39.1685 152.6 53.5496L154.6 53.5496ZM125.715 -5.43268e-06C117.463 -5.79339e-06 110.227 6.28606 105.114 15.9226C99.9767 25.6034 96.8298 38.9082 96.8298 53.5496L98.8298 53.5496C98.8298 39.1685 101.925 26.1985 106.88 16.8601C111.859 7.47749 118.566 1.99999 125.715 1.99999L125.715 -5.43268e-06ZM96.8298 53.5496C96.8298 61.7769 98.1644 69.2715 100.359 74.7462C101.455 77.4808 102.785 79.7608 104.313 81.3735C105.843 82.9883 107.641 84 109.633 84L109.633 82C108.366 82 107.059 81.3635 105.765 79.9978C104.468 78.6299 103.255 76.597 102.215 74.0021C100.137 68.8178 98.8298 61.5872 98.8298 53.5496L96.8298 53.5496ZM109.633 84C111.626 84 113.424 82.9884 114.954 81.3735C116.483 79.7608 117.813 77.4808 118.909 74.7462C121.103 69.2715 122.438 61.7769 122.438 53.5496L120.438 53.5496C120.438 61.5872 119.13 68.8178 117.052 74.0021C116.012 76.597 114.799 78.6299 113.503 79.9978C112.208 81.3635 110.901 82 109.633 82L109.633 84ZM122.438 53.5496C122.438 38.9082 119.291 25.6034 114.154 15.9226C109.04 6.28604 101.804 -6.47784e-06 93.5521 -6.83855e-06L93.5521 1.99999C100.701 1.99999 107.408 7.4775 112.387 16.8601C117.343 26.1986 120.438 39.1685 120.438 53.5496L122.438 53.5496ZM93.5521 -6.83855e-06C85.3 -7.19927e-06 78.0645 6.28606 72.951 15.9226C67.814 25.6034 64.6671 38.9082 64.6671 53.5496L66.6671 53.5496C66.6671 39.1685 69.7623 26.1985 74.7177 16.8601C79.6964 7.47748 86.4035 1.99999 93.5521 1.99999L93.5521 -6.83855e-06ZM64.6671 53.5496C64.6671 61.7769 66.002 69.2715 68.1963 74.7462C69.2923 77.4808 70.6224 79.7608 72.1506 81.3735C73.6808 82.9883 75.4783 84 77.4708 84L77.4708 82C76.204 82 74.8964 81.3635 73.6023 79.9978C72.3061 78.6299 71.0927 76.597 70.0527 74.0021C67.9748 68.8178 66.6671 61.5872 66.6671 53.5496L64.6671 53.5496ZM77.4708 84C79.4635 84 81.2612 82.9884 82.7915 81.3735C84.3198 79.7608 85.6501 77.4808 86.7462 74.7462C88.9406 69.2715 90.2755 61.7769 90.2755 53.5496L88.2755 53.5496C88.2755 61.5872 86.9678 68.8178 84.8898 74.0021C83.8496 76.597 82.6362 78.6299 81.3399 79.9978C80.0456 81.3635 78.7379 82 77.4708 82L77.4708 84ZM90.2755 53.5496C90.2755 38.9082 87.1283 25.6034 81.9912 15.9226C76.8776 6.28607 69.6421 -7.8837e-06 61.3904 -8.24439e-06L61.3904 1.99999C68.5386 1.99999 75.2456 7.47747 80.2246 16.8601C85.18 26.1985 88.2755 39.1685 88.2755 53.5496L90.2755 53.5496ZM61.3904 -8.24439e-06C53.1383 -8.6051e-06 45.9026 6.28604 40.7888 15.9226C35.6516 25.6033 32.5044 38.9082 32.5044 53.5496L34.5044 53.5496C34.5044 39.1685 37.5999 26.1985 42.5554 16.8601C47.5345 7.4775 54.2417 1.99999 61.3904 1.99999L61.3904 -8.24439e-06ZM32.5044 53.5496C32.5044 61.7769 33.8393 69.2715 36.0337 74.7462C37.1298 77.4808 38.4601 79.7608 39.9883 81.3735C41.5187 82.9884 43.3164 84 45.3091 84L45.3091 82C44.042 82 42.7343 81.3635 41.44 79.9978C40.1437 78.6299 38.9303 76.597 37.8901 74.0021C35.8121 68.8178 34.5044 61.5872 34.5044 53.5496L32.5044 53.5496ZM45.3091 84C47.3016 84 49.0991 82.9883 50.6293 81.3735C52.1575 79.7608 53.4876 77.4808 54.5836 74.7462C56.7779 69.2715 58.1128 61.7769 58.1128 53.5496L56.1128 53.5496C56.1128 61.5872 54.8051 68.8178 52.7272 74.0021C51.6871 76.597 50.4738 78.6299 49.1776 79.9978C47.8835 81.3635 46.5759 82 45.3091 82L45.3091 84ZM58.1128 53.5496C58.1128 38.9073 54.9464 25.6016 49.7777 15.9204C44.6317 6.28187 37.353 -9.2951e-06 29.0569 -9.65773e-06L29.0569 1.99999C36.2559 1.99999 43.0051 7.48167 48.0134 16.8623C52.9988 26.2003 56.1128 39.1694 56.1128 53.5496L58.1128 53.5496ZM29.0569 -9.65773e-06C20.7608 -1.00204e-05 13.4818 6.28185 8.33566 15.9204C3.16666 25.6016 -1.35816e-05 38.9073 -1.42216e-05 53.5496L1.99999 53.5496C1.99999 39.1694 5.11423 26.2003 10.0999 16.8623C15.1084 7.48169 21.8579 1.99999 29.0569 1.99999L29.0569 -9.65773e-06ZM250.996 44.2161C249.826 31.7922 246.358 20.8053 241.398 12.8927C236.453 5.00309 229.9 -8.78578e-07 222.544 -1.20013e-06L222.544 2C228.916 2 234.933 6.34372 239.704 13.955C244.461 21.5432 247.857 32.2113 249.004 44.4036L250.996 44.2161Z" fill="#F1FFE6"/>
</svg>
