<svg width="84" height="209" viewBox="0 0 84 209" fill="none" xmlns="http://www.w3.org/2000/svg">
<path d="M80 4C55.6853 6.44348 36.9717 37.1809 32.9945 58.7635C31.3593 67.6375 29.7156 77.4354 33.4726 86.0653C37.2478 94.737 51.2195 92.4154 58.1704 90.4688C67.8687 87.7526 72.3412 82.7244 74.9808 73.175C76.5739 67.4116 75.7618 59.4398 69.9615 56.2015C55.7101 48.2449 31.4942 58.5099 21.283 68.7715C-0.653012 90.8159 -1.49253 140.098 17.5385 164.688C23.2827 172.11 29.6283 178.198 36.261 184.864C40.8672 189.493 50.4156 198.555 57.055 198.555" stroke="#F5F7FF" stroke-width="8" stroke-linecap="round"/>
<path d="M38.3213 205C41.4117 204.371 44.6049 204.045 47.7189 203.534C49.9341 203.17 52.4038 202.836 54.6428 202.836C55.2299 202.836 58.9996 203.003 59.1179 202.488C59.4705 200.953 58.6828 199.223 58.6828 197.691C58.6828 195.573 57.3403 193.575 57.3403 191.463C57.3403 188.967 57.1166 186.558 57.1166 184.01" stroke="#F5F7FF" stroke-width="8" stroke-linecap="round"/>
</svg>
