<svg width="253" height="236" viewBox="0 0 253 236" fill="none" xmlns="http://www.w3.org/2000/svg">
<path d="M142.304 214.62C198.937 202.945 235.947 150.169 224.968 96.7406C213.988 43.3122 159.177 9.46405 102.544 21.1386C45.9105 32.8132 8.90051 85.5896 19.8799 139.018C30.8592 192.446 85.6702 226.295 142.304 214.62Z" fill="#CC45FF"/>
<path fill-rule="evenodd" clip-rule="evenodd" d="M120.625 39.4374C110.251 43.4298 101.776 54.5648 96.7907 71.3868C91.2524 90.0753 90.4022 114.772 95.7861 140.972C101.17 167.172 111.689 189.526 124.146 204.504C135.35 217.977 147.516 224.855 158.615 224.431L120.625 39.4374ZM166.453 222.832C176.861 218.864 185.365 207.716 190.362 190.855C195.9 172.166 196.75 147.469 191.366 121.269C185.982 95.0692 175.463 72.7158 163.006 57.7369C151.776 44.2325 139.578 37.3542 128.459 37.8137L166.453 222.832ZM250.038 109.174C238.574 53.3851 181.502 18.4057 122.94 30.4516L122.891 30.4617L122.842 30.472C64.291 42.5683 25.6503 97.278 37.1147 153.067C48.5824 208.872 105.683 243.855 164.261 231.78C222.84 219.704 261.506 164.979 250.038 109.174ZM169.157 52.6181C163.476 45.7869 157.217 40.139 150.634 36.1687C195.043 38.057 233.404 67.9737 242.203 110.79C251.001 153.605 227.554 196.264 187.499 215.564C191.982 209.312 195.505 201.647 198.031 193.124C204.012 172.942 204.797 146.882 199.202 119.654C193.606 92.4254 182.61 68.7945 169.157 52.6181ZM117.995 209.623C123.676 216.454 129.935 222.102 136.518 226.073C92.1097 224.184 53.7486 194.267 44.9502 151.452C36.1518 108.636 59.599 65.9782 99.6535 46.6782C95.1703 52.9298 91.6471 60.594 89.1214 69.1169C83.1403 89.2995 82.3553 115.359 87.9506 142.587C93.546 169.816 104.542 193.447 117.995 209.623Z" fill="url(#paint0_radial_3619_2498)"/>
<defs>
<radialGradient id="paint0_radial_3619_2498" cx="0" cy="0" r="1" gradientUnits="userSpaceOnUse" gradientTransform="translate(21.54 28.0791) rotate(41.1503) scale(313.179 529.597)">
<stop stop-color="#B4FF24"/>
<stop offset="0.183581" stop-color="#41DABE"/>
<stop offset="0.367041" stop-color="#9D99FF"/>
<stop offset="0.564559" stop-color="#CC45FF"/>
<stop offset="0.825501" stop-color="#8427FD"/>
<stop offset="1" stop-color="#5672FF"/>
</radialGradient>
</defs>
</svg>
