<svg width="266" height="249" viewBox="0 0 266 249" fill="none" xmlns="http://www.w3.org/2000/svg">
<path opacity="0.4" d="M142.304 214.62C198.937 202.945 235.947 150.169 224.968 96.7406C213.988 43.3122 159.177 9.46405 102.544 21.1386C45.9105 32.8132 8.90051 85.5896 19.8799 139.018C30.8592 192.446 85.6702 226.295 142.304 214.62Z" fill="#CC45FF"/>
<path d="M163.456 227.861C220.09 216.187 257.1 163.41 246.12 109.982C235.141 56.5534 180.33 22.7053 123.696 34.3798C67.0629 46.0544 30.0529 98.8308 41.0322 152.259C52.0115 205.688 106.823 239.536 163.456 227.861Z" stroke="#F9F5FF" stroke-width="8" stroke-miterlimit="10"/>
<path d="M163.456 227.861C192.013 221.974 206.263 173.89 195.284 120.461C184.304 67.033 152.253 28.493 123.696 34.3799C95.1386 40.2668 80.8888 88.3513 91.8681 141.78C102.847 195.208 134.898 233.748 163.456 227.861Z" stroke="#F9F5FF" stroke-width="8" stroke-miterlimit="10"/>
<path d="M123.674 34.3994L163.415 227.92" stroke="#F9F5FF" stroke-width="8" stroke-miterlimit="10"/>
</svg>
