<svg width="350" height="350" viewBox="0 0 350 350" fill="none" xmlns="http://www.w3.org/2000/svg">
<path d="M310.384 121.481C288.95 217.2 337.003 231.884 272.532 279.241C208.061 326.598 233.383 391.949 68.8757 277.606C-95.6313 163.262 103.647 229.023 118.592 95.5075C133.536 -38.0082 331.819 25.7613 310.384 121.481Z" fill="#E9AEFF"/>
<path d="M335.516 105.672C326.887 144.209 329.499 169.671 331.518 189.343C332.01 194.148 332.468 198.607 332.718 202.827C333.353 213.563 332.644 222.727 327.806 232.145C322.961 241.577 313.947 251.319 297.856 263.138C282.63 274.322 272.395 286.508 263.525 297.069C262.973 297.727 262.426 298.378 261.883 299.022C252.606 310.038 244.668 318.961 233.669 322.89C222.695 326.811 208.566 325.791 186.847 316.599C165.129 307.407 135.902 290.077 94.7811 261.495C74.2246 247.207 59.3666 235.743 49.1252 226.36C38.871 216.965 33.2984 209.702 31.2325 203.824C30.2042 200.899 30.05 198.33 30.607 196.013C31.1646 193.693 32.4451 191.582 34.3535 189.591C38.1876 185.589 44.4853 182.137 52.2709 178.499C55.2841 177.092 58.5125 175.66 61.8928 174.161C93.3379 160.215 137.928 140.439 144.708 79.8634C148.429 46.6245 163.544 25.7292 183.741 14.5157C203.96 3.28985 229.343 1.72893 253.638 7.31844C277.932 12.9076 301.08 25.634 316.811 42.9021C332.536 60.1634 340.832 81.9358 335.516 105.672Z" stroke="url(#paint0_radial_5055_3488)"/>
<mask id="mask0_5055_3488" style="mask-type:alpha" maskUnits="userSpaceOnUse" x="3" y="20" width="309" height="323">
<path d="M309.985 122.49C288.55 218.21 336.603 232.894 272.133 280.25C207.662 327.607 232.983 392.958 68.4763 278.615C-96.0307 164.271 103.247 230.033 118.192 96.5168C133.137 -36.9989 331.419 26.7706 309.985 122.49Z" fill="#CC45FF"/>
</mask>
<g mask="url(#mask0_5055_3488)">
<path fill-rule="evenodd" clip-rule="evenodd" d="M437.491 125.887L445.017 126.787L444.344 134.338C444.28 135.057 444.607 135.459 445.323 135.545C446.04 135.63 446.431 135.314 446.495 134.595L447.168 127.044L454.694 127.944C455.411 128.03 455.801 127.713 455.866 126.994C455.93 126.275 455.603 125.873 454.886 125.787L447.36 124.887L448.033 117.337C448.097 116.618 447.771 116.215 447.054 116.13C446.337 116.044 445.946 116.361 445.882 117.08L445.209 124.63L437.683 123.73C436.966 123.644 436.576 123.961 436.512 124.68C436.284 125.198 436.774 125.802 437.491 125.887ZM403.522 153.438L411.048 154.338L410.375 161.888C410.311 162.608 410.637 163.01 411.354 163.096C412.071 163.181 412.462 162.865 412.526 162.146L413.199 154.595L420.725 155.495C421.442 155.581 421.832 155.264 421.897 154.545C421.961 153.826 421.634 153.424 420.917 153.338L413.391 152.438L414.064 144.888C414.128 144.169 413.801 143.766 413.085 143.681C412.368 143.595 411.977 143.912 411.913 144.631L411.24 152.181L403.714 151.281C402.997 151.195 402.607 151.512 402.542 152.231C402.315 152.749 402.805 153.353 403.522 153.438ZM377.274 181.731L369.747 180.831C369.03 180.746 368.541 180.142 368.768 179.624C368.832 178.905 369.223 178.588 369.939 178.674L377.466 179.574L378.139 172.024C378.203 171.305 378.593 170.988 379.31 171.074C380.027 171.159 380.353 171.562 380.289 172.281L379.616 179.831L387.143 180.731C387.86 180.817 388.186 181.219 388.122 181.938C388.058 182.657 387.668 182.974 386.951 182.888L379.424 181.988L378.751 189.539C378.687 190.258 378.297 190.574 377.58 190.489C376.863 190.403 376.537 190.001 376.601 189.282L377.274 181.731ZM335.778 208.383L343.304 209.283L342.631 216.833C342.567 217.552 342.894 217.954 343.61 218.04C344.327 218.126 344.718 217.809 344.782 217.09L345.455 209.54L352.981 210.44C353.698 210.525 354.088 210.209 354.153 209.49C354.217 208.771 353.89 208.368 353.173 208.283L345.647 207.383L346.32 199.832C346.384 199.113 346.058 198.711 345.341 198.625C344.624 198.54 344.233 198.856 344.169 199.575L343.496 207.125L335.97 206.226C335.253 206.14 334.863 206.457 334.799 207.176C334.571 207.693 335.061 208.297 335.778 208.383ZM309.335 236.834L301.808 235.934C301.091 235.848 300.602 235.245 300.829 234.727C300.893 234.008 301.284 233.691 302.001 233.777L309.527 234.677L310.2 227.126C310.264 226.407 310.655 226.091 311.371 226.176C312.088 226.262 312.415 226.664 312.351 227.384L311.678 234.934L319.204 235.834C319.921 235.919 320.247 236.322 320.183 237.041C320.119 237.76 319.729 238.077 319.012 237.991L311.485 237.091L310.812 244.641C310.748 245.36 310.358 245.677 309.641 245.591C308.924 245.506 308.598 245.103 308.662 244.384L309.335 236.834ZM268.034 263.327L275.561 264.227L274.888 271.777C274.824 272.496 275.15 272.898 275.867 272.984C276.584 273.07 276.974 272.753 277.038 272.034L277.711 264.484L285.238 265.384C285.955 265.47 286.345 265.153 286.409 264.434C286.473 263.715 286.147 263.312 285.43 263.227L277.903 262.327L278.576 254.776C278.64 254.057 278.314 253.655 277.597 253.569C276.88 253.484 276.49 253.8 276.426 254.519L275.753 262.07L268.226 261.17C267.51 261.084 267.119 261.401 267.055 262.12C266.828 262.637 267.317 263.241 268.034 263.327ZM241.592 291.778L234.065 290.878C233.348 290.792 232.859 290.188 233.086 289.671C233.15 288.952 233.541 288.635 234.257 288.721L241.784 289.62L242.457 282.07C242.521 281.351 242.911 281.035 243.628 281.12C244.345 281.206 244.671 281.608 244.607 282.327L243.934 289.878L251.461 290.778C252.178 290.863 252.504 291.266 252.44 291.985C252.376 292.704 251.985 293.02 251.269 292.935L243.742 292.035L243.069 299.585C243.005 300.304 242.615 300.621 241.898 300.535C241.181 300.449 240.855 300.047 240.919 299.328L241.592 291.778ZM200.095 318.429L207.622 319.329L206.949 326.88C206.885 327.599 207.211 328.001 207.928 328.087C208.645 328.172 209.035 327.856 209.099 327.137L209.772 319.586L217.299 320.486C218.016 320.572 218.406 320.255 218.47 319.536C218.534 318.817 218.208 318.415 217.491 318.329L209.964 317.429L210.637 309.879C210.702 309.16 210.375 308.758 209.658 308.672C208.942 308.586 208.551 308.903 208.487 309.622L207.814 317.172L200.288 316.272C199.571 316.186 199.18 316.503 199.116 317.222C198.889 317.74 199.378 318.344 200.095 318.429ZM173.848 346.722L166.322 345.822C165.605 345.736 165.115 345.133 165.343 344.615C165.407 343.896 165.797 343.579 166.514 343.665L174.04 344.565L174.713 337.014C174.778 336.295 175.168 335.979 175.885 336.064C176.602 336.15 176.928 336.552 176.864 337.271L176.191 344.822L183.718 345.722C184.434 345.807 184.761 346.21 184.697 346.929C184.632 347.648 184.242 347.965 183.525 347.879L175.999 346.979L175.326 354.529C175.262 355.248 174.871 355.565 174.154 355.479C173.438 355.393 173.111 354.991 173.175 354.272L173.848 346.722ZM132.352 373.373L139.878 374.273L139.205 381.824C139.141 382.543 139.468 382.945 140.184 383.031C140.901 383.117 141.292 382.8 141.356 382.081L142.029 374.531L149.555 375.43C150.272 375.516 150.663 375.199 150.727 374.48C150.791 373.761 150.464 373.359 149.748 373.273L142.221 372.373L142.894 364.823C142.958 364.104 142.632 363.702 141.915 363.616C141.198 363.53 140.808 363.847 140.744 364.566L140.071 372.116L132.544 371.216C131.827 371.131 131.437 371.447 131.373 372.166C131.145 372.684 131.635 373.288 132.352 373.373ZM105.909 401.824L98.3828 400.924C97.6659 400.839 97.3395 400.436 97.4037 399.717C97.4678 398.998 97.8583 398.681 98.575 398.767L106.102 399.667L106.775 392.117C106.839 391.398 107.229 391.081 107.946 391.167C108.663 391.253 108.989 391.655 108.925 392.374L108.252 399.924L115.779 400.824C116.495 400.91 116.822 401.312 116.758 402.031C116.694 402.75 116.303 403.067 115.586 402.981L108.06 402.081L107.387 409.632C107.323 410.351 106.932 410.667 106.216 410.582C105.499 410.496 105.172 410.094 105.236 409.375L105.909 401.824ZM414.808 97.9211L422.335 98.821L421.662 106.371C421.598 107.09 421.924 107.493 422.641 107.578C423.358 107.664 423.748 107.348 423.812 106.628L424.485 99.0782L432.012 99.9781C432.729 100.064 433.119 99.7472 433.183 99.0281C433.247 98.309 432.921 97.9066 432.204 97.8209L424.678 96.9209L425.351 89.3707C425.415 88.6516 425.088 88.2492 424.371 88.1635C423.655 88.0778 423.264 88.3945 423.2 89.1136L422.527 96.6638L415.001 95.7639C414.284 95.6781 413.893 95.9948 413.829 96.7139C413.765 97.4329 414.255 98.0366 414.808 97.9211ZM388.366 126.372L380.839 125.472C380.286 125.588 379.796 124.984 379.86 124.265C379.924 123.546 380.315 123.229 381.032 123.315L388.558 124.215L389.231 116.665C389.295 115.945 389.685 115.629 390.402 115.714C391.119 115.8 391.446 116.203 391.381 116.922L390.708 124.472L398.235 125.372C398.952 125.458 399.278 125.86 399.214 126.579C399.15 127.298 398.76 127.615 398.043 127.529L390.516 126.629L389.843 134.179C389.779 134.898 389.389 135.215 388.672 135.129C387.955 135.044 387.629 134.641 387.693 133.922L388.366 126.372ZM347.065 152.865L354.591 153.765L353.919 161.315C353.854 162.034 354.181 162.437 354.898 162.522C355.614 162.608 356.005 162.292 356.069 161.572L356.742 154.022L364.268 154.922C364.985 155.008 365.376 154.691 365.44 153.972C365.504 153.253 365.178 152.851 364.461 152.765L356.934 151.865L357.607 144.315C357.671 143.596 357.345 143.193 356.628 143.108C355.911 143.022 355.521 143.338 355.457 144.058L354.784 151.608L347.257 150.708C346.54 150.622 346.15 150.939 346.086 151.658C346.022 152.377 346.511 152.981 347.065 152.865ZM320.622 181.316L313.095 180.417C312.542 180.532 312.052 179.928 312.116 179.209C312.18 178.49 312.571 178.174 313.288 178.259L320.814 179.159L321.487 171.609C321.551 170.89 321.942 170.573 322.658 170.659C323.375 170.745 323.702 171.147 323.638 171.866L322.965 179.416L330.491 180.316C331.208 180.402 331.534 180.804 331.47 181.524C331.406 182.243 331.016 182.559 330.299 182.474L322.772 181.574L322.099 189.124C322.035 189.843 321.645 190.16 320.928 190.074C320.211 189.988 319.885 189.586 319.949 188.867L320.622 181.316ZM279.126 207.968L286.652 208.868L285.98 216.418C285.916 217.137 286.242 217.539 286.959 217.625C287.675 217.711 288.066 217.394 288.13 216.675L288.803 209.125L296.33 210.025C297.046 210.11 297.437 209.794 297.501 209.075C297.565 208.356 297.239 207.953 296.522 207.868L288.995 206.968L289.668 199.417C289.732 198.698 289.406 198.296 288.689 198.21C287.972 198.124 287.582 198.441 287.518 199.16L286.845 206.71L279.318 205.81C278.601 205.725 278.211 206.041 278.147 206.761C278.083 207.48 278.572 208.083 279.126 207.968ZM252.878 236.26L245.352 235.361C244.798 235.476 244.309 234.872 244.373 234.153C244.437 233.434 244.827 233.118 245.544 233.203L253.071 234.103L253.744 226.553C253.808 225.834 254.198 225.517 254.915 225.603C255.632 225.689 255.958 226.091 255.894 226.81L255.221 234.36L262.748 235.26C263.464 235.346 263.791 235.748 263.727 236.468C263.663 237.187 263.272 237.503 262.555 237.418L255.029 236.518L254.356 244.068C254.292 244.787 253.901 245.104 253.185 245.018C252.468 244.932 252.141 244.53 252.205 243.811L252.878 236.26ZM211.383 262.912L218.909 263.811L218.236 271.362C218.172 272.081 218.499 272.483 219.216 272.569C219.932 272.655 220.323 272.338 220.387 271.619L221.06 264.069L228.586 264.969C229.303 265.054 229.694 264.738 229.758 264.019C229.822 263.299 229.495 262.897 228.779 262.811L221.252 261.911L221.925 254.361C221.989 253.642 221.663 253.24 220.946 253.154C220.229 253.068 219.839 253.385 219.775 254.104L219.102 261.654L211.575 260.754C210.858 260.669 210.468 260.985 210.404 261.704C210.34 262.423 210.829 263.027 211.383 262.912ZM184.94 291.363L177.413 290.463C176.859 290.579 176.37 289.975 176.434 289.256C176.498 288.537 176.888 288.22 177.605 288.306L185.132 289.206L185.805 281.656C185.869 280.937 186.259 280.62 186.976 280.706C187.693 280.791 188.019 281.194 187.955 281.913L187.282 289.463L194.809 290.363C195.526 290.449 195.852 290.851 195.788 291.57C195.724 292.289 195.333 292.606 194.617 292.52L187.09 291.62L186.417 299.17C186.353 299.889 185.962 300.206 185.246 300.121C184.529 300.035 184.202 299.632 184.267 298.913L184.94 291.363ZM143.639 317.855L151.166 318.755L150.493 326.306C150.429 327.025 150.755 327.427 151.472 327.513C152.189 327.599 152.579 327.282 152.643 326.563L153.316 319.013L160.843 319.913C161.56 319.998 161.95 319.682 162.014 318.963C162.078 318.243 161.752 317.841 161.035 317.755L153.509 316.855L154.182 309.305C154.246 308.586 153.919 308.184 153.203 308.098C152.486 308.012 152.095 308.329 152.031 309.048L151.358 316.598L143.832 315.698C143.115 315.613 142.724 315.929 142.66 316.648C142.596 317.367 143.086 317.971 143.639 317.855ZM117.196 346.307L109.669 345.407C109.116 345.523 108.626 344.919 108.69 344.2C108.754 343.481 109.145 343.164 109.862 343.25L117.388 344.15L118.061 336.6C118.125 335.881 118.516 335.564 119.233 335.65C119.949 335.735 120.276 336.138 120.212 336.857L119.539 344.407L127.065 345.307C127.782 345.393 128.108 345.795 128.044 346.514C127.98 347.233 127.59 347.55 126.873 347.464L119.346 346.564L118.674 354.114C118.609 354.834 118.219 355.15 117.502 355.065C116.785 354.979 116.459 354.576 116.523 353.857L117.196 346.307ZM75.7005 372.958L83.227 373.858L82.5541 381.408C82.4899 382.127 82.8163 382.53 83.5332 382.615C84.25 382.701 84.6404 382.384 84.7045 381.665L85.3775 374.115L92.9041 375.015C93.6209 375.101 94.0113 374.784 94.0754 374.065C94.1394 373.346 93.8131 372.944 93.0963 372.858L85.5697 371.958L86.2427 364.408C86.3067 363.689 85.9804 363.286 85.2636 363.201C84.5468 363.115 84.1563 363.431 84.0923 364.151L83.4193 371.701L75.8927 370.801C75.1759 370.715 74.7855 371.032 74.7214 371.751C74.6572 372.47 75.1468 373.074 75.7005 372.958ZM399.816 71.0562L392.289 70.1563C391.573 70.0706 391.083 69.467 391.31 68.9491C391.374 68.2301 391.765 67.9134 392.482 67.9991L400.008 68.8991L400.681 61.3488C400.745 60.6298 401.136 60.3131 401.853 60.3987C402.569 60.4844 402.896 60.8869 402.832 61.6059L402.159 69.1562L409.685 70.0561C410.402 70.1418 410.728 70.5442 410.664 71.2633C410.6 71.9824 410.21 72.299 409.493 72.2133L401.966 71.3134L401.293 78.8636C401.229 79.5827 400.839 79.8994 400.122 79.8137C399.405 79.7279 399.079 79.3255 399.143 78.6065L399.816 71.0562ZM358.32 97.7073L365.847 98.6072L365.174 106.157C365.11 106.877 365.436 107.279 366.153 107.365C366.87 107.45 367.26 107.134 367.324 106.415L367.997 98.8643L375.524 99.7643C376.241 99.85 376.631 99.5333 376.695 98.8143C376.759 98.0952 376.433 97.6928 375.716 97.6071L368.19 96.7071L368.863 89.1569C368.927 88.4378 368.6 88.0354 367.883 87.9497C367.167 87.8641 366.776 88.1807 366.712 88.8997L366.039 96.4501L358.513 95.55C357.796 95.4644 357.405 95.7811 357.341 96.5001C357.114 97.018 357.604 97.6216 358.32 97.7073ZM332.072 126L324.546 125.1C323.829 125.015 323.34 124.411 323.567 123.893C323.631 123.174 324.021 122.857 324.738 122.943L332.265 123.843L332.938 116.293C333.002 115.574 333.392 115.257 334.109 115.343C334.826 115.428 335.152 115.831 335.088 116.55L334.415 124.1L341.942 125C342.659 125.086 342.985 125.488 342.921 126.207C342.857 126.926 342.466 127.243 341.75 127.157L334.223 126.257L333.55 133.808C333.486 134.527 333.095 134.843 332.379 134.758C331.662 134.672 331.335 134.27 331.4 133.551L332.072 126ZM290.576 152.652L298.103 153.552L297.43 161.102C297.366 161.821 297.692 162.223 298.409 162.309C299.126 162.395 299.516 162.078 299.58 161.359L300.253 153.809L307.78 154.709C308.497 154.794 308.887 154.478 308.951 153.759C309.015 153.04 308.689 152.637 307.972 152.552L300.446 151.652L301.119 144.101C301.183 143.382 300.856 142.98 300.14 142.894C299.423 142.809 299.032 143.125 298.968 143.844L298.295 151.395L290.769 150.495C290.052 150.409 289.661 150.726 289.597 151.445C289.37 151.962 289.86 152.566 290.576 152.652ZM264.134 181.103L256.607 180.203C255.89 180.117 255.401 179.513 255.823 178.837C255.888 178.118 256.278 177.801 256.995 177.887L264.521 178.787L265.194 171.237C265.258 170.518 265.649 170.201 266.366 170.287C267.082 170.373 267.409 170.775 267.345 171.494L266.672 179.044L274.198 179.944C274.915 180.03 275.242 180.432 275.177 181.151C275.113 181.87 274.723 182.187 274.006 182.101L266.284 181.36L265.611 188.91C265.547 189.629 265.157 189.946 264.44 189.86C263.723 189.774 263.397 189.372 263.461 188.653L264.134 181.103ZM222.833 207.596L230.359 208.496L229.687 216.046C229.622 216.765 229.949 217.167 230.666 217.253C231.382 217.339 231.773 217.022 231.837 216.303L232.51 208.753L240.037 209.653C240.753 209.739 241.144 209.422 241.208 208.703C241.272 207.984 240.946 207.581 240.229 207.496L232.702 206.596L233.375 199.045C233.439 198.326 233.113 197.924 232.396 197.838C231.679 197.753 231.289 198.069 231.225 198.788L230.552 206.339L223.025 205.439C222.308 205.353 221.918 205.67 221.854 206.389C221.627 206.906 222.116 207.51 222.833 207.596ZM196.39 236.047L188.864 235.147C188.147 235.061 187.657 234.457 187.885 233.94C187.949 233.221 188.339 232.904 189.056 232.99L196.583 233.89L197.256 226.339C197.32 225.62 197.71 225.304 198.427 225.389C199.144 225.475 199.47 225.877 199.406 226.596L198.733 234.147L206.26 235.047C206.977 235.132 207.303 235.535 207.239 236.254C207.175 236.973 206.784 237.289 206.067 237.204L198.541 236.304L197.868 243.854C197.804 244.573 197.413 244.89 196.697 244.804C195.98 244.718 195.653 244.316 195.718 243.597L196.39 236.047ZM154.894 262.698L162.421 263.598L161.748 271.149C161.684 271.868 162.01 272.27 162.727 272.356C163.444 272.441 163.834 272.125 163.898 271.406L164.571 263.855L172.098 264.755C172.814 264.841 173.205 264.524 173.269 263.805C173.333 263.086 173.007 262.684 172.29 262.598L164.763 261.698L165.436 254.148C165.5 253.429 165.174 253.026 164.457 252.941C163.74 252.855 163.35 253.172 163.286 253.891L162.613 261.441L155.086 260.541C154.37 260.455 153.979 260.772 153.915 261.491C153.688 262.009 154.177 262.613 154.894 262.698ZM128.647 290.991L121.121 290.091C120.404 290.005 119.914 289.401 120.141 288.884C120.206 288.164 120.596 287.848 121.313 287.934L128.839 288.834L129.512 281.283C129.576 280.564 129.967 280.248 130.684 280.333C131.4 280.419 131.727 280.821 131.663 281.54L130.99 289.091L138.516 289.991C139.233 290.076 139.559 290.479 139.495 291.198C139.431 291.917 139.041 292.234 138.324 292.148L130.797 291.248L130.125 298.798C130.06 299.517 129.67 299.834 128.953 299.748C128.236 299.662 127.91 299.26 127.974 298.541L128.647 290.991ZM87.1505 317.642L94.6771 318.542L94.0042 326.093C93.9401 326.812 94.2664 327.214 94.9832 327.3C95.7 327.386 96.0905 327.069 96.1547 326.35L96.8275 318.8L104.354 319.699C105.071 319.785 105.461 319.468 105.526 318.749C105.59 318.03 105.263 317.628 104.546 317.542L97.0198 316.642L97.6928 309.092C97.7569 308.373 97.4305 307.971 96.7137 307.885C95.9969 307.799 95.6064 308.116 95.5423 308.835L94.8694 316.385L87.3429 315.485C86.6259 315.4 86.2355 315.716 86.1714 316.435C85.9442 316.953 86.4337 317.557 87.1505 317.642ZM60.708 346.093L53.1816 345.193C52.4647 345.108 52.1383 344.705 52.2025 343.986C52.2666 343.267 52.657 342.95 53.3738 343.036L60.9004 343.936L61.5734 336.386C61.6375 335.667 62.0279 335.35 62.7447 335.436C63.4614 335.521 63.7878 335.924 63.7238 336.643L63.0508 344.193L70.5774 345.093C71.2942 345.179 71.6205 345.581 71.5565 346.3C71.4924 347.019 71.102 347.336 70.3852 347.25L62.8586 346.35L62.1856 353.901C62.1215 354.62 61.7311 354.936 61.0143 354.851C60.2974 354.765 59.971 354.363 60.0352 353.643L60.708 346.093ZM369.607 42.19L377.134 43.09L376.461 50.6403C376.397 51.3593 376.723 51.7617 377.44 51.8474C378.157 51.9331 378.547 51.6165 378.611 50.8974L379.284 43.3471L386.811 44.2471C387.527 44.3328 387.918 44.0161 387.982 43.2971C388.046 42.578 387.72 42.1756 387.003 42.0899L379.476 41.1899L380.149 33.6396C380.213 32.9206 379.887 32.5182 379.17 32.4325C378.453 32.3468 378.063 32.6635 377.999 33.3825L377.326 40.9328L369.799 40.0328C369.083 39.9472 368.692 40.2639 368.628 40.9829C368.564 41.7019 369.053 42.3055 369.607 42.19ZM343.165 70.641L335.638 69.741C335.084 69.8565 334.595 69.2529 334.659 68.5338C334.723 67.8148 335.113 67.4982 335.83 67.5838L343.357 68.4838L344.03 60.9335C344.094 60.2145 344.484 59.8978 345.201 59.9835C345.918 60.0692 346.244 60.4715 346.18 61.1906L345.507 68.7409L353.034 69.6409C353.751 69.7266 354.077 70.1289 354.013 70.848C353.949 71.5671 353.558 71.8838 352.842 71.7981L345.315 70.8981L344.642 78.4484C344.578 79.1675 344.188 79.4841 343.471 79.3984C342.754 79.3127 342.428 78.9103 342.492 78.1912L343.165 70.641ZM301.864 97.134L309.39 98.034L308.717 105.584C308.653 106.303 308.979 106.706 309.696 106.791C310.413 106.877 310.804 106.561 310.868 105.841L311.541 98.2912L319.067 99.1911C319.784 99.2768 320.174 98.9602 320.239 98.2411C320.303 97.522 319.976 97.1196 319.26 97.0339L311.733 96.134L312.406 88.5836C312.47 87.8646 312.144 87.4622 311.427 87.3765C310.71 87.2909 310.32 87.6075 310.255 88.3266L309.582 95.8768L302.056 94.9769C301.339 94.8912 300.949 95.2079 300.885 95.9269C300.82 96.646 301.31 97.2496 301.864 97.134ZM275.421 125.585L267.894 124.685C267.34 124.801 266.851 124.197 266.915 123.478C266.979 122.759 267.37 122.443 268.086 122.528L275.613 123.428L276.286 115.878C276.35 115.159 276.74 114.842 277.457 114.928C278.174 115.014 278.5 115.416 278.436 116.135L277.763 123.685L285.29 124.585C286.007 124.671 286.333 125.073 286.269 125.792C286.205 126.512 285.814 126.828 285.098 126.743L277.571 125.843L276.898 133.393C276.834 134.112 276.444 134.429 275.727 134.343C275.01 134.257 274.684 133.855 274.748 133.136L275.421 125.585ZM233.925 152.237L241.451 153.137L240.778 160.687C240.714 161.406 241.041 161.808 241.757 161.894C242.474 161.98 242.865 161.663 242.929 160.944L243.602 153.394L251.128 154.294C251.845 154.379 252.236 154.063 252.3 153.344C252.364 152.625 252.037 152.222 251.321 152.137L243.794 151.237L244.467 143.686C244.531 142.967 244.205 142.565 243.488 142.479C242.771 142.393 242.381 142.71 242.317 143.429L241.644 150.979L234.117 150.079C233.4 149.994 233.01 150.31 232.946 151.029C232.882 151.749 233.371 152.352 233.925 152.237ZM207.677 180.529L200.151 179.629C199.597 179.745 199.107 179.141 199.172 178.422C199.236 177.703 199.626 177.387 200.343 177.472L207.869 178.372L208.542 170.822C208.606 170.103 208.997 169.786 209.714 169.872C210.431 169.958 210.757 170.36 210.693 171.079L210.02 178.629L217.546 179.529C218.263 179.615 218.59 180.017 218.526 180.737C218.461 181.456 218.071 181.772 217.354 181.687L209.828 180.787L209.155 188.337C209.091 189.056 208.7 189.373 207.983 189.287C207.267 189.201 206.94 188.799 207.004 188.08L207.677 180.529ZM166.182 207.18L173.708 208.08L173.035 215.631C172.971 216.35 173.297 216.752 174.014 216.838C174.731 216.924 175.121 216.607 175.186 215.888L175.859 208.338L183.385 209.238C184.102 209.323 184.492 209.007 184.557 208.287C184.621 207.568 184.294 207.166 183.577 207.08L176.051 206.18L176.724 198.63C176.788 197.911 176.461 197.509 175.745 197.423C175.028 197.337 174.637 197.654 174.573 198.373L173.9 205.923L166.374 205.023C165.657 204.938 165.267 205.254 165.202 205.973C165.138 206.692 165.628 207.296 166.182 207.18ZM139.738 235.632L132.212 234.732C131.658 234.848 131.169 234.244 131.233 233.525C131.297 232.806 131.687 232.489 132.404 232.575L139.931 233.475L140.603 225.925C140.668 225.206 141.058 224.889 141.775 224.975C142.492 225.06 142.818 225.463 142.754 226.182L142.081 233.732L149.608 234.632C150.324 234.718 150.651 235.12 150.587 235.839C150.523 236.558 150.132 236.875 149.415 236.789L141.889 235.889L141.216 243.439C141.152 244.158 140.761 244.475 140.044 244.389C139.328 244.304 139.001 243.901 139.065 243.182L139.738 235.632ZM98.4381 262.124L105.965 263.024L105.292 270.575C105.228 271.294 105.554 271.696 106.271 271.782C106.988 271.868 107.378 271.551 107.442 270.832L108.115 263.282L115.642 264.182C116.359 264.267 116.749 263.951 116.813 263.232C116.877 262.512 116.551 262.11 115.834 262.024L108.307 261.124L108.98 253.574C109.044 252.855 108.718 252.453 108.001 252.367C107.284 252.281 106.894 252.598 106.83 253.317L106.157 260.867L98.6304 259.967C97.9135 259.882 97.5232 260.198 97.4591 260.917C97.3949 261.636 97.8844 262.24 98.4381 262.124ZM71.9948 290.576L64.4681 289.676C63.9145 289.792 63.425 289.188 63.4891 288.469C63.5532 287.75 63.9436 287.433 64.6605 287.519L72.187 288.419L72.86 280.869C72.9241 280.15 73.3146 279.833 74.0314 279.919C74.7482 280.004 75.0745 280.407 75.0104 281.126L74.3375 288.676L81.8641 289.576C82.5809 289.662 82.9073 290.064 82.8432 290.783C82.7791 291.502 82.3886 291.819 81.6718 291.733L74.1452 290.833L73.4724 298.383C73.4081 299.103 73.0177 299.419 72.3009 299.334C71.5841 299.248 71.2578 298.845 71.3218 298.126L71.9948 290.576ZM30.4992 317.227L38.0257 318.127L37.3529 325.677C37.2887 326.396 37.615 326.799 38.332 326.884C39.0488 326.97 39.4392 326.653 39.5033 325.934L40.1762 318.384L47.7029 319.284C48.4196 319.37 48.8101 319.053 48.8742 318.334C48.9382 317.615 48.6118 317.213 47.8951 317.127L40.3684 316.227L41.0414 308.677C41.1055 307.958 40.7791 307.555 40.0623 307.47C39.3456 307.384 38.9551 307.701 38.8911 308.42L38.2181 315.97L30.6915 315.07C29.9747 314.984 29.5843 315.301 29.5202 316.02C29.456 316.739 29.9455 317.343 30.4992 317.227ZM354.615 15.325L347.088 14.425C346.371 14.3393 346.045 13.9369 346.109 13.2179C346.173 12.4987 346.563 12.1821 347.28 12.2679L354.807 13.1678L355.48 5.61756C355.544 4.89839 355.934 4.58173 356.651 4.66751C357.368 4.75315 357.694 5.15559 357.63 5.87462L356.957 13.4249L364.484 14.3248C365.201 14.4106 365.527 14.8129 365.463 15.532C365.399 16.2511 365.008 16.5678 364.292 16.482L356.765 15.5822L356.092 23.1323C356.028 23.8514 355.637 24.1681 354.921 24.0824C354.204 23.9966 353.878 23.5943 353.942 22.8752L354.615 15.325ZM313.119 41.976L320.645 42.876L319.973 50.4262C319.908 51.1453 320.235 51.5476 320.952 51.6334C321.668 51.7191 322.059 51.4024 322.123 50.6833L322.796 43.1331L330.322 44.033C331.039 44.1187 331.43 43.8021 331.494 43.083C331.558 42.3639 331.232 41.9616 330.515 41.8758L322.988 40.9759L323.661 33.4256C323.725 32.7066 323.399 32.3041 322.682 32.2185C321.965 32.1327 321.575 32.4494 321.511 33.1685L320.838 40.7188L313.311 39.8188C312.594 39.733 312.204 40.0497 312.14 40.7689C312.076 41.4879 312.402 41.8903 313.119 41.976ZM286.871 70.2691L279.345 69.369C278.628 69.2834 278.301 68.8809 278.365 68.1619C278.429 67.4428 278.82 67.1261 279.537 67.2119L287.063 68.1118L287.736 60.5616C287.8 59.8424 288.191 59.5258 288.908 59.6115C289.624 59.6972 289.951 60.0996 289.887 60.8187L289.214 68.369L296.74 69.2689C297.457 69.3546 297.783 69.7569 297.719 70.476C297.655 71.1951 297.265 71.5118 296.548 71.4261L289.022 70.5262L288.349 78.0764C288.284 78.7955 287.894 79.1121 287.177 79.0264C286.46 78.9407 286.134 78.5384 286.198 77.8192L286.871 70.2691ZM245.375 96.9204L252.902 97.8204L252.229 105.371C252.165 106.09 252.491 106.492 253.208 106.578C253.924 106.664 254.315 106.347 254.379 105.628L255.052 98.0776L262.579 98.9775C263.295 99.0632 263.686 98.7465 263.75 98.0274C263.814 97.3083 263.488 96.906 262.771 96.8203L255.244 95.9203L255.917 88.3701C255.981 87.651 255.655 87.2486 254.938 87.1629C254.221 87.0772 253.831 87.3938 253.767 88.113L253.094 95.6632L245.567 94.7633C244.85 94.6774 244.46 94.9942 244.396 95.7133C244.332 96.4323 244.658 96.8347 245.375 96.9204ZM218.932 125.372L211.406 124.472C210.689 124.386 210.362 123.983 210.427 123.265C210.491 122.545 210.881 122.229 211.598 122.314L219.124 123.214L219.797 115.664C219.861 114.945 220.252 114.628 220.969 114.714C221.686 114.8 222.012 115.202 221.948 115.921L221.275 123.472L228.801 124.371C229.518 124.457 229.845 124.86 229.781 125.579C229.716 126.298 229.326 126.614 228.609 126.529L221.083 125.629L220.41 133.179C220.346 133.898 219.955 134.215 219.238 134.129C218.521 134.043 218.195 133.641 218.259 132.922L218.932 125.372ZM177.631 151.864L185.158 152.764L184.485 160.315C184.421 161.034 184.747 161.436 185.464 161.522C186.181 161.608 186.571 161.291 186.636 160.572L187.308 153.022L194.835 153.922C195.552 154.007 195.942 153.691 196.006 152.971C196.07 152.252 195.744 151.85 195.027 151.764L187.501 150.864L188.174 143.314C188.238 142.595 187.911 142.193 187.195 142.107C186.478 142.021 186.087 142.338 186.023 143.057L185.35 150.607L177.824 149.707C177.107 149.622 176.716 149.938 176.652 150.657C176.588 151.376 176.915 151.779 177.631 151.864ZM151.189 180.315L143.662 179.415C142.946 179.33 142.619 178.927 142.683 178.208C142.747 177.489 143.138 177.172 143.855 177.258L151.381 178.158L152.054 170.608C152.118 169.889 152.509 169.572 153.226 169.658C153.942 169.744 154.269 170.146 154.205 170.865L153.532 178.415L161.058 179.315C161.775 179.401 162.101 179.803 162.037 180.522C161.973 181.242 161.583 181.558 160.866 181.472L153.339 180.573L152.667 188.123C152.602 188.842 152.212 189.159 151.495 189.073C150.778 188.987 150.452 188.585 150.516 187.866L151.189 180.315ZM109.693 206.967L117.219 207.867L116.546 215.417C116.482 216.136 116.808 216.539 117.525 216.624C118.242 216.71 118.633 216.393 118.697 215.674L119.37 208.124L126.896 209.024C127.613 209.11 128.003 208.793 128.068 208.074C128.132 207.355 127.805 206.953 127.088 206.867L119.562 205.967L120.235 198.417C120.299 197.698 119.972 197.295 119.256 197.21C118.539 197.124 118.148 197.44 118.084 198.16L117.411 205.71L109.885 204.81C109.168 204.724 108.778 205.041 108.714 205.76C108.649 206.479 108.976 206.881 109.693 206.967ZM83.4456 235.259L75.9191 234.359C75.2021 234.274 74.8757 233.871 74.94 233.152C75.004 232.433 75.3943 232.117 76.1113 232.202L83.6378 233.102L84.3108 225.552C84.3748 224.833 84.7652 224.516 85.4822 224.602C86.1989 224.688 86.5253 225.09 86.4612 225.809L85.7883 233.359L93.3149 234.259C94.0317 234.345 94.358 234.747 94.2939 235.466C94.2298 236.186 93.8394 236.502 93.1226 236.417L85.5959 235.517L84.9231 243.067C84.8589 243.786 84.4686 244.103 83.7518 244.017C83.0348 243.931 82.7085 243.529 82.7727 242.81L83.4456 235.259ZM41.9491 261.911L49.4757 262.811L48.8027 270.361C48.7387 271.08 49.065 271.483 49.7818 271.569C50.4986 271.654 50.889 271.338 50.9532 270.618L51.6261 263.068L59.1527 263.968C59.8694 264.054 60.26 263.737 60.3241 263.018C60.3881 262.299 60.0618 261.897 59.345 261.811L51.8184 260.911L52.4914 253.361C52.5554 252.642 52.229 252.239 51.5123 252.154C50.7954 252.068 50.4049 252.385 50.3409 253.104L49.6679 260.654L42.1415 259.754C41.4244 259.668 41.034 259.985 40.97 260.704C40.9059 261.423 41.2323 261.825 41.9491 261.911ZM15.5066 290.362L7.98014 289.462C7.26323 289.376 6.93683 288.974 7.0011 288.255C7.06508 287.536 7.45551 287.219 8.1724 287.305L15.699 288.205L16.372 280.655C16.4359 279.935 16.8264 279.619 17.5433 279.705C18.26 279.79 18.5864 280.193 18.5223 280.912L17.8494 288.462L25.3759 289.362C26.0928 289.448 26.4191 289.85 26.355 290.569C26.2909 291.288 25.9005 291.605 25.1837 291.519L17.6572 290.619L16.9842 298.169C16.9201 298.888 16.5296 299.205 15.8129 299.119C15.0959 299.034 14.7696 298.631 14.8338 297.912L15.5066 290.362Z" fill="#8427FD"/>
</g>
<defs>
<radialGradient id="paint0_radial_5055_3488" cx="0" cy="0" r="1" gradientUnits="userSpaceOnUse" gradientTransform="translate(-24.1671 165.897) rotate(1.95913) scale(454.208 753.706)">
<stop stop-color="#B4FF24"/>
<stop offset="0.183581" stop-color="#41DABE"/>
<stop offset="0.367041" stop-color="#9D99FF"/>
<stop offset="0.564559" stop-color="#CC45FF"/>
<stop offset="0.825501" stop-color="#8427FD"/>
<stop offset="1" stop-color="#5672FF"/>
</radialGradient>
</defs>
</svg>
