<svg width="350" height="350" viewBox="0 0 350 350" fill="none" xmlns="http://www.w3.org/2000/svg">
<path d="M305.58 233.026C314.869 302.278 248.011 249.599 203.533 306.762C134.125 316.071 73.1285 304.645 44.7729 244.365C8.67938 167.635 74.9601 111.572 171.517 68.0632C268.074 24.5544 296.291 163.774 305.58 233.026Z" fill="#B4FF24"/>
<path d="M322.507 206.924C324.823 224.194 322.363 233.681 316.876 239.203C311.359 244.756 302.662 246.443 292.08 247.763C290.487 247.961 288.855 248.151 287.188 248.345C266.837 250.714 241.358 253.679 220.687 280.125C186.096 284.745 153.655 284.193 126.34 275.017C98.9924 265.83 76.7644 247.994 62.648 217.984C53.6613 198.879 51.0587 181.09 53.6879 164.476C56.3176 147.858 64.1875 132.378 76.2083 117.907C100.261 88.9519 140.885 64.0971 189.145 42.3508C213.175 31.5227 232.885 32.0874 249.096 40.0255C265.331 47.9756 278.137 63.36 288.256 82.3261C308.495 120.263 317.863 172.301 322.507 206.924Z" stroke="url(#paint0_radial_5055_3630)"/>
<mask id="mask0_5055_3630" style="mask-type:alpha" maskUnits="userSpaceOnUse" x="34" y="59" width="273" height="251">
<path d="M305.58 233.026C314.869 302.278 248.011 249.599 203.533 306.762C134.125 316.071 73.1285 304.645 44.7729 244.365C8.67938 167.635 74.9601 111.572 171.517 68.0632C268.074 24.5544 296.291 163.774 305.58 233.026Z" fill="#CC45FF"/>
</mask>
<g mask="url(#mask0_5055_3630)">
<path fill-rule="evenodd" clip-rule="evenodd" d="M44.2777 174.642L41.3649 171.307L44.6107 168.295C44.9198 168.008 44.9356 167.706 44.6582 167.388C44.3808 167.071 44.0876 167.055 43.7784 167.342L40.5326 170.354L37.6198 167.019C37.3424 166.701 37.0491 166.686 36.74 166.973C36.4309 167.26 36.415 167.562 36.6924 167.879L39.6053 171.214L36.3594 174.226C36.0503 174.513 36.0345 174.815 36.3119 175.133C36.5893 175.451 36.8826 175.466 37.1917 175.179L40.4375 172.167L43.3503 175.502C43.6278 175.82 43.921 175.835 44.2301 175.548C44.5313 175.413 44.5551 174.959 44.2777 174.642ZM69.7919 175.98L66.8791 172.645L70.1248 169.633C70.434 169.347 70.4499 169.044 70.1724 168.727C69.895 168.409 69.6018 168.394 69.2926 168.68L66.0468 171.692L63.1339 168.357C62.8566 168.04 62.5633 168.024 62.2541 168.311C61.945 168.598 61.9292 168.9 62.2066 169.218L65.1194 172.553L61.8736 175.565C61.5645 175.852 61.5486 176.154 61.826 176.472C62.1035 176.789 62.3967 176.805 62.7058 176.518L65.9517 173.506L68.8645 176.841C69.1419 177.158 69.4352 177.174 69.7443 176.887C70.0455 176.751 70.0693 176.298 69.7919 175.98ZM92.247 173.976L95.1598 177.311C95.4373 177.629 95.4135 178.082 95.1122 178.218C94.8031 178.505 94.5099 178.489 94.2324 178.172L91.3196 174.837L88.0738 177.849C87.7647 178.135 87.4714 178.12 87.194 177.802C86.9166 177.485 86.9324 177.183 87.2415 176.896L90.4874 173.884L87.5745 170.549C87.2971 170.231 87.313 169.929 87.6221 169.642C87.9312 169.355 88.2245 169.371 88.5019 169.688L91.4148 173.023L94.6605 170.011C94.9697 169.725 95.263 169.74 95.5404 170.057C95.8178 170.375 95.8019 170.677 95.4928 170.964L92.247 173.976ZM120.674 178.65L117.762 175.315L121.007 172.303C121.316 172.016 121.332 171.714 121.055 171.396C120.778 171.078 120.484 171.063 120.175 171.35L116.929 174.362L114.016 171.027C113.739 170.709 113.446 170.694 113.137 170.981C112.828 171.268 112.812 171.57 113.089 171.887L116.002 175.222L112.756 178.234C112.447 178.521 112.431 178.823 112.709 179.141C112.986 179.459 113.279 179.474 113.588 179.187L116.834 176.175L119.747 179.51C120.024 179.828 120.318 179.843 120.627 179.556C120.928 179.421 120.952 178.967 120.674 178.65ZM143.276 176.653L146.189 179.988C146.466 180.306 146.442 180.759 146.141 180.895C145.832 181.182 145.539 181.166 145.261 180.849L142.349 177.514L139.103 180.526C138.794 180.813 138.5 180.797 138.223 180.48C137.946 180.162 137.961 179.86 138.27 179.573L141.516 176.561L138.603 173.226C138.326 172.908 138.342 172.606 138.651 172.319C138.96 172.032 139.253 172.048 139.531 172.365L142.444 175.7L145.689 172.688C145.999 172.402 146.292 172.417 146.569 172.735C146.847 173.052 146.831 173.354 146.522 173.641L143.276 176.653ZM171.557 181.319L168.644 177.984L171.889 174.972C172.199 174.685 172.214 174.383 171.937 174.065C171.66 173.748 171.366 173.732 171.057 174.019L167.811 177.031L164.899 173.696C164.621 173.379 164.328 173.363 164.019 173.65C163.71 173.937 163.694 174.239 163.971 174.557L166.884 177.892L163.638 180.904C163.329 181.191 163.313 181.493 163.591 181.81C163.868 182.128 164.161 182.143 164.47 181.857L167.716 178.845L170.629 182.18C170.907 182.497 171.2 182.513 171.509 182.226C171.81 182.09 171.834 181.637 171.557 181.319ZM194.158 179.323L197.071 182.658C197.348 182.975 197.324 183.429 197.023 183.564C196.714 183.851 196.421 183.836 196.143 183.518L193.23 180.183L189.985 183.195C189.676 183.482 189.382 183.467 189.105 183.149C188.827 182.831 188.843 182.529 189.152 182.242L192.398 179.23L189.485 175.895C189.208 175.578 189.224 175.275 189.533 174.989C189.842 174.702 190.135 174.717 190.413 175.035L193.326 178.37L196.571 175.358C196.881 175.071 197.174 175.086 197.451 175.404C197.729 175.722 197.713 176.024 197.404 176.311L194.158 179.323ZM222.585 183.996L219.673 180.661L222.918 177.649C223.228 177.362 223.243 177.06 222.966 176.743C222.689 176.425 222.395 176.41 222.086 176.696L218.84 179.708L215.928 176.373C215.65 176.056 215.357 176.04 215.048 176.327C214.739 176.614 214.723 176.916 215 177.234L217.913 180.569L214.667 183.581C214.358 183.868 214.342 184.17 214.62 184.487C214.897 184.805 215.19 184.82 215.499 184.534L218.745 181.522L221.658 184.857C221.935 185.174 222.229 185.19 222.538 184.903C222.839 184.767 222.863 184.314 222.585 183.996ZM245.04 181.992L247.953 185.327C248.23 185.645 248.206 186.098 247.905 186.234C247.596 186.521 247.303 186.505 247.025 186.188L244.113 182.853L240.867 185.864C240.558 186.151 240.264 186.136 239.987 185.818C239.71 185.501 239.725 185.198 240.035 184.912L243.28 181.9L240.368 178.565C240.09 178.247 240.106 177.945 240.415 177.658C240.724 177.371 241.017 177.387 241.295 177.704L244.208 181.039L247.454 178.027C247.763 177.74 248.056 177.756 248.333 178.073C248.611 178.391 248.595 178.693 248.286 178.98L245.04 181.992ZM273.468 186.666L270.555 183.331L273.801 180.319C274.11 180.032 274.126 179.73 273.848 179.412C273.571 179.094 273.278 179.079 272.968 179.366L269.723 182.378L266.81 179.043C266.532 178.725 266.239 178.71 265.93 178.997C265.621 179.283 265.605 179.586 265.882 179.903L268.795 183.238L265.549 186.25C265.24 186.537 265.224 186.839 265.502 187.157C265.779 187.474 266.072 187.49 266.382 187.203L269.627 184.191L272.54 187.526C272.818 187.844 273.111 187.859 273.42 187.572C273.721 187.437 273.745 186.983 273.468 186.666ZM296.069 184.669L298.982 188.004C299.259 188.322 299.243 188.624 298.934 188.911C298.625 189.198 298.332 189.182 298.054 188.865L295.142 185.53L291.896 188.542C291.587 188.828 291.293 188.813 291.016 188.495C290.739 188.178 290.754 187.876 291.063 187.589L294.309 184.577L291.396 181.242C291.119 180.924 291.135 180.622 291.444 180.335C291.753 180.048 292.046 180.064 292.324 180.381L295.237 183.716L298.482 180.704C298.792 180.417 299.085 180.433 299.362 180.75C299.64 181.068 299.624 181.37 299.315 181.657L296.069 184.669ZM43.1757 195.647L40.2629 192.312L43.5087 189.3C43.8178 189.013 43.8336 188.711 43.5562 188.394C43.2788 188.076 42.9856 188.061 42.6764 188.347L39.4306 191.359L36.5178 188.024C36.2404 187.707 35.9471 187.691 35.638 187.978C35.3289 188.265 35.313 188.567 35.5904 188.885L38.5033 192.22L35.2574 195.232C34.9483 195.519 34.9325 195.821 35.2099 196.139C35.4873 196.456 35.7806 196.472 36.0897 196.185L39.3355 193.173L42.2483 196.508C42.5258 196.825 42.819 196.841 43.1281 196.554C43.4372 196.267 43.461 195.814 43.1757 195.647ZM65.7771 193.651L68.6899 196.986C68.9752 197.152 68.9515 197.606 68.6423 197.892C68.3332 198.179 68.0399 198.164 67.7625 197.846L64.8497 194.511L61.6038 197.523C61.2947 197.81 61.0015 197.795 60.724 197.477C60.4466 197.159 60.4625 196.857 60.7716 196.57L64.0174 193.558L61.1046 190.223C60.8272 189.906 60.843 189.604 61.1521 189.317C61.4613 189.03 61.7546 189.045 62.032 189.363L64.9448 192.698L68.1906 189.686C68.4998 189.399 68.793 189.414 69.0704 189.732C69.3479 190.05 69.332 190.352 69.0228 190.639L65.7771 193.651ZM94.0578 198.317L91.145 194.982L94.3908 191.97C94.7 191.683 94.7158 191.381 94.4384 191.063C94.161 190.745 93.8677 190.73 93.5586 191.017L90.3128 194.029L87.3999 190.694C87.1225 190.376 86.8293 190.361 86.5201 190.648C86.211 190.934 86.1951 191.237 86.4725 191.554L89.3854 194.889L86.1396 197.901C85.8304 198.188 85.8146 198.49 86.092 198.808C86.3694 199.126 86.6627 199.141 86.9718 198.854L90.2176 195.842L93.1304 199.177C93.4079 199.495 93.7011 199.51 94.0103 199.223C94.3194 198.936 94.3432 198.483 94.0578 198.317ZM116.66 196.32L119.572 199.655C119.858 199.822 119.834 200.275 119.525 200.562C119.216 200.849 118.922 200.833 118.645 200.516L115.732 197.181L112.486 200.193C112.177 200.48 111.884 200.464 111.607 200.146C111.329 199.829 111.345 199.527 111.654 199.24L114.9 196.228L111.987 192.893C111.71 192.575 111.726 192.273 112.035 191.986C112.344 191.699 112.637 191.715 112.914 192.032L115.827 195.367L119.073 192.355C119.382 192.069 119.676 192.084 119.953 192.402C120.23 192.719 120.214 193.021 119.905 193.308L116.66 196.32ZM145.087 200.994L142.174 197.659L145.42 194.647C145.729 194.36 145.745 194.058 145.467 193.74C145.19 193.422 144.897 193.407 144.588 193.694L141.342 196.706L138.429 193.371C138.151 193.053 137.858 193.038 137.549 193.325C137.24 193.612 137.224 193.914 137.501 194.231L140.414 197.566L137.168 200.578C136.859 200.865 136.844 201.167 137.121 201.485C137.398 201.803 137.692 201.818 138.001 201.531L141.247 198.519L144.159 201.854C144.437 202.172 144.73 202.187 145.039 201.9C145.348 201.614 145.372 201.16 145.087 200.994ZM167.542 198.99L170.455 202.325C170.74 202.491 170.716 202.944 170.407 203.231C170.098 203.518 169.805 203.503 169.527 203.185L166.614 199.85L163.368 202.862C163.059 203.149 162.766 203.134 162.489 202.816C162.211 202.498 162.227 202.196 162.536 201.909L165.782 198.897L162.869 195.562C162.592 195.245 162.608 194.942 162.917 194.655C163.226 194.369 163.519 194.384 163.797 194.702L166.709 198.037L169.955 195.025C170.264 194.738 170.558 194.753 170.835 195.071C171.112 195.389 171.097 195.691 170.787 195.978L167.542 198.99ZM195.969 203.663L193.056 200.328L196.302 197.316C196.611 197.029 196.627 196.727 196.349 196.409C196.072 196.092 195.779 196.076 195.469 196.363L192.224 199.375L189.311 196.04C189.033 195.723 188.74 195.707 188.431 195.994C188.122 196.281 188.106 196.583 188.383 196.901L191.296 200.236L188.05 203.248C187.741 203.535 187.725 203.837 188.003 204.154C188.28 204.472 188.574 204.487 188.883 204.201L192.128 201.189L195.041 204.524C195.319 204.841 195.612 204.857 195.921 204.57C196.23 204.283 196.254 203.83 195.969 203.663ZM218.571 201.667L221.483 205.002C221.769 205.168 221.745 205.622 221.436 205.908C221.127 206.195 220.833 206.18 220.556 205.862L217.643 202.527L214.397 205.539C214.088 205.826 213.795 205.811 213.518 205.493C213.24 205.175 213.256 204.873 213.565 204.586L216.811 201.574L213.898 198.239C213.621 197.922 213.637 197.619 213.946 197.333C214.255 197.046 214.548 197.061 214.826 197.379L217.738 200.714L220.984 197.702C221.293 197.415 221.587 197.43 221.864 197.748C222.141 198.066 222.126 198.368 221.816 198.655L218.571 201.667ZM246.851 206.332L243.938 202.997L247.184 199.986C247.493 199.699 247.509 199.396 247.231 199.079C246.954 198.761 246.661 198.746 246.352 199.033L243.106 202.045L240.193 198.71C239.915 198.392 239.622 198.377 239.313 198.663C239.004 198.95 238.988 199.253 239.266 199.57L242.178 202.905L238.933 205.917C238.623 206.204 238.608 206.506 238.885 206.824C239.162 207.141 239.456 207.157 239.765 206.87L243.011 203.858L245.923 207.193C246.201 207.511 246.494 207.526 246.803 207.239C247.112 206.952 247.136 206.499 246.851 206.332ZM269.453 204.336L272.366 207.671C272.651 207.838 272.627 208.291 272.318 208.578C272.009 208.865 271.716 208.849 271.438 208.532L268.525 205.197L265.28 208.208C264.97 208.495 264.677 208.48 264.4 208.162C264.122 207.845 264.138 207.543 264.447 207.256L267.693 204.244L264.78 200.909C264.503 200.591 264.519 200.289 264.828 200.002C265.137 199.715 265.43 199.731 265.708 200.048L268.621 203.383L271.866 200.371C272.176 200.084 272.469 200.1 272.746 200.417C273.024 200.735 273.008 201.037 272.699 201.324L269.453 204.336ZM297.88 209.01L294.967 205.675L298.213 202.663C298.522 202.376 298.538 202.074 298.26 201.756C297.983 201.438 297.69 201.423 297.38 201.71L294.135 204.722L291.222 201.387C290.944 201.069 290.651 201.054 290.342 201.34C290.033 201.627 290.017 201.93 290.294 202.247L293.207 205.582L289.961 208.594C289.652 208.881 289.637 209.183 289.914 209.501C290.191 209.819 290.485 209.834 290.794 209.547L294.04 206.535L296.952 209.87C297.23 210.188 297.523 210.203 297.832 209.916C298.141 209.629 298.165 209.176 297.88 209.01ZM39.1688 213.166L42.0816 216.501C42.359 216.819 42.3353 217.272 42.0341 217.408C41.725 217.695 41.4317 217.68 41.1543 217.362L38.2415 214.027L34.9956 217.039C34.6865 217.326 34.3933 217.31 34.1158 216.993C33.8384 216.675 33.8543 216.373 34.1634 216.086L37.4092 213.074L34.4964 209.739C34.219 209.421 34.2348 209.119 34.5439 208.832C34.8531 208.545 35.1463 208.561 35.4237 208.878L38.3366 212.213L41.5824 209.202C41.8915 208.915 42.1848 208.93 42.4622 209.248C42.7396 209.565 42.7237 209.868 42.4146 210.154L39.1688 213.166ZM67.5958 217.84L64.683 214.505L67.9288 211.493C68.238 211.206 68.2538 210.904 67.9764 210.586C67.699 210.269 67.4057 210.253 67.0966 210.54L63.8508 213.552L60.9379 210.217C60.6605 209.899 60.3673 209.884 60.0581 210.171C59.749 210.458 59.7331 210.76 60.0105 211.078L62.9234 214.413L59.6776 217.424C59.3684 217.711 59.3526 218.014 59.63 218.331C59.9074 218.649 60.2007 218.664 60.5098 218.377L63.7556 215.365L66.6684 218.7C66.9459 219.018 67.2391 219.033 67.5483 218.747C67.8495 218.611 67.8733 218.157 67.5958 217.84ZM90.051 215.836L92.9638 219.171C93.2412 219.488 93.2174 219.942 92.9162 220.077C92.6071 220.364 92.3138 220.349 92.0364 220.031L89.1236 216.696L85.8777 219.708C85.5686 219.995 85.2754 219.98 84.9979 219.662C84.7205 219.344 84.7364 219.042 85.0455 218.755L88.2913 215.743L85.3785 212.408C85.1011 212.091 85.1169 211.789 85.426 211.502C85.7352 211.215 86.0285 211.23 86.3058 211.548L89.2187 214.883L92.4645 211.871C92.7737 211.584 93.0669 211.599 93.3443 211.917C93.6218 212.235 93.6059 212.537 93.2967 212.824L90.051 215.836ZM118.478 220.509L115.565 217.174L118.811 214.162C119.12 213.876 119.136 213.573 118.859 213.256C118.581 212.938 118.288 212.923 117.979 213.209L114.733 216.221L111.82 212.886C111.543 212.569 111.25 212.553 110.941 212.84C110.632 213.127 110.616 213.429 110.893 213.747L113.806 217.082L110.56 220.094C110.251 220.381 110.235 220.683 110.513 221.001C110.79 221.318 111.083 221.334 111.392 221.047L114.638 218.035L117.551 221.37C117.828 221.687 118.122 221.703 118.431 221.416C118.732 221.28 118.756 220.827 118.478 220.509ZM141.08 218.513L143.993 221.848C144.27 222.165 144.246 222.619 143.798 222.747C143.489 223.034 143.196 223.018 142.919 222.701L140.006 219.366L136.76 222.378C136.451 222.664 136.157 222.649 135.88 222.331C135.603 222.014 135.619 221.712 135.928 221.425L139.173 218.413L136.261 215.078C135.983 214.76 135.999 214.458 136.308 214.171C136.617 213.884 136.911 213.9 137.188 214.217L140.247 217.56L143.493 214.548C143.802 214.261 144.096 214.277 144.373 214.594C144.651 214.912 144.635 215.214 144.325 215.501L141.08 218.513ZM169.36 223.179L166.448 219.844L169.693 216.832C170.003 216.545 170.018 216.243 169.741 215.925C169.464 215.607 169.17 215.592 168.861 215.879L165.615 218.891L162.703 215.556C162.425 215.238 162.132 215.223 161.823 215.51C161.514 215.796 161.498 216.099 161.775 216.416L164.688 219.751L161.442 222.763C161.133 223.05 161.117 223.352 161.395 223.67C161.672 223.988 161.965 224.003 162.274 223.716L165.52 220.704L168.433 224.039C168.711 224.357 169.004 224.372 169.313 224.085C169.614 223.95 169.638 223.496 169.36 223.179ZM191.962 221.182L194.875 224.517C195.152 224.835 195.128 225.288 194.827 225.424C194.518 225.711 194.225 225.695 193.947 225.378L191.034 222.043L187.789 225.055C187.479 225.342 187.186 225.326 186.909 225.009C186.631 224.691 186.647 224.389 186.956 224.102L190.202 221.09L187.289 217.755C187.012 217.437 187.028 217.135 187.337 216.848C187.646 216.561 187.939 216.577 188.217 216.894L191.13 220.229L194.375 217.217C194.685 216.931 194.978 216.946 195.255 217.264C195.533 217.581 195.517 217.883 195.208 218.17L191.962 221.182ZM220.389 225.856L217.477 222.521L220.722 219.509C221.031 219.222 221.047 218.92 220.77 218.602C220.493 218.285 220.199 218.269 219.89 218.556L216.644 221.568L213.731 218.233C213.454 217.915 213.161 217.9 212.852 218.187C212.543 218.474 212.527 218.776 212.804 219.093L215.717 222.428L212.471 225.44C212.162 225.727 212.146 226.029 212.424 226.347C212.701 226.665 212.994 226.68 213.303 226.393L216.549 223.381L219.462 226.716C219.739 227.034 220.033 227.049 220.342 226.762C220.643 226.627 220.667 226.173 220.389 225.856ZM242.844 223.852L245.757 227.187C246.034 227.504 246.01 227.958 245.709 228.093C245.4 228.38 245.107 228.365 244.829 228.047L241.917 224.712L238.671 227.724C238.362 228.011 238.068 227.996 237.791 227.678C237.514 227.36 237.529 227.058 237.838 226.771L241.084 223.759L238.171 220.424C237.894 220.107 237.91 219.804 238.219 219.518C238.528 219.231 238.821 219.246 239.099 219.564L242.012 222.899L245.257 219.887C245.567 219.6 245.86 219.615 246.137 219.933C246.415 220.251 246.399 220.553 246.09 220.84L242.844 223.852ZM271.272 228.525L268.359 225.19L271.605 222.178C271.914 221.891 271.93 221.589 271.652 221.272C271.375 220.954 271.081 220.939 270.772 221.225L267.527 224.237L264.614 220.902C264.336 220.585 264.043 220.569 263.734 220.856C263.425 221.143 263.409 221.445 263.686 221.763L266.599 225.098L263.353 228.11C263.044 228.397 263.028 228.699 263.306 229.016C263.583 229.334 263.876 229.349 264.186 229.063L267.431 226.051L270.344 229.386C270.622 229.703 270.915 229.719 271.224 229.432C271.525 229.296 271.549 228.843 271.272 228.525ZM293.873 226.529L296.786 229.864C297.063 230.181 297.047 230.484 296.738 230.77C296.429 231.057 296.136 231.042 295.858 230.724L292.945 227.389L289.7 230.401C289.391 230.688 289.097 230.673 288.82 230.355C288.542 230.037 288.558 229.735 288.867 229.448L292.113 226.436L289.2 223.101C288.923 222.784 288.939 222.482 289.248 222.195C289.557 221.908 289.85 221.923 290.128 222.241L293.041 225.576L296.286 222.564C296.596 222.277 296.889 222.292 297.166 222.61C297.444 222.928 297.428 223.23 297.119 223.517L293.873 226.529ZM40.9797 237.507L38.0668 234.172L41.3126 231.16C41.6217 230.873 41.6376 230.571 41.3602 230.253C41.0828 229.936 40.7895 229.92 40.4804 230.207L37.2346 233.219L34.3217 229.884C34.0443 229.566 33.7511 229.551 33.4419 229.838C33.1328 230.125 33.117 230.427 33.3944 230.744L36.3072 234.079L33.0614 237.091C32.7523 237.378 32.7364 237.681 33.0138 237.998C33.2913 238.316 33.5845 238.331 33.8936 238.044L37.1395 235.032L40.0523 238.367C40.3297 238.685 40.623 238.7 40.9321 238.414C41.2412 238.127 41.265 237.673 40.9797 237.507ZM63.581 235.51L66.4938 238.845C66.7792 239.012 66.7554 239.465 66.4463 239.752C66.1372 240.039 65.8439 240.023 65.5665 239.706L62.6536 236.371L59.4078 239.383C59.0987 239.67 58.8054 239.654 58.528 239.337C58.2506 239.019 58.2664 238.717 58.5756 238.43L61.8214 235.418L58.9085 232.083C58.6311 231.765 58.647 231.463 58.9561 231.176C59.2653 230.889 59.5585 230.905 59.8359 231.222L62.7488 234.557L65.9946 231.546C66.3037 231.259 66.597 231.274 66.8744 231.592C67.1518 231.909 67.136 232.212 66.8268 232.498L63.581 235.51ZM91.8618 240.176L88.949 236.841L92.1948 233.829C92.5039 233.542 92.5198 233.24 92.2423 232.923C91.9649 232.605 91.6717 232.59 91.3625 232.876L88.1167 235.888L85.2039 232.553C84.9265 232.236 84.6332 232.22 84.324 232.507C84.0149 232.794 83.9991 233.096 84.2765 233.414L87.1893 236.749L83.9435 239.761C83.6344 240.048 83.6185 240.35 83.8959 240.667C84.1734 240.985 84.4666 241 84.7757 240.714L88.0216 237.702L90.9344 241.037C91.2118 241.354 91.5051 241.37 91.8142 241.083C92.1234 240.796 92.1471 240.343 91.8618 240.176ZM114.463 238.18L117.376 241.515C117.662 241.681 117.638 242.135 117.329 242.421C117.02 242.708 116.726 242.693 116.449 242.375L113.536 239.04L110.29 242.052C109.981 242.339 109.688 242.324 109.411 242.006C109.133 241.688 109.149 241.386 109.458 241.099L112.704 238.087L109.791 234.752C109.514 234.435 109.53 234.133 109.839 233.846C110.148 233.559 110.441 233.574 110.718 233.892L113.631 237.227L116.877 234.215C117.186 233.928 117.479 233.943 117.757 234.261C118.034 234.579 118.018 234.881 117.709 235.168L114.463 238.18ZM142.891 242.853L139.978 239.518L143.224 236.506C143.533 236.219 143.549 235.917 143.271 235.6C142.994 235.282 142.701 235.267 142.391 235.553L139.146 238.565L136.233 235.23C135.955 234.913 135.662 234.897 135.353 235.184C135.044 235.471 135.028 235.773 135.305 236.091L138.218 239.426L134.972 242.438C134.663 242.725 134.647 243.027 134.925 243.345C135.202 243.662 135.496 243.678 135.805 243.391L139.051 240.379L141.963 243.714C142.241 244.031 142.534 244.047 142.843 243.76C143.152 243.473 143.176 243.02 142.891 242.853ZM165.346 240.849L168.258 244.184C168.544 244.351 168.52 244.804 168.211 245.091C167.902 245.378 167.609 245.362 167.331 245.045L164.418 241.71L161.172 244.722C160.863 245.008 160.57 244.993 160.293 244.675C160.015 244.358 160.031 244.056 160.34 243.769L163.586 240.757L160.673 237.422C160.396 237.104 160.412 236.802 160.721 236.515C161.03 236.228 161.323 236.244 161.601 236.561L164.513 239.896L167.759 236.884C168.068 236.597 168.362 236.613 168.639 236.93C168.916 237.248 168.901 237.55 168.591 237.837L165.346 240.849ZM193.773 245.523L190.86 242.188L194.106 239.176C194.415 238.889 194.431 238.587 194.153 238.269C193.876 237.951 193.583 237.936 193.273 238.223L190.028 241.235L187.115 237.9C186.837 237.582 186.544 237.567 186.235 237.854C185.926 238.14 185.91 238.443 186.187 238.76L189.1 242.095L185.854 245.107C185.545 245.394 185.529 245.696 185.807 246.014C186.084 246.332 186.378 246.347 186.687 246.06L189.932 243.048L192.845 246.383C193.123 246.701 193.416 246.716 193.725 246.429C194.034 246.143 194.058 245.689 193.773 245.523ZM216.375 243.526L219.287 246.861C219.573 247.028 219.549 247.481 219.24 247.768C218.931 248.055 218.637 248.039 218.36 247.722L215.447 244.387L212.201 247.399C211.892 247.686 211.599 247.67 211.322 247.353C211.044 247.035 211.06 246.733 211.369 246.446L214.615 243.434L211.702 240.099C211.425 239.781 211.441 239.479 211.75 239.192C212.059 238.905 212.352 238.921 212.629 239.238L215.542 242.573L218.788 239.561C219.097 239.275 219.391 239.29 219.668 239.608C219.945 239.925 219.929 240.227 219.62 240.514L216.375 243.526ZM244.655 248.192L241.742 244.857L244.988 241.845C245.297 241.558 245.313 241.256 245.035 240.938C244.758 240.621 244.465 240.605 244.155 240.892L240.91 243.904L237.997 240.569C237.719 240.252 237.426 240.236 237.117 240.523C236.808 240.81 236.792 241.112 237.069 241.43L239.982 244.765L236.736 247.777C236.427 248.064 236.412 248.366 236.689 248.683C236.966 249.001 237.26 249.016 237.569 248.73L240.815 245.718L243.727 249.053C244.005 249.37 244.298 249.386 244.607 249.099C244.916 248.812 244.94 248.359 244.655 248.192ZM267.257 246.196L270.17 249.531C270.455 249.697 270.431 250.15 270.122 250.437C269.813 250.724 269.52 250.709 269.242 250.391L266.329 247.056L263.084 250.068C262.774 250.355 262.481 250.34 262.204 250.022C261.926 249.704 261.942 249.402 262.251 249.115L265.497 246.103L262.584 242.768C262.307 242.451 262.323 242.148 262.632 241.862C262.941 241.575 263.234 241.59 263.512 241.908L266.425 245.243L269.67 242.231C269.979 241.944 270.273 241.959 270.55 242.277C270.828 242.595 270.812 242.897 270.503 243.184L267.257 246.196ZM295.684 250.869L292.771 247.534L296.017 244.522C296.326 244.235 296.342 243.933 296.064 243.615C295.787 243.298 295.494 243.282 295.184 243.569L291.939 246.581L289.026 243.246C288.748 242.929 288.455 242.913 288.146 243.2C287.837 243.487 287.821 243.789 288.098 244.107L291.011 247.442L287.765 250.454C287.456 250.741 287.44 251.043 287.718 251.36C287.995 251.678 288.289 251.693 288.598 251.407L291.843 248.395L294.756 251.73C295.034 252.047 295.327 252.063 295.636 251.776C295.945 251.489 295.969 251.036 295.684 250.869ZM36.9728 255.026L39.8856 258.361C40.163 258.679 40.1471 258.981 39.838 259.268C39.5289 259.555 39.2357 259.539 38.9582 259.222L36.0454 255.887L32.7996 258.899C32.4905 259.185 32.1972 259.17 31.9198 258.852C31.6424 258.535 31.6582 258.233 31.9673 257.946L35.2132 254.934L32.3003 251.599C32.0229 251.281 32.0388 250.979 32.3479 250.692C32.657 250.405 32.9503 250.421 33.2277 250.738L36.1405 254.073L39.3863 251.061C39.6955 250.774 39.9887 250.79 40.2661 251.107C40.5435 251.425 40.5277 251.727 40.2186 252.014L36.9728 255.026ZM65.3998 259.7L62.4869 256.365L65.7327 253.353C66.0419 253.066 66.0578 252.764 65.7803 252.446C65.5029 252.128 65.2097 252.113 64.9005 252.4L61.6547 255.412L58.7418 252.077C58.4644 251.759 58.1712 251.744 57.862 252.031C57.5529 252.317 57.5371 252.62 57.8145 252.937L60.7273 256.272L57.4815 259.284C57.1724 259.571 57.1565 259.873 57.4339 260.191C57.7114 260.509 58.0046 260.524 58.3137 260.237L61.5596 257.225L64.4724 260.56C64.7498 260.878 65.0431 260.893 65.3522 260.606C65.6614 260.32 65.6772 260.017 65.3998 259.7ZM87.8549 257.695L90.7677 261.031C91.0452 261.348 91.0293 261.65 90.7201 261.937C90.411 262.224 90.1178 262.209 89.8403 261.891L86.9275 258.556L83.6817 261.568C83.3726 261.855 83.0793 261.839 82.8019 261.522C82.5245 261.204 82.5403 260.902 82.8494 260.615L86.0953 257.603L83.1824 254.268C82.905 253.951 82.9209 253.648 83.23 253.361C83.5391 253.075 83.8324 253.09 84.1098 253.408L87.0227 256.743L90.2684 253.731C90.5776 253.444 90.8709 253.459 91.1483 253.777C91.4257 254.095 91.4098 254.397 91.1007 254.684L87.8549 257.695ZM116.282 262.369L113.369 259.034L116.615 256.022C116.924 255.735 116.94 255.433 116.663 255.115C116.385 254.798 116.092 254.782 115.783 255.069L112.537 258.081L109.624 254.746C109.347 254.429 109.054 254.413 108.745 254.7C108.435 254.987 108.42 255.289 108.697 255.607L111.61 258.942L108.364 261.954C108.055 262.241 108.039 262.543 108.316 262.86C108.594 263.178 108.887 263.193 109.196 262.906L112.442 259.895L115.355 263.23C115.632 263.547 115.926 263.563 116.235 263.276C116.544 262.989 116.56 262.687 116.282 262.369ZM138.884 260.373L141.797 263.708C142.074 264.025 142.058 264.328 141.749 264.614C141.44 264.901 141.147 264.886 140.869 264.568L137.956 261.233L134.711 264.245C134.402 264.532 134.108 264.517 133.831 264.199C133.553 263.881 133.569 263.579 133.878 263.292L137.124 260.28L134.211 256.945C133.934 256.628 133.95 256.325 134.259 256.039C134.568 255.752 134.861 255.767 135.139 256.085L138.052 259.42L141.297 256.408C141.607 256.121 141.9 256.136 142.177 256.454C142.455 256.772 142.439 257.074 142.13 257.361L138.884 260.373ZM167.164 265.038L164.252 261.703L167.497 258.692C167.806 258.405 167.822 258.102 167.545 257.785C167.268 257.467 166.974 257.452 166.665 257.739L163.419 260.751L160.506 257.416C160.229 257.098 159.936 257.083 159.627 257.369C159.318 257.656 159.302 257.958 159.579 258.276L162.492 261.611L159.246 264.623C158.937 264.91 158.921 265.212 159.199 265.53C159.476 265.847 159.769 265.863 160.078 265.576L163.324 262.564L166.237 265.899C166.514 266.217 166.808 266.232 167.117 265.945C167.426 265.658 167.442 265.356 167.164 265.038ZM189.766 263.042L192.679 266.377C192.956 266.695 192.94 266.997 192.631 267.284C192.322 267.571 192.029 267.555 191.751 267.238L188.838 263.903L185.593 266.914C185.283 267.201 184.99 267.186 184.713 266.868C184.435 266.551 184.451 266.248 184.76 265.962L188.006 262.95L185.093 259.615C184.816 259.297 184.832 258.995 185.141 258.708C185.45 258.421 185.743 258.436 186.021 258.754L188.934 262.089L192.179 259.077C192.488 258.79 192.782 258.806 193.059 259.123C193.337 259.441 193.321 259.743 193.012 260.03L189.766 263.042ZM218.193 267.716L215.28 264.381L218.526 261.369C218.835 261.082 218.851 260.78 218.574 260.462C218.296 260.144 218.003 260.129 217.694 260.416L214.448 263.428L211.535 260.093C211.258 259.775 210.965 259.76 210.656 260.046C210.347 260.333 210.331 260.636 210.608 260.953L213.521 264.288L210.275 267.3C209.966 267.587 209.95 267.889 210.228 268.207C210.505 268.525 210.798 268.54 211.107 268.253L214.353 265.241L217.266 268.576C217.543 268.894 217.837 268.909 218.146 268.622C218.455 268.335 218.471 268.033 218.193 267.716ZM240.648 265.711L243.561 269.046C243.838 269.364 243.822 269.666 243.513 269.953C243.204 270.24 242.911 270.225 242.633 269.907L239.721 266.572L236.475 269.584C236.166 269.871 235.872 269.855 235.595 269.538C235.317 269.22 235.333 268.918 235.642 268.631L238.888 265.619L235.975 262.284C235.698 261.966 235.714 261.664 236.023 261.377C236.332 261.09 236.625 261.106 236.903 261.423L239.816 264.758L243.061 261.747C243.371 261.46 243.664 261.475 243.941 261.793C244.219 262.11 244.203 262.413 243.894 262.699L240.648 265.711ZM269.076 270.385L266.163 267.05L269.408 264.038C269.718 263.751 269.733 263.449 269.456 263.131C269.179 262.814 268.885 262.798 268.576 263.085L265.33 266.097L262.418 262.762C262.14 262.444 261.847 262.429 261.538 262.716C261.229 263.003 261.213 263.305 261.49 263.623L264.403 266.958L261.157 269.97C260.848 270.256 260.832 270.559 261.11 270.876C261.387 271.194 261.68 271.209 261.989 270.922L265.235 267.91L268.148 271.245C268.426 271.563 268.719 271.579 269.028 271.292C269.337 271.005 269.353 270.703 269.076 270.385ZM291.677 268.388L294.59 271.723C294.867 272.041 294.851 272.343 294.542 272.63C294.233 272.917 293.94 272.902 293.662 272.584L290.749 269.249L287.504 272.261C287.194 272.548 286.901 272.532 286.624 272.215C286.346 271.897 286.362 271.595 286.671 271.308L289.917 268.296L287.004 264.961C286.727 264.643 286.743 264.341 287.052 264.054C287.361 263.768 287.654 263.783 287.932 264.101L290.845 267.436L294.09 264.424C294.399 264.137 294.693 264.152 294.97 264.47C295.248 264.787 295.232 265.09 294.923 265.377L291.677 268.388Z" fill="#8427FD"/>
</g>
<defs>
<radialGradient id="paint0_radial_5055_3630" cx="0" cy="0" r="1" gradientUnits="userSpaceOnUse" gradientTransform="translate(19.1389 60.449) rotate(32.7321) scale(378.268 637.079)">
<stop stop-color="#B4FF24"/>
<stop offset="0.183581" stop-color="#41DABE"/>
<stop offset="0.367041" stop-color="#9D99FF"/>
<stop offset="0.564559" stop-color="#CC45FF"/>
<stop offset="0.825501" stop-color="#8427FD"/>
<stop offset="1" stop-color="#5672FF"/>
</radialGradient>
</defs>
</svg>
