<svg width="350" height="350" viewBox="0 0 350 350" fill="none" xmlns="http://www.w3.org/2000/svg">
<path d="M15.1482 184.258C12.4322 230.261 85.0821 317.721 139.014 325.915C165.911 330.008 170.798 321.413 225.894 318.447C276.858 315.711 291.497 311.924 305.276 303.225C341.821 280.176 335.32 240.633 319.118 208.864C277.749 127.768 260.457 63.5141 194.655 50.4067C159.19 43.3375 119.373 63.2827 83.5826 101.9C51.6934 136.31 16.7631 156.981 15.1482 184.258Z" fill="url(#paint0_linear_5055_3657)"/>
<path d="M197.99 24.897L198.088 24.4067L197.99 24.897C230.608 31.4148 251.215 50.6372 268.835 78.4075C277.65 92.2999 285.709 108.321 294.149 125.952C296.473 130.808 298.826 135.786 301.232 140.875C307.556 154.255 314.242 168.398 321.713 183.09C329.768 198.935 335.386 216.672 334.478 233.287C333.572 249.872 326.165 265.369 308.093 276.802L308.342 277.195L308.093 276.802C294.48 285.424 280.01 289.212 229.202 291.947C203.549 293.333 188.797 295.946 177.645 297.921C176.845 298.063 176.064 298.201 175.298 298.336C163.885 300.34 156.026 301.455 142.698 299.421C129.363 297.389 114.83 290.431 100.556 280.385C86.2883 270.342 72.3104 257.233 60.0896 242.94C47.8685 228.646 37.4147 213.18 30.1875 198.427C22.9551 183.664 18.9776 169.664 19.6471 158.288C20.44 144.853 29.4162 132.984 42.2937 120.107C47.2454 115.156 52.7541 110.074 58.5721 104.707C60.3103 103.103 62.0762 101.474 63.863 99.8158C71.6254 92.6105 79.7733 84.8563 87.7337 76.2395C123.368 37.669 162.893 17.8791 197.99 24.897Z" stroke="url(#paint1_linear_5055_3657)"/>
<mask id="mask0_5055_3657" style="mask-type:alpha" maskUnits="userSpaceOnUse" x="15" y="49" width="317" height="279">
<path d="M15.0739 184.588C12.3603 230.564 84.9459 317.974 138.83 326.164C165.704 330.254 170.586 321.664 225.633 318.699C276.552 315.966 291.178 312.181 304.945 303.486C341.458 280.451 334.962 240.93 318.775 209.179C277.442 128.13 260.166 63.913 194.422 50.8131C158.988 43.748 119.206 63.6817 83.4477 102.277C51.5867 136.667 16.6874 157.326 15.0739 184.588Z" fill="url(#paint2_linear_5055_3657)"/>
</mask>
<g mask="url(#mask0_5055_3657)">
<path fill-rule="evenodd" clip-rule="evenodd" d="M124.59 196.1L121.515 193.004L124.59 189.908C124.883 189.613 124.883 189.318 124.59 189.023C124.297 188.728 124.004 188.728 123.712 189.023L120.637 192.119L117.562 189.023C117.269 188.728 116.977 188.728 116.684 189.023C116.391 189.318 116.391 189.613 116.684 189.908L119.758 193.004L116.684 196.1C116.391 196.395 116.391 196.69 116.684 196.985C116.977 197.279 117.269 197.279 117.562 196.985L120.637 193.888L123.712 196.985C124.004 197.279 124.297 197.279 124.59 196.985C124.883 196.837 124.883 196.395 124.59 196.1ZM150.066 196.1L146.991 193.004L150.066 189.908C150.359 189.613 150.359 189.318 150.066 189.023C149.773 188.728 149.48 188.728 149.188 189.023L146.113 192.119L143.038 189.023C142.745 188.728 142.453 188.728 142.16 189.023C141.867 189.318 141.867 189.613 142.16 189.908L145.234 193.004L142.16 196.1C141.867 196.395 141.867 196.69 142.16 196.985C142.453 197.279 142.745 197.279 143.038 196.985L146.113 193.888L149.188 196.985C149.48 197.279 149.773 197.279 150.066 196.985C150.359 196.837 150.359 196.395 150.066 196.1ZM172.321 193.004L175.396 196.1C175.689 196.395 175.689 196.837 175.396 196.985C175.103 197.279 174.81 197.279 174.518 196.985L171.443 193.888L168.368 196.985C168.075 197.279 167.782 197.279 167.49 196.985C167.197 196.69 167.197 196.395 167.49 196.1L170.564 193.004L167.49 189.908C167.197 189.613 167.197 189.318 167.49 189.023C167.782 188.728 168.075 188.728 168.368 189.023L171.443 192.119L174.518 189.023C174.81 188.728 175.103 188.728 175.396 189.023C175.689 189.318 175.689 189.613 175.396 189.908L172.321 193.004ZM200.872 196.1L197.798 193.004L200.872 189.908C201.165 189.613 201.165 189.318 200.872 189.023C200.58 188.728 200.287 188.728 199.994 189.023L196.919 192.119L193.845 189.023C193.552 188.728 193.259 188.728 192.966 189.023C192.673 189.318 192.673 189.613 192.966 189.908L196.041 193.004L192.966 196.1C192.673 196.395 192.673 196.69 192.966 196.985C193.259 197.279 193.552 197.279 193.845 196.985L196.919 193.888L199.994 196.985C200.287 197.279 200.58 197.279 200.872 196.985C201.165 196.837 201.165 196.395 200.872 196.1ZM223.274 193.004L226.349 196.1C226.641 196.395 226.641 196.837 226.349 196.985C226.056 197.279 225.763 197.279 225.47 196.985L222.395 193.888L219.321 196.985C219.028 197.279 218.735 197.279 218.442 196.985C218.149 196.69 218.149 196.395 218.442 196.1L221.517 193.004L218.442 189.908C218.149 189.613 218.149 189.318 218.442 189.023C218.735 188.728 219.028 188.728 219.321 189.023L222.395 192.119L225.47 189.023C225.763 188.728 226.056 188.728 226.349 189.023C226.641 189.318 226.641 189.613 226.349 189.908L223.274 193.004ZM251.678 196.1L248.604 193.004L251.678 189.908C251.971 189.613 251.971 189.318 251.678 189.023C251.386 188.728 251.093 188.728 250.8 189.023L247.725 192.119L244.65 189.023C244.358 188.728 244.065 188.728 243.772 189.023C243.479 189.318 243.479 189.613 243.772 189.908L246.847 193.004L243.772 196.1C243.479 196.395 243.479 196.69 243.772 196.985C244.065 197.279 244.358 197.279 244.65 196.985L247.725 193.888L250.8 196.985C251.093 197.279 251.386 197.279 251.678 196.985C251.971 196.837 251.971 196.395 251.678 196.1ZM274.08 193.004L277.154 196.1C277.447 196.395 277.447 196.837 277.154 196.985C276.862 197.279 276.569 197.279 276.276 196.985L273.201 193.888L270.126 196.985C269.834 197.279 269.541 197.279 269.248 196.985C268.955 196.69 268.955 196.395 269.248 196.1L272.323 193.004L269.248 189.908C268.955 189.613 268.955 189.318 269.248 189.023C269.541 188.728 269.834 188.728 270.126 189.023L273.201 192.119L276.276 189.023C276.569 188.728 276.862 188.728 277.154 189.023C277.447 189.318 277.447 189.613 277.154 189.908L274.08 193.004ZM302.631 196.1L299.556 193.004L302.631 189.908C302.924 189.613 302.924 189.318 302.631 189.023C302.338 188.728 302.045 188.728 301.753 189.023L298.678 192.119L295.603 189.023C295.31 188.728 295.017 188.728 294.725 189.023C294.432 189.318 294.432 189.613 294.725 189.908L297.799 193.004L294.725 196.1C294.432 196.395 294.432 196.69 294.725 196.985C295.017 197.279 295.31 197.279 295.603 196.985L298.678 193.888L301.753 196.985C302.045 197.279 302.338 197.279 302.631 196.985C302.924 196.837 302.924 196.395 302.631 196.1ZM324.886 193.004L327.96 196.1C328.253 196.395 328.253 196.837 327.96 196.985C327.668 197.279 327.375 197.279 327.082 196.985L324.007 193.888L320.932 196.985C320.64 197.279 320.347 197.279 320.054 196.985C319.761 196.69 319.761 196.395 320.054 196.1L323.129 193.004L320.054 189.908C319.761 189.613 319.761 189.318 320.054 189.023C320.347 188.728 320.64 188.728 320.932 189.023L324.007 192.119L327.082 189.023C327.375 188.728 327.668 188.728 327.96 189.023C328.253 189.318 328.253 189.613 327.96 189.908L324.886 193.004ZM353.437 196.1L350.362 193.004L353.437 189.908C353.73 189.613 353.73 189.318 353.437 189.023C353.144 188.728 352.851 188.728 352.558 189.023L349.484 192.119L346.409 189.023C346.116 188.728 345.823 188.728 345.531 189.023C345.238 189.318 345.238 189.613 345.531 189.908L348.605 193.004L345.531 196.1C345.238 196.395 345.238 196.69 345.531 196.985C345.823 197.279 346.116 197.279 346.409 196.985L349.484 193.888L352.558 196.985C352.851 197.279 353.144 197.279 353.437 196.985C353.73 196.837 353.73 196.395 353.437 196.1ZM375.838 193.004L378.913 196.1C379.206 196.395 379.206 196.69 378.913 196.985C378.62 197.279 378.327 197.279 378.034 196.985L374.96 193.888L371.885 196.985C371.592 197.279 371.299 197.279 371.007 196.985C370.714 196.69 370.714 196.395 371.007 196.1L374.081 193.004L371.007 189.908C370.714 189.613 370.714 189.318 371.007 189.023C371.299 188.728 371.592 188.728 371.885 189.023L374.96 192.119L378.034 189.023C378.327 188.728 378.62 188.728 378.913 189.023C379.206 189.318 379.206 189.613 378.913 189.908L375.838 193.004ZM124.59 216.594L121.515 213.498L124.59 210.401C124.883 210.107 124.883 209.812 124.59 209.517C124.297 209.222 124.004 209.222 123.712 209.517L120.637 212.613L117.562 209.517C117.269 209.222 116.977 209.222 116.684 209.517C116.391 209.812 116.391 210.107 116.684 210.401L119.758 213.498L116.684 216.594C116.391 216.889 116.391 217.184 116.684 217.479C116.977 217.773 117.269 217.773 117.562 217.479L120.637 214.382L123.712 217.479C124.004 217.773 124.297 217.773 124.59 217.479C124.883 217.184 124.883 216.741 124.59 216.594ZM146.991 213.498L150.066 216.594C150.359 216.741 150.359 217.184 150.066 217.479C149.773 217.773 149.48 217.773 149.188 217.479L146.113 214.382L143.038 217.479C142.745 217.773 142.453 217.773 142.16 217.479C141.867 217.184 141.867 216.889 142.16 216.594L145.234 213.498L142.16 210.401C141.867 210.107 141.867 209.812 142.16 209.517C142.453 209.222 142.745 209.222 143.038 209.517L146.113 212.613L149.188 209.517C149.48 209.222 149.773 209.222 150.066 209.517C150.359 209.812 150.359 210.107 150.066 210.401L146.991 213.498ZM175.396 216.594L172.321 213.498L175.396 210.401C175.689 210.107 175.689 209.812 175.396 209.517C175.103 209.222 174.81 209.222 174.518 209.517L171.443 212.613L168.368 209.517C168.075 209.222 167.782 209.222 167.49 209.517C167.197 209.812 167.197 210.107 167.49 210.401L170.564 213.498L167.49 216.594C167.197 216.889 167.197 217.184 167.49 217.479C167.782 217.773 168.075 217.773 168.368 217.479L171.443 214.382L174.518 217.479C174.81 217.773 175.103 217.773 175.396 217.479C175.689 217.184 175.689 216.741 175.396 216.594ZM197.798 213.498L200.872 216.594C201.165 216.741 201.165 217.184 200.872 217.479C200.58 217.773 200.287 217.773 199.994 217.479L196.919 214.382L193.845 217.479C193.552 217.773 193.259 217.773 192.966 217.479C192.673 217.184 192.673 216.889 192.966 216.594L196.041 213.498L192.966 210.401C192.673 210.107 192.673 209.812 192.966 209.517C193.259 209.222 193.552 209.222 193.845 209.517L196.919 212.613L199.994 209.517C200.287 209.222 200.58 209.222 200.872 209.517C201.165 209.812 201.165 210.107 200.872 210.401L197.798 213.498ZM226.349 216.594L223.274 213.498L226.349 210.401C226.641 210.107 226.641 209.812 226.349 209.517C226.056 209.222 225.763 209.222 225.47 209.517L222.395 212.613L219.321 209.517C219.028 209.222 218.735 209.222 218.442 209.517C218.149 209.812 218.149 210.107 218.442 210.401L221.517 213.498L218.442 216.594C218.149 216.889 218.149 217.184 218.442 217.479C218.735 217.773 219.028 217.773 219.321 217.479L222.395 214.382L225.47 217.479C225.763 217.773 226.056 217.773 226.349 217.479C226.641 217.184 226.641 216.741 226.349 216.594ZM248.604 213.498L251.678 216.594C251.971 216.741 251.971 217.184 251.678 217.479C251.386 217.773 251.093 217.773 250.8 217.479L247.725 214.382L244.65 217.479C244.358 217.773 244.065 217.773 243.772 217.479C243.479 217.184 243.479 216.889 243.772 216.594L246.847 213.498L243.772 210.401C243.479 210.107 243.479 209.812 243.772 209.517C244.065 209.222 244.358 209.222 244.65 209.517L247.725 212.613L250.8 209.517C251.093 209.222 251.386 209.222 251.678 209.517C251.971 209.812 251.971 210.107 251.678 210.401L248.604 213.498ZM277.154 216.594L274.08 213.498L277.154 210.401C277.447 210.107 277.447 209.812 277.154 209.517C276.862 209.222 276.569 209.222 276.276 209.517L273.201 212.613L270.126 209.517C269.834 209.222 269.541 209.222 269.248 209.517C268.955 209.812 268.955 210.107 269.248 210.401L272.323 213.498L269.248 216.594C268.955 216.889 268.955 217.184 269.248 217.479C269.541 217.773 269.834 217.773 270.126 217.479L273.201 214.382L276.276 217.479C276.569 217.773 276.862 217.773 277.154 217.479C277.447 217.184 277.447 216.741 277.154 216.594ZM299.556 213.498L302.631 216.594C302.924 216.741 302.924 217.184 302.631 217.479C302.338 217.773 302.045 217.773 301.753 217.479L298.678 214.382L295.603 217.479C295.31 217.773 295.017 217.773 294.725 217.479C294.432 217.184 294.432 216.889 294.725 216.594L297.799 213.498L294.725 210.401C294.432 210.107 294.432 209.812 294.725 209.517C295.017 209.222 295.31 209.222 295.603 209.517L298.678 212.613L301.753 209.517C302.045 209.222 302.338 209.222 302.631 209.517C302.924 209.812 302.924 210.107 302.631 210.401L299.556 213.498ZM327.96 216.594L324.886 213.498L327.96 210.401C328.253 210.107 328.253 209.812 327.96 209.517C327.668 209.222 327.375 209.222 327.082 209.517L324.007 212.613L320.932 209.517C320.64 209.222 320.347 209.222 320.054 209.517C319.761 209.812 319.761 210.107 320.054 210.401L323.129 213.498L320.054 216.594C319.761 216.889 319.761 217.184 320.054 217.479C320.347 217.773 320.64 217.773 320.932 217.479L324.007 214.382L327.082 217.479C327.375 217.773 327.668 217.773 327.96 217.479C328.253 217.184 328.253 216.741 327.96 216.594ZM350.362 213.498L353.437 216.594C353.73 216.741 353.73 217.184 353.437 217.479C353.144 217.773 352.851 217.773 352.558 217.479L349.484 214.382L346.409 217.479C346.116 217.773 345.823 217.773 345.531 217.479C345.238 217.184 345.238 216.889 345.531 216.594L348.605 213.498L345.531 210.401C345.238 210.107 345.238 209.812 345.531 209.517C345.823 209.222 346.116 209.222 346.409 209.517L349.484 212.613L352.558 209.517C352.851 209.222 353.144 209.222 353.437 209.517C353.73 209.812 353.73 210.107 353.437 210.401L350.362 213.498ZM378.913 216.594L375.838 213.498L378.913 210.401C379.206 210.107 379.206 209.812 378.913 209.517C378.62 209.222 378.327 209.222 378.034 209.517L374.96 212.613L371.885 209.517C371.592 209.222 371.299 209.222 371.007 209.517C370.714 209.812 370.714 210.107 371.007 210.401L374.081 213.498L371.007 216.594C370.714 216.889 370.714 217.184 371.007 217.479C371.299 217.773 371.592 217.773 371.885 217.479L374.96 214.382L378.034 217.479C378.327 217.773 378.62 217.773 378.913 217.479C379.206 217.184 379.206 216.741 378.913 216.594ZM121.515 233.844L124.59 236.94C124.883 237.235 124.883 237.677 124.59 237.825C124.297 238.12 124.004 238.12 123.712 237.825L120.637 234.729L117.562 237.825C117.269 238.12 116.977 238.12 116.684 237.825C116.391 237.53 116.391 237.235 116.684 236.94L119.758 233.844L116.684 230.748C116.391 230.453 116.391 230.158 116.684 229.863C116.977 229.568 117.269 229.568 117.562 229.863L120.637 232.959L123.712 229.863C124.004 229.568 124.297 229.568 124.59 229.863C124.883 230.158 124.883 230.453 124.59 230.748L121.515 233.844ZM150.066 236.94L146.991 233.844L150.066 230.748C150.359 230.453 150.359 230.158 150.066 229.863C149.773 229.568 149.48 229.568 149.188 229.863L146.113 232.959L143.038 229.863C142.745 229.568 142.453 229.568 142.16 229.863C141.867 230.158 141.867 230.453 142.16 230.748L145.234 233.844L142.16 236.94C141.867 237.235 141.867 237.53 142.16 237.825C142.453 238.12 142.745 238.12 143.038 237.825L146.113 234.729L149.188 237.825C149.48 238.12 149.773 238.12 150.066 237.825C150.359 237.677 150.359 237.235 150.066 236.94ZM172.321 233.844L175.396 236.94C175.689 237.235 175.689 237.677 175.396 237.825C175.103 238.12 174.81 238.12 174.518 237.825L171.443 234.729L168.368 237.825C168.075 238.12 167.782 238.12 167.49 237.825C167.197 237.53 167.197 237.235 167.49 236.94L170.564 233.844L167.49 230.748C167.197 230.453 167.197 230.158 167.49 229.863C167.782 229.568 168.075 229.568 168.368 229.863L171.443 232.959L174.518 229.863C174.81 229.568 175.103 229.568 175.396 229.863C175.689 230.158 175.689 230.453 175.396 230.748L172.321 233.844ZM200.872 236.94L197.798 233.844L200.872 230.748C201.165 230.453 201.165 230.158 200.872 229.863C200.58 229.568 200.287 229.568 199.994 229.863L196.919 232.959L193.845 229.863C193.552 229.568 193.259 229.568 192.966 229.863C192.673 230.158 192.673 230.453 192.966 230.748L196.041 233.844L192.966 236.94C192.673 237.235 192.673 237.53 192.966 237.825C193.259 238.12 193.552 238.12 193.845 237.825L196.919 234.729L199.994 237.825C200.287 238.12 200.58 238.12 200.872 237.825C201.165 237.677 201.165 237.235 200.872 236.94ZM223.274 233.844L226.348 236.94C226.641 237.235 226.641 237.677 226.202 237.825C225.909 238.12 225.616 238.12 225.324 237.825L222.249 234.729L219.174 237.825C218.881 238.12 218.588 238.12 218.296 237.825C218.003 237.53 218.003 237.235 218.296 236.94L221.37 233.844L218.296 230.748C218.003 230.453 218.003 230.158 218.296 229.863C218.588 229.568 218.881 229.568 219.174 229.863L222.395 232.959L225.47 229.863C225.763 229.568 226.056 229.568 226.348 229.863C226.641 230.158 226.641 230.453 226.348 230.748L223.274 233.844ZM251.678 236.94L248.604 233.844L251.678 230.748C251.971 230.453 251.971 230.158 251.678 229.863C251.386 229.568 251.093 229.568 250.8 229.863L247.725 232.959L244.65 229.863C244.358 229.568 244.065 229.568 243.772 229.863C243.479 230.158 243.479 230.453 243.772 230.748L246.847 233.844L243.772 236.94C243.479 237.235 243.479 237.53 243.772 237.825C244.065 238.12 244.358 238.12 244.65 237.825L247.725 234.729L250.8 237.825C251.093 238.12 251.386 238.12 251.678 237.825C251.971 237.677 251.971 237.235 251.678 236.94ZM274.08 233.844L277.154 236.94C277.447 237.235 277.447 237.677 277.154 237.825C276.862 238.12 276.569 238.12 276.276 237.825L273.201 234.729L270.126 237.825C269.834 238.12 269.541 238.12 269.248 237.825C268.955 237.53 268.955 237.235 269.248 236.94L272.323 233.844L269.248 230.748C268.955 230.453 268.955 230.158 269.248 229.863C269.541 229.568 269.834 229.568 270.126 229.863L273.201 232.959L276.276 229.863C276.569 229.568 276.862 229.568 277.154 229.863C277.447 230.158 277.447 230.453 277.154 230.748L274.08 233.844ZM302.631 236.94L299.556 233.844L302.631 230.748C302.924 230.453 302.924 230.158 302.631 229.863C302.338 229.568 302.045 229.568 301.753 229.863L298.678 232.959L295.603 229.863C295.31 229.568 295.017 229.568 294.725 229.863C294.432 230.158 294.432 230.453 294.725 230.748L297.799 233.844L294.725 236.94C294.432 237.235 294.432 237.53 294.725 237.825C295.017 238.12 295.31 238.12 295.603 237.825L298.678 234.729L301.753 237.825C302.045 238.12 302.338 238.12 302.631 237.825C302.924 237.677 302.924 237.235 302.631 236.94ZM324.886 233.844L327.96 236.94C328.253 237.235 328.253 237.677 327.96 237.825C327.668 238.12 327.375 238.12 327.082 237.825L324.007 234.729L320.932 237.825C320.64 238.12 320.347 238.12 320.054 237.825C319.761 237.53 319.761 237.235 320.054 236.94L323.129 233.844L320.054 230.748C319.761 230.453 319.761 230.158 320.054 229.863C320.347 229.568 320.64 229.568 320.932 229.863L324.007 232.959L327.082 229.863C327.375 229.568 327.668 229.568 327.96 229.863C328.253 230.158 328.253 230.453 327.96 230.748L324.886 233.844ZM353.437 236.94L350.362 233.844L353.437 230.748C353.73 230.453 353.73 230.158 353.437 229.863C353.144 229.568 352.851 229.568 352.558 229.863L349.484 232.959L346.409 229.863C346.116 229.568 345.823 229.568 345.531 229.863C345.238 230.158 345.238 230.453 345.531 230.748L348.605 233.844L345.531 236.94C345.238 237.235 345.238 237.53 345.531 237.825C345.823 238.12 346.116 238.12 346.409 237.825L349.484 234.729L352.558 237.825C352.851 238.12 353.144 238.12 353.437 237.825C353.73 237.677 353.73 237.235 353.437 236.94ZM375.838 233.844L378.913 236.94C379.206 237.235 379.206 237.53 378.913 237.825C378.62 238.12 378.327 238.12 378.034 237.825L374.96 234.729L371.885 237.825C371.592 238.12 371.299 238.12 371.007 237.825C370.714 237.53 370.714 237.235 371.007 236.94L374.081 233.844L371.007 230.748C370.714 230.453 370.714 230.158 371.007 229.863C371.299 229.568 371.592 229.568 371.885 229.863L374.96 232.959L378.034 229.863C378.327 229.568 378.62 229.568 378.913 229.863C379.206 230.158 379.206 230.453 378.913 230.748L375.838 233.844ZM124.59 257.434L121.515 254.338L124.59 251.242C124.883 250.947 124.883 250.652 124.59 250.357C124.297 250.062 124.004 250.062 123.712 250.357L120.637 253.453L117.562 250.357C117.269 250.062 116.977 250.062 116.684 250.357C116.391 250.652 116.391 250.947 116.684 251.242L119.758 254.338L116.684 257.434C116.391 257.729 116.391 258.024 116.684 258.319C116.977 258.614 117.269 258.614 117.562 258.319L120.637 255.223L123.712 258.319C124.004 258.614 124.297 258.614 124.59 258.319C124.883 258.024 124.883 257.582 124.59 257.434ZM146.991 254.338L150.066 257.434C150.359 257.582 150.359 258.024 150.066 258.319C149.773 258.614 149.48 258.614 149.188 258.319L146.113 255.223L143.038 258.319C142.745 258.614 142.453 258.614 142.16 258.319C141.867 258.024 141.867 257.729 142.16 257.434L145.234 254.338L142.16 251.242C141.867 250.947 141.867 250.652 142.16 250.357C142.453 250.062 142.745 250.062 143.038 250.357L146.113 253.453L149.188 250.357C149.48 250.062 149.773 250.062 150.066 250.357C150.359 250.652 150.359 250.947 150.066 251.242L146.991 254.338ZM175.396 257.434L172.321 254.338L175.396 251.242C175.689 250.947 175.689 250.652 175.396 250.357C175.103 250.062 174.81 250.062 174.518 250.357L171.443 253.453L168.368 250.357C168.075 250.062 167.782 250.062 167.49 250.357C167.197 250.652 167.197 250.947 167.49 251.242L170.564 254.338L167.49 257.434C167.197 257.729 167.197 258.024 167.49 258.319C167.782 258.614 168.075 258.614 168.368 258.319L171.443 255.223L174.518 258.319C174.81 258.614 175.103 258.614 175.396 258.319C175.689 258.024 175.689 257.582 175.396 257.434ZM197.798 254.338L200.872 257.434C201.165 257.582 201.165 258.024 200.872 258.319C200.58 258.614 200.287 258.614 199.994 258.319L196.919 255.223L193.845 258.319C193.552 258.614 193.259 258.614 192.966 258.319C192.673 258.024 192.673 257.729 192.966 257.434L196.041 254.338L192.966 251.242C192.673 250.947 192.673 250.652 192.966 250.357C193.259 250.062 193.552 250.062 193.845 250.357L196.919 253.453L199.994 250.357C200.287 250.062 200.58 250.062 200.872 250.357C201.165 250.652 201.165 250.947 200.872 251.242L197.798 254.338ZM226.349 257.434L223.274 254.338L226.349 251.242C226.641 250.947 226.641 250.652 226.349 250.357C226.056 250.062 225.763 250.062 225.47 250.357L222.395 253.453L219.321 250.357C219.028 250.062 218.735 250.062 218.442 250.357C218.149 250.652 218.149 250.947 218.442 251.242L221.517 254.338L218.442 257.434C218.149 257.729 218.149 258.024 218.442 258.319C218.735 258.614 219.028 258.614 219.321 258.319L222.395 255.223L225.47 258.319C225.763 258.614 226.056 258.614 226.349 258.319C226.641 258.024 226.641 257.582 226.349 257.434ZM248.604 254.338L251.678 257.434C251.971 257.582 251.971 258.024 251.678 258.319C251.386 258.614 251.093 258.614 250.8 258.319L247.725 255.223L244.65 258.319C244.358 258.614 244.065 258.614 243.772 258.319C243.479 258.024 243.479 257.729 243.772 257.434L246.847 254.338L243.772 251.242C243.479 250.947 243.479 250.652 243.772 250.357C244.065 250.062 244.358 250.062 244.65 250.357L247.725 253.453L250.8 250.357C251.093 250.062 251.386 250.062 251.678 250.357C251.971 250.652 251.971 250.947 251.678 251.242L248.604 254.338ZM277.154 257.434L274.08 254.338L277.154 251.242C277.447 250.947 277.447 250.652 277.154 250.357C276.862 250.062 276.569 250.062 276.276 250.357L273.201 253.453L270.126 250.357C269.834 250.062 269.541 250.062 269.248 250.357C268.955 250.652 268.955 250.947 269.248 251.242L272.323 254.338L269.248 257.434C268.955 257.729 268.955 258.024 269.248 258.319C269.541 258.614 269.834 258.614 270.126 258.319L273.201 255.223L276.276 258.319C276.569 258.614 276.862 258.614 277.154 258.319C277.447 258.024 277.447 257.582 277.154 257.434ZM299.556 254.338L302.631 257.434C302.924 257.582 302.924 258.024 302.631 258.319C302.338 258.614 302.045 258.614 301.753 258.319L298.678 255.223L295.603 258.319C295.31 258.614 295.017 258.614 294.725 258.319C294.432 258.024 294.432 257.729 294.725 257.434L297.799 254.338L294.725 251.242C294.432 250.947 294.432 250.652 294.725 250.357C295.017 250.062 295.31 250.062 295.603 250.357L298.678 253.453L301.753 250.357C302.045 250.062 302.338 250.062 302.631 250.357C302.924 250.652 302.924 250.947 302.631 251.242L299.556 254.338ZM327.96 257.434L324.886 254.338L327.96 251.242C328.253 250.947 328.253 250.652 327.96 250.357C327.668 250.062 327.375 250.062 327.082 250.357L324.007 253.453L320.932 250.357C320.64 250.062 320.347 250.062 320.054 250.357C319.761 250.652 319.761 250.947 320.054 251.242L323.129 254.338L320.054 257.434C319.761 257.729 319.761 258.024 320.054 258.319C320.347 258.614 320.64 258.614 320.932 258.319L324.007 255.223L327.082 258.319C327.375 258.614 327.668 258.614 327.96 258.319C328.253 258.024 328.253 257.582 327.96 257.434ZM350.362 254.338L353.437 257.434C353.73 257.582 353.73 258.024 353.437 258.319C353.144 258.614 352.851 258.614 352.558 258.319L349.484 255.223L346.409 258.319C346.116 258.614 345.823 258.614 345.531 258.319C345.238 258.024 345.238 257.729 345.531 257.434L348.605 254.338L345.531 251.242C345.238 250.947 345.238 250.652 345.531 250.357C345.823 250.062 346.116 250.062 346.409 250.357L349.484 253.453L352.558 250.357C352.851 250.062 353.144 250.062 353.437 250.357C353.73 250.652 353.73 250.947 353.437 251.242L350.362 254.338ZM378.913 257.434L375.838 254.338L378.913 251.242C379.206 250.947 379.206 250.652 378.913 250.357C378.62 250.062 378.327 250.062 378.034 250.357L374.96 253.453L371.885 250.357C371.592 250.062 371.299 250.062 371.007 250.357C370.714 250.652 370.714 250.947 371.007 251.242L374.081 254.338L371.007 257.434C370.714 257.729 370.714 258.024 371.007 258.319C371.299 258.614 371.592 258.614 371.885 258.319L374.96 255.223L378.034 258.319C378.327 258.614 378.62 258.614 378.913 258.319C379.206 258.024 379.206 257.582 378.913 257.434ZM121.515 274.685L124.59 277.781C124.883 278.076 124.883 278.371 124.59 278.665C124.297 278.96 124.004 278.96 123.712 278.665L120.637 275.569L117.562 278.665C117.269 278.96 116.977 278.96 116.684 278.665C116.391 278.371 116.391 278.076 116.684 277.781L119.758 274.685L116.684 271.588C116.391 271.293 116.391 270.999 116.684 270.704C116.977 270.409 117.269 270.409 117.562 270.704L120.637 273.8L123.712 270.704C124.004 270.409 124.297 270.409 124.59 270.704C124.883 270.999 124.883 271.293 124.59 271.588L121.515 274.685ZM150.066 277.781L146.991 274.685L150.066 271.588C150.359 271.293 150.359 270.999 150.066 270.704C149.773 270.409 149.48 270.409 149.188 270.704L146.113 273.8L143.038 270.704C142.745 270.409 142.453 270.409 142.16 270.704C141.867 270.999 141.867 271.293 142.16 271.588L145.234 274.685L142.16 277.781C141.867 278.076 141.867 278.371 142.16 278.665C142.453 278.96 142.745 278.96 143.038 278.665L146.113 275.569L149.188 278.665C149.48 278.96 149.773 278.96 150.066 278.665C150.359 278.371 150.359 278.076 150.066 277.781ZM172.321 274.685L175.396 277.781C175.689 278.076 175.689 278.371 175.396 278.665C175.103 278.96 174.81 278.96 174.518 278.665L171.443 275.569L168.368 278.665C168.075 278.96 167.782 278.96 167.49 278.665C167.197 278.371 167.197 278.076 167.49 277.781L170.564 274.685L167.49 271.588C167.197 271.293 167.197 270.999 167.49 270.704C167.782 270.409 168.075 270.409 168.368 270.704L171.443 273.8L174.518 270.704C174.81 270.409 175.103 270.409 175.396 270.704C175.689 270.999 175.689 271.293 175.396 271.588L172.321 274.685ZM200.872 277.781L197.798 274.685L200.872 271.588C201.165 271.293 201.165 270.999 200.872 270.704C200.58 270.409 200.287 270.409 199.994 270.704L196.919 273.8L193.845 270.704C193.552 270.409 193.259 270.409 192.966 270.704C192.673 270.999 192.673 271.293 192.966 271.588L196.041 274.685L192.966 277.781C192.673 278.076 192.673 278.371 192.966 278.665C193.259 278.96 193.552 278.96 193.845 278.665L196.919 275.569L199.994 278.665C200.287 278.96 200.58 278.96 200.872 278.665C201.165 278.371 201.165 278.076 200.872 277.781ZM223.274 274.685L226.349 277.781C226.641 278.076 226.641 278.371 226.349 278.665C226.056 278.96 225.763 278.96 225.47 278.665L222.395 275.569L219.321 278.665C219.028 278.96 218.735 278.96 218.442 278.665C218.149 278.371 218.149 278.076 218.442 277.781L221.517 274.685L218.442 271.588C218.149 271.293 218.149 270.999 218.442 270.704C218.735 270.409 219.028 270.409 219.321 270.704L222.395 273.8L225.47 270.704C225.763 270.409 226.056 270.409 226.349 270.704C226.641 270.999 226.641 271.293 226.349 271.588L223.274 274.685ZM251.678 277.781L248.604 274.685L251.678 271.588C251.971 271.293 251.971 270.999 251.678 270.704C251.386 270.409 251.093 270.409 250.8 270.704L247.725 273.8L244.65 270.704C244.358 270.409 244.065 270.409 243.772 270.704C243.479 270.999 243.479 271.293 243.772 271.588L246.847 274.685L243.772 277.781C243.479 278.076 243.479 278.371 243.772 278.665C244.065 278.96 244.358 278.96 244.65 278.665L247.725 275.569L250.8 278.665C251.093 278.96 251.386 278.96 251.678 278.665C251.971 278.371 251.971 278.076 251.678 277.781ZM274.08 274.685L277.154 277.781C277.447 278.076 277.447 278.371 277.154 278.665C276.862 278.96 276.569 278.96 276.276 278.665L273.201 275.569L270.126 278.665C269.834 278.96 269.541 278.96 269.248 278.665C268.955 278.371 268.955 278.076 269.248 277.781L272.323 274.685L269.248 271.588C268.955 271.293 268.955 270.999 269.248 270.704C269.541 270.409 269.834 270.409 270.126 270.704L273.201 273.8L276.276 270.704C276.569 270.409 276.862 270.409 277.154 270.704C277.447 270.999 277.447 271.293 277.154 271.588L274.08 274.685ZM302.631 277.781L299.556 274.685L302.631 271.588C302.924 271.293 302.924 270.999 302.631 270.704C302.338 270.409 302.045 270.409 301.753 270.704L298.678 273.8L295.603 270.704C295.31 270.409 295.017 270.409 294.725 270.704C294.432 270.999 294.432 271.293 294.725 271.588L297.799 274.685L294.725 277.781C294.432 278.076 294.432 278.371 294.725 278.665C295.017 278.96 295.31 278.96 295.603 278.665L298.678 275.569L301.753 278.665C302.045 278.96 302.338 278.96 302.631 278.665C302.924 278.371 302.924 278.076 302.631 277.781ZM324.886 274.685L327.96 277.781C328.253 278.076 328.253 278.371 327.96 278.665C327.668 278.96 327.375 278.96 327.082 278.665L324.007 275.569L320.932 278.665C320.64 278.96 320.347 278.96 320.054 278.665C319.761 278.371 319.761 278.076 320.054 277.781L323.129 274.685L320.054 271.588C319.761 271.293 319.761 270.999 320.054 270.704C320.347 270.409 320.64 270.409 320.932 270.704L324.007 273.8L327.082 270.704C327.375 270.409 327.668 270.409 327.96 270.704C328.253 270.999 328.253 271.293 327.96 271.588L324.886 274.685ZM353.437 277.781L350.362 274.685L353.437 271.588C353.73 271.293 353.73 270.999 353.437 270.704C353.144 270.409 352.851 270.409 352.558 270.704L349.484 273.8L346.409 270.704C346.116 270.409 345.823 270.409 345.531 270.704C345.238 270.999 345.238 271.293 345.531 271.588L348.605 274.685L345.531 277.781C345.238 278.076 345.238 278.371 345.531 278.665C345.823 278.96 346.116 278.96 346.409 278.665L349.484 275.569L352.558 278.665C352.851 278.96 353.144 278.96 353.437 278.665C353.73 278.371 353.73 278.076 353.437 277.781ZM375.838 274.685L378.913 277.781C379.206 278.076 379.206 278.371 378.913 278.665C378.62 278.96 378.327 278.96 378.034 278.665L374.96 275.569L371.885 278.665C371.592 278.96 371.299 278.96 371.007 278.665C370.714 278.371 370.714 278.076 371.007 277.781L374.081 274.685L371.007 271.588C370.714 271.293 370.714 270.999 371.007 270.704C371.299 270.409 371.592 270.409 371.885 270.704L374.96 273.8L378.034 270.704C378.327 270.409 378.62 270.409 378.913 270.704C379.206 270.999 379.206 271.293 378.913 271.588L375.838 274.685Z" fill="url(#paint3_linear_5055_3657)"/>
</g>
<defs>
<linearGradient id="paint0_linear_5055_3657" x1="69.6225" y1="79.6202" x2="130.793" y2="265.539" gradientUnits="userSpaceOnUse">
<stop stop-color="#9D99FF"/>
<stop offset="1" stop-color="#5672FF"/>
</linearGradient>
<linearGradient id="paint1_linear_5055_3657" x1="19.0742" y1="58.3975" x2="263.781" y2="269.165" gradientUnits="userSpaceOnUse">
<stop stop-color="#41DABE"/>
<stop offset="1" stop-color="#B4FF24"/>
</linearGradient>
<linearGradient id="paint2_linear_5055_3657" x1="69.5" y1="80.0099" x2="130.651" y2="265.811" gradientUnits="userSpaceOnUse">
<stop stop-color="#9D99FF"/>
<stop offset="1" stop-color="#5672FF"/>
</linearGradient>
<linearGradient id="paint3_linear_5055_3657" x1="116.464" y1="200.272" x2="176.706" y2="333.369" gradientUnits="userSpaceOnUse">
<stop stop-color="#41DABE"/>
<stop offset="1" stop-color="#B4FF24"/>
</linearGradient>
</defs>
</svg>
