<svg width="66" height="66" viewBox="0 0 66 66" fill="none" xmlns="http://www.w3.org/2000/svg">
<path fill-rule="evenodd" clip-rule="evenodd" d="M1 33.5098C1 31.3006 2.79086 29.5098 5 29.5098H18.4152C20.6243 29.5098 22.4152 31.3006 22.4152 33.5098C22.4152 35.7189 20.6243 37.5098 18.4152 37.5098H5C2.79086 37.5098 1 35.7189 1 33.5098Z" fill="#9D99FF"/>
<path fill-rule="evenodd" clip-rule="evenodd" d="M44.6035 33.5098C44.6035 31.3006 46.3944 29.5098 48.6035 29.5098H61.9999C64.209 29.5098 65.9999 31.3006 65.9999 33.5098C65.9999 35.7189 64.209 37.5098 61.9999 37.5098H48.6035C46.3944 37.5098 44.6035 35.7189 44.6035 33.5098Z" fill="#9D99FF"/>
<path fill-rule="evenodd" clip-rule="evenodd" d="M25.6528 41.3387C27.2165 42.8992 27.219 45.4319 25.6585 46.9955L16.1867 56.4862C14.6262 58.0498 12.0935 58.0524 10.5299 56.4918C8.96621 54.9313 8.96369 52.3986 10.5242 50.835L19.996 41.3443C21.5565 39.7807 24.0892 39.7781 25.6528 41.3387Z" fill="#9D99FF"/>
<path fill-rule="evenodd" clip-rule="evenodd" d="M56.4899 10.5328C58.0504 12.0964 58.0479 14.6291 56.4842 16.1896L46.9936 25.6614C45.4299 27.222 42.8973 27.2194 41.3367 25.6558C39.7762 24.0921 39.7787 21.5595 41.3424 19.9989L50.833 10.5272C52.3967 8.96662 54.9293 8.96914 56.4899 10.5328Z" fill="#9D99FF"/>
<path fill-rule="evenodd" clip-rule="evenodd" d="M33.5078 44.6045C35.717 44.6045 37.5078 46.3954 37.5078 48.6045V62.0008C37.5078 64.21 35.717 66.0008 33.5078 66.0008C31.2987 66.0008 29.5078 64.21 29.5078 62.0008V48.6045C29.5078 46.3954 31.2987 44.6045 33.5078 44.6045Z" fill="#9D99FF"/>
<path fill-rule="evenodd" clip-rule="evenodd" d="M33.5078 1C35.717 1 37.5078 2.79086 37.5078 5V18.4152C37.5078 20.6244 35.717 22.4152 33.5078 22.4152C31.2987 22.4152 29.5078 20.6244 29.5078 18.4152V5C29.5078 2.79086 31.2987 1 33.5078 1Z" fill="#9D99FF"/>
<path fill-rule="evenodd" clip-rule="evenodd" d="M41.3395 41.3415C42.9016 39.7794 45.4343 39.7794 46.9964 41.3415L56.4871 50.8322C58.0492 52.3943 58.0492 54.9269 56.4871 56.489C54.925 58.0511 52.3923 58.0511 50.8302 56.489L41.3395 46.9983C39.7774 45.4363 39.7774 42.9036 41.3395 41.3415Z" fill="#9D99FF"/>
<path fill-rule="evenodd" clip-rule="evenodd" d="M10.527 10.53C12.0891 8.96787 14.6218 8.96787 16.1839 10.53L25.6557 20.0017C27.2178 21.5638 27.2178 24.0965 25.6557 25.6586C24.0936 27.2207 21.5609 27.2207 19.9988 25.6586L10.527 16.1868C8.96494 14.6247 8.96494 12.0921 10.527 10.53Z" fill="#9D99FF"/>
</svg>
