<svg width="275" height="134" viewBox="0 0 275 134" fill="none" xmlns="http://www.w3.org/2000/svg">
<path d="M5.76065 125.915C7.91853 126.306 9.48793 128.459 9.09559 130.612C8.70324 132.765 6.54531 134.331 4.38743 133.94C2.22954 133.548 0.660146 131.395 1.05249 129.242C1.44483 126.893 3.60276 125.523 5.76065 125.915Z" fill="#F9F5FF"/>
<path d="M5.76065 94.4022C7.91853 94.7937 9.48793 96.9467 9.09559 99.0997C8.70324 101.253 6.54531 102.819 4.38743 102.427C2.22954 102.036 0.660146 99.8827 1.05249 97.7297C1.44483 95.5766 3.60276 94.0108 5.76065 94.4022Z" fill="#F9F5FF"/>
<path d="M5.76065 63.0858C7.91853 63.4773 9.48793 65.6303 9.09559 67.7833C8.70324 69.9363 6.54531 71.5022 4.38743 71.1107C2.22954 70.7193 0.660146 68.5663 1.05249 66.4133C1.44483 64.0645 3.60276 62.4986 5.76065 63.0858Z" fill="#F9F5FF"/>
<path d="M5.76065 31.573C7.91853 31.9645 9.48793 34.1176 9.09559 36.2706C8.70324 38.4236 6.54531 39.9895 4.38743 39.598C2.22954 39.2066 0.660146 37.0535 1.05249 34.9005C1.44483 32.5517 3.60276 31.1816 5.76065 31.573Z" fill="#F9F5FF"/>
<path d="M5.76065 0.0604396C7.91853 0.4519 9.48793 2.60498 9.09559 4.75802C8.70324 6.91105 6.54531 8.4768 4.38743 8.08534C2.22954 7.69388 0.660146 5.54092 1.05249 3.38788C1.44483 1.23485 3.60276 -0.331021 5.76065 0.0604396Z" fill="#F9F5FF"/>
<path d="M32.2431 125.915C34.401 126.306 35.9703 128.459 35.578 130.612C35.1857 132.765 33.0277 134.331 30.8698 133.94C28.712 133.548 27.1426 131.395 27.5349 129.242C27.9273 126.893 30.0852 125.523 32.2431 125.915Z" fill="#F9F5FF"/>
<path d="M32.2431 94.4022C34.401 94.7937 35.9703 96.9467 35.578 99.0997C35.1857 101.253 33.0277 102.819 30.8698 102.427C28.712 102.036 27.1426 99.8827 27.5349 97.7297C27.9273 95.5766 30.0852 94.0108 32.2431 94.4022Z" fill="#F9F5FF"/>
<path d="M32.2431 63.0858C34.401 63.4773 35.9703 65.6303 35.578 67.7833C35.1857 69.9363 33.0277 71.5022 30.8698 71.1107C28.712 70.7193 27.1426 68.5663 27.5349 66.4133C27.9273 64.0645 30.0852 62.4986 32.2431 63.0858Z" fill="#F9F5FF"/>
<path d="M32.2431 31.573C34.401 31.9645 35.9703 34.1176 35.578 36.2706C35.1857 38.4236 33.0277 39.9895 30.8698 39.598C28.712 39.2066 27.1426 37.0535 27.5349 34.9005C27.9273 32.5517 30.0852 31.1816 32.2431 31.573Z" fill="#F9F5FF"/>
<path d="M32.2431 0.0604396C34.401 0.4519 35.9703 2.60498 35.578 4.75802C35.1857 6.91105 33.0277 8.4768 30.8698 8.08534C28.712 7.69388 27.1426 5.54092 27.5349 3.38788C27.9273 1.23485 30.0852 -0.331021 32.2431 0.0604396Z" fill="#F9F5FF"/>
<path d="M58.9226 125.915C61.0805 126.306 62.6499 128.459 62.2576 130.612C61.8652 132.765 59.7073 134.331 57.5494 133.94C55.3915 133.548 53.8223 131.395 54.2146 129.242C54.6069 126.893 56.5686 125.523 58.9226 125.915Z" fill="#F9F5FF"/>
<path d="M58.9226 94.4022C61.0805 94.7937 62.6499 96.9467 62.2576 99.0997C61.8652 101.253 59.7073 102.819 57.5494 102.427C55.3915 102.036 53.8223 99.8827 54.2146 97.7297C54.6069 95.5766 56.5686 94.0108 58.9226 94.4022Z" fill="#F9F5FF"/>
<path d="M58.9226 63.0858C61.0805 63.4773 62.6499 65.6303 62.2576 67.7833C61.8652 69.9363 59.7073 71.5022 57.5494 71.1107C55.3915 70.7193 53.8223 68.5663 54.2146 66.4133C54.6069 64.0645 56.5686 62.4986 58.9226 63.0858Z" fill="#F9F5FF"/>
<path d="M58.9226 31.573C61.0805 31.9645 62.6499 34.1176 62.2576 36.2706C61.8652 38.4236 59.7073 39.9895 57.5494 39.598C55.3915 39.2066 53.8223 37.0535 54.2146 34.9005C54.6069 32.5517 56.5686 31.1816 58.9226 31.573Z" fill="#F9F5FF"/>
<path d="M58.9226 0.0604396C61.0805 0.4519 62.6499 2.60498 62.2576 4.75802C61.8652 6.91105 59.7073 8.4768 57.5494 8.08534C55.3915 7.69388 53.8223 5.54092 54.2146 3.38788C54.6069 1.23485 56.5686 -0.331021 58.9226 0.0604396Z" fill="#F9F5FF"/>
<path d="M85.407 125.915C87.5649 126.306 89.1343 128.459 88.742 130.612C88.3496 132.765 86.1917 134.331 84.0338 133.94C81.8759 133.548 80.3066 131.395 80.699 129.242C81.0913 126.893 83.2491 125.523 85.407 125.915Z" fill="#F9F5FF"/>
<path d="M85.407 94.4022C87.5649 94.7937 89.1343 96.9467 88.742 99.0997C88.3496 101.253 86.1917 102.819 84.0338 102.427C81.8759 102.036 80.3066 99.8827 80.699 97.7297C81.0913 95.5766 83.2491 94.0108 85.407 94.4022Z" fill="#F9F5FF"/>
<path d="M85.407 63.0858C87.5649 63.4773 89.1343 65.6303 88.742 67.7833C88.3496 69.9363 86.1917 71.5022 84.0338 71.1107C81.8759 70.7193 80.3066 68.5663 80.699 66.4133C81.0913 64.0645 83.2491 62.4986 85.407 63.0858Z" fill="#F9F5FF"/>
<path d="M85.407 31.573C87.5649 31.9645 89.1343 34.1176 88.742 36.2706C88.3496 38.4236 86.1917 39.9895 84.0338 39.598C81.8759 39.2066 80.3066 37.0535 80.699 34.9005C81.0913 32.5517 83.2491 31.1816 85.407 31.573Z" fill="#F9F5FF"/>
<path d="M85.407 0.0604396C87.5649 0.4519 89.1343 2.60498 88.742 4.75802C88.3496 6.91105 86.1917 8.4768 84.0338 8.08534C81.8759 7.69388 80.3066 5.54092 80.699 3.38788C81.0913 1.23485 83.2491 -0.331021 85.407 0.0604396Z" fill="#F9F5FF"/>
<path d="M111.889 125.915C114.047 126.306 115.617 128.459 115.224 130.612C114.832 132.765 112.674 134.331 110.516 133.94C108.358 133.548 106.789 131.395 107.181 129.242C107.574 126.893 109.732 125.523 111.889 125.915Z" fill="#F9F5FF"/>
<path d="M111.889 94.4022C114.047 94.7937 115.617 96.9467 115.224 99.0997C114.832 101.253 112.674 102.819 110.516 102.427C108.358 102.036 106.789 99.8827 107.181 97.7297C107.574 95.5766 109.732 94.0108 111.889 94.4022Z" fill="#F9F5FF"/>
<path d="M111.889 63.0858C114.047 63.4773 115.617 65.6303 115.224 67.7833C114.832 69.9363 112.674 71.5022 110.516 71.1107C108.358 70.7193 106.789 68.5663 107.181 66.4133C107.574 64.0645 109.732 62.4986 111.889 63.0858Z" fill="#F9F5FF"/>
<path d="M111.889 31.573C114.047 31.9645 115.617 34.1176 115.224 36.2706C114.832 38.4236 112.674 39.9895 110.516 39.598C108.358 39.2066 106.789 37.0535 107.181 34.9005C107.574 32.5517 109.732 31.1816 111.889 31.573Z" fill="#F9F5FF"/>
<path d="M111.889 0.0604396C114.047 0.4519 115.617 2.60498 115.224 4.75802C114.832 6.91105 112.674 8.4768 110.516 8.08534C108.358 7.69388 106.789 5.54092 107.181 3.38788C107.574 1.23485 109.732 -0.331021 111.889 0.0604396Z" fill="#F9F5FF"/>
<path d="M138.569 125.915C140.727 126.306 142.296 128.459 141.904 130.612C141.512 132.765 139.354 134.331 137.196 133.94C135.038 133.548 133.469 131.395 133.861 129.242C134.057 126.893 136.215 125.523 138.569 125.915Z" fill="#F9F5FF"/>
<path d="M138.569 94.4022C140.727 94.7937 142.296 96.9467 141.904 99.0997C141.512 101.253 139.354 102.819 137.196 102.427C135.038 102.036 133.469 99.8827 133.861 97.7297C134.057 95.5766 136.215 94.0108 138.569 94.4022Z" fill="#F9F5FF"/>
<path d="M138.569 63.0858C140.727 63.4773 142.296 65.6303 141.904 67.7833C141.512 69.9363 139.354 71.5022 137.196 71.1107C135.038 70.7193 133.469 68.5663 133.861 66.4133C134.057 64.0645 136.215 62.4986 138.569 63.0858Z" fill="#F9F5FF"/>
<path d="M138.569 31.573C140.727 31.9645 142.296 34.1176 141.904 36.2706C141.512 38.4236 139.354 39.9895 137.196 39.598C135.038 39.2066 133.469 37.0535 133.861 34.9005C134.057 32.5517 136.215 31.1816 138.569 31.573Z" fill="#F9F5FF"/>
<path d="M138.569 0.0604396C140.727 0.4519 142.296 2.60498 141.904 4.75802C141.512 6.91105 139.354 8.4768 137.196 8.08534C135.038 7.69388 133.469 5.54092 133.861 3.38788C134.057 1.23485 136.215 -0.331021 138.569 0.0604396Z" fill="#F9F5FF"/>
<path d="M165.052 125.915C167.21 126.306 168.779 128.459 168.386 130.612C167.994 132.765 165.836 134.331 163.678 133.94C161.521 133.548 159.951 131.395 160.344 129.242C160.736 126.893 162.894 125.523 165.052 125.915Z" fill="#F9F5FF"/>
<path d="M165.052 94.4022C167.21 94.7937 168.779 96.9467 168.386 99.0997C167.994 101.253 165.836 102.819 163.678 102.427C161.521 102.036 159.951 99.8827 160.344 97.7297C160.736 95.5766 162.894 94.0108 165.052 94.4022Z" fill="#F9F5FF"/>
<path d="M165.052 63.0858C167.21 63.4773 168.779 65.6303 168.386 67.7833C167.994 69.9363 165.836 71.5022 163.678 71.1107C161.521 70.7193 159.951 68.5663 160.344 66.4133C160.736 64.0645 162.894 62.4986 165.052 63.0858Z" fill="#F9F5FF"/>
<path d="M165.052 31.573C167.21 31.9645 168.779 34.1176 168.386 36.2706C167.994 38.4236 165.836 39.9895 163.678 39.598C161.521 39.2066 159.951 37.0535 160.344 34.9005C160.736 32.5517 162.894 31.1816 165.052 31.573Z" fill="#F9F5FF"/>
<path d="M165.052 0.0604396C167.21 0.4519 168.779 2.60498 168.386 4.75802C167.994 6.91105 165.836 8.4768 163.678 8.08534C161.521 7.69388 159.951 5.54092 160.344 3.38788C160.736 1.23485 162.894 -0.331021 165.052 0.0604396Z" fill="#F9F5FF"/>
<path d="M191.534 125.915C193.692 126.306 195.261 128.459 194.869 130.612C194.477 132.765 192.319 134.331 190.161 133.94C188.003 133.548 186.434 131.395 186.826 129.242C187.218 126.893 189.376 125.523 191.534 125.915Z" fill="#F9F5FF"/>
<path d="M191.534 94.4022C193.692 94.7937 195.261 96.9467 194.869 99.0997C194.477 101.253 192.319 102.819 190.161 102.427C188.003 102.036 186.434 99.8827 186.826 97.7297C187.218 95.5766 189.376 94.0108 191.534 94.4022Z" fill="#F9F5FF"/>
<path d="M191.534 63.0858C193.692 63.4773 195.261 65.6303 194.869 67.7833C194.477 69.9363 192.319 71.5022 190.161 71.1107C188.003 70.7193 186.434 68.5663 186.826 66.4133C187.218 64.0645 189.376 62.4986 191.534 63.0858Z" fill="#F9F5FF"/>
<path d="M191.534 31.573C193.692 31.9645 195.261 34.1176 194.869 36.2706C194.477 38.4236 192.319 39.9895 190.161 39.598C188.003 39.2066 186.434 37.0535 186.826 34.9005C187.218 32.5517 189.376 31.1816 191.534 31.573Z" fill="#F9F5FF"/>
<path d="M191.534 0.0604396C193.692 0.4519 195.261 2.60498 194.869 4.75802C194.477 6.91105 192.319 8.4768 190.161 8.08534C188.003 7.69388 186.434 5.54092 186.826 3.38788C187.218 1.23485 189.376 -0.331021 191.534 0.0604396Z" fill="#F9F5FF"/>
<path d="M218.018 125.915C220.176 126.306 221.746 128.459 221.353 130.612C220.961 132.765 218.803 134.331 216.645 133.94C214.487 133.548 212.918 131.395 213.31 129.242C213.703 126.893 215.861 125.523 218.018 125.915Z" fill="#F9F5FF"/>
<path d="M221.55 98.5126C221.55 96.2426 219.705 94.4023 217.43 94.4023C215.155 94.4023 213.311 96.2426 213.311 98.5126C213.311 100.783 215.155 102.623 217.43 102.623C219.705 102.623 221.55 100.783 221.55 98.5126Z" fill="#F9F5FF"/>
<path d="M221.471 66.5179C221.163 64.2687 219.087 62.6938 216.833 63.0002C214.578 63.3067 213 65.3785 213.307 67.6277C213.614 69.8769 215.691 71.4518 217.945 71.1453C220.199 70.8388 221.778 68.7671 221.471 66.5179Z" fill="#F9F5FF"/>
<path d="M218.018 31.573C220.176 31.9645 221.746 34.1176 221.353 36.2706C220.961 38.4236 218.803 39.9895 216.645 39.598C214.487 39.2066 212.918 37.0535 213.31 34.9005C213.703 32.5517 215.861 31.1816 218.018 31.573Z" fill="#F9F5FF"/>
<path d="M218.018 0.0604396C220.176 0.4519 221.746 2.60498 221.353 4.75802C220.961 6.91105 218.803 8.4768 216.645 8.08534C214.487 7.69388 212.918 5.54092 213.31 3.38788C213.703 1.23485 215.861 -0.331021 218.018 0.0604396Z" fill="#F9F5FF"/>
<path d="M244.698 125.915C246.856 126.306 248.425 128.459 248.033 130.612C247.641 132.765 245.483 134.331 243.325 133.94C241.167 133.548 239.598 131.395 239.99 129.242C240.382 126.893 242.344 125.523 244.698 125.915Z" fill="#F9F5FF"/>
<path d="M248.032 98.5126C248.032 96.2426 246.188 94.4023 243.913 94.4023C241.637 94.4023 239.793 96.2426 239.793 98.5126C239.793 100.783 241.637 102.623 243.913 102.623C246.188 102.623 248.032 100.783 248.032 98.5126Z" fill="#F9F5FF"/>
<path d="M247.953 66.5267C247.646 64.2775 245.569 62.7026 243.315 63.009C241.061 63.3155 239.482 65.3873 239.79 67.6365C240.097 69.8857 242.173 71.4606 244.427 71.1541C246.682 70.8476 248.26 68.7759 247.953 66.5267Z" fill="#F9F5FF"/>
<path d="M244.698 31.573C246.856 31.9645 248.425 34.1176 248.033 36.2706C247.641 38.4236 245.483 39.9895 243.325 39.598C241.167 39.2066 239.598 37.0535 239.99 34.9005C240.382 32.5517 242.344 31.1816 244.698 31.573Z" fill="#F9F5FF"/>
<path d="M244.698 0.0604396C246.856 0.4519 248.425 2.60498 248.033 4.75802C247.641 6.91105 245.483 8.4768 243.325 8.08534C241.167 7.69388 239.598 5.54092 239.99 3.38788C240.382 1.23485 242.344 -0.331021 244.698 0.0604396Z" fill="#F9F5FF"/>
<path d="M271.179 125.915C273.337 126.306 274.906 128.459 274.514 130.612C274.121 132.765 271.963 134.331 269.805 133.94C267.648 133.548 266.078 131.395 266.47 129.242C266.863 126.893 269.021 125.523 271.179 125.915Z" fill="#F9F5FF"/>
<path d="M274.515 98.5126C274.515 96.2426 272.67 94.4023 270.395 94.4023C268.12 94.4023 266.275 96.2426 266.275 98.5126C266.275 100.783 268.12 102.623 270.395 102.623C272.67 102.623 274.515 100.783 274.515 98.5126Z" fill="#F9F5FF"/>
<path d="M274.433 66.5345C274.126 64.2853 272.05 62.7104 269.796 63.0168C267.541 63.3233 265.963 65.3951 266.27 67.6443C266.577 69.8935 268.654 71.4684 270.908 71.1619C273.162 70.8554 274.741 68.7837 274.433 66.5345Z" fill="#F9F5FF"/>
<path d="M271.179 31.573C273.337 31.9645 274.906 34.1176 274.514 36.2706C274.121 38.4236 271.963 39.9895 269.805 39.598C267.648 39.2066 266.078 37.0535 266.47 34.9005C266.863 32.5517 269.021 31.1816 271.179 31.573Z" fill="#F9F5FF"/>
<path d="M271.179 0.0604396C273.337 0.4519 274.906 2.60498 274.514 4.75802C274.121 6.91105 271.963 8.4768 269.805 8.08534C267.648 7.69388 266.078 5.54092 266.47 3.38788C266.863 1.23485 269.021 -0.331021 271.179 0.0604396Z" fill="#F9F5FF"/>
</svg>
