<svg width="275" height="134" viewBox="0 0 275 134" fill="none" xmlns="http://www.w3.org/2000/svg">
<path d="M5.7626 125.915C7.92049 126.306 9.48988 128.459 9.09754 130.612C8.7052 132.765 6.54726 134.331 4.38938 133.94C2.23149 133.548 0.662099 131.395 1.05444 129.242C1.44678 126.893 3.60472 125.523 5.7626 125.915Z" fill="#5672FF"/>
<path d="M5.7626 94.4022C7.92049 94.7937 9.48988 96.9467 9.09754 99.0997C8.7052 101.253 6.54726 102.819 4.38938 102.427C2.23149 102.036 0.662099 99.8827 1.05444 97.7297C1.44678 95.5766 3.60472 94.0108 5.7626 94.4022Z" fill="#5672FF"/>
<path d="M5.7626 63.0858C7.92049 63.4773 9.48988 65.6303 9.09754 67.7833C8.7052 69.9363 6.54726 71.5022 4.38938 71.1107C2.23149 70.7193 0.662099 68.5663 1.05444 66.4133C1.44678 64.0645 3.60472 62.4986 5.7626 63.0858Z" fill="#5672FF"/>
<path d="M5.7626 31.573C7.92049 31.9645 9.48988 34.1176 9.09754 36.2706C8.7052 38.4236 6.54726 39.9895 4.38938 39.598C2.23149 39.2066 0.662099 37.0535 1.05444 34.9005C1.44678 32.5517 3.60472 31.1816 5.7626 31.573Z" fill="#5672FF"/>
<path d="M5.7626 0.0604396C7.92049 0.4519 9.48988 2.60498 9.09754 4.75802C8.7052 6.91105 6.54726 8.4768 4.38938 8.08534C2.23149 7.69388 0.662099 5.54092 1.05444 3.38788C1.44678 1.23485 3.60472 -0.331021 5.7626 0.0604396Z" fill="#5672FF"/>
<path d="M32.245 125.915C34.4029 126.306 35.9723 128.459 35.58 130.612C35.1876 132.765 33.0297 134.331 30.8718 133.94C28.7139 133.548 27.1445 131.395 27.5369 129.242C27.9292 126.893 30.0871 125.523 32.245 125.915Z" fill="#5672FF"/>
<path d="M32.245 94.4022C34.4029 94.7937 35.9723 96.9467 35.58 99.0997C35.1876 101.253 33.0297 102.819 30.8718 102.427C28.7139 102.036 27.1445 99.8827 27.5369 97.7297C27.9292 95.5766 30.0871 94.0108 32.245 94.4022Z" fill="#5672FF"/>
<path d="M32.245 63.0858C34.4029 63.4773 35.9723 65.6303 35.58 67.7833C35.1876 69.9363 33.0297 71.5022 30.8718 71.1107C28.7139 70.7193 27.1445 68.5663 27.5369 66.4133C27.9292 64.0645 30.0871 62.4986 32.245 63.0858Z" fill="#5672FF"/>
<path d="M32.245 31.573C34.4029 31.9645 35.9723 34.1176 35.58 36.2706C35.1876 38.4236 33.0297 39.9895 30.8718 39.598C28.7139 39.2066 27.1445 37.0535 27.5369 34.9005C27.9292 32.5517 30.0871 31.1816 32.245 31.573Z" fill="#5672FF"/>
<path d="M32.245 0.0604396C34.4029 0.4519 35.9723 2.60498 35.58 4.75802C35.1876 6.91105 33.0297 8.4768 30.8718 8.08534C28.7139 7.69388 27.1445 5.54092 27.5369 3.38788C27.9292 1.23485 30.0871 -0.331021 32.245 0.0604396Z" fill="#5672FF"/>
<path d="M58.9246 125.915C61.0825 126.306 62.6519 128.459 62.2595 130.612C61.8672 132.765 59.7093 134.331 57.5514 133.94C55.3935 133.548 53.8242 131.395 54.2166 129.242C54.6089 126.893 56.5705 125.523 58.9246 125.915Z" fill="#5672FF"/>
<path d="M58.9246 94.4022C61.0825 94.7937 62.6519 96.9467 62.2595 99.0997C61.8672 101.253 59.7093 102.819 57.5514 102.427C55.3935 102.036 53.8242 99.8827 54.2166 97.7297C54.6089 95.5766 56.5705 94.0108 58.9246 94.4022Z" fill="#5672FF"/>
<path d="M58.9246 63.0858C61.0825 63.4773 62.6519 65.6303 62.2595 67.7833C61.8672 69.9363 59.7093 71.5022 57.5514 71.1107C55.3935 70.7193 53.8242 68.5663 54.2166 66.4133C54.6089 64.0645 56.5705 62.4986 58.9246 63.0858Z" fill="#5672FF"/>
<path d="M58.9246 31.573C61.0825 31.9645 62.6519 34.1176 62.2595 36.2706C61.8672 38.4236 59.7093 39.9895 57.5514 39.598C55.3935 39.2066 53.8242 37.0535 54.2166 34.9005C54.6089 32.5517 56.5705 31.1816 58.9246 31.573Z" fill="#5672FF"/>
<path d="M58.9246 0.0604396C61.0825 0.4519 62.6519 2.60498 62.2595 4.75802C61.8672 6.91105 59.7093 8.4768 57.5514 8.08534C55.3935 7.69388 53.8242 5.54092 54.2166 3.38788C54.6089 1.23485 56.5705 -0.331021 58.9246 0.0604396Z" fill="#5672FF"/>
<path d="M85.409 125.915C87.5669 126.306 89.1363 128.459 88.7439 130.612C88.3516 132.765 86.1936 134.331 84.0357 133.94C81.8779 133.548 80.3086 131.395 80.7009 129.242C81.0933 126.893 83.2511 125.523 85.409 125.915Z" fill="#5672FF"/>
<path d="M85.409 94.4022C87.5669 94.7937 89.1363 96.9467 88.7439 99.0997C88.3516 101.253 86.1936 102.819 84.0357 102.427C81.8779 102.036 80.3086 99.8827 80.7009 97.7297C81.0933 95.5766 83.2511 94.0108 85.409 94.4022Z" fill="#5672FF"/>
<path d="M85.409 63.0858C87.5669 63.4773 89.1363 65.6303 88.7439 67.7833C88.3516 69.9363 86.1936 71.5022 84.0357 71.1107C81.8779 70.7193 80.3086 68.5663 80.7009 66.4133C81.0933 64.0645 83.2511 62.4986 85.409 63.0858Z" fill="#5672FF"/>
<path d="M85.409 31.573C87.5669 31.9645 89.1363 34.1176 88.7439 36.2706C88.3516 38.4236 86.1936 39.9895 84.0357 39.598C81.8779 39.2066 80.3086 37.0535 80.7009 34.9005C81.0933 32.5517 83.2511 31.1816 85.409 31.573Z" fill="#5672FF"/>
<path d="M85.409 0.0604396C87.5669 0.4519 89.1363 2.60498 88.7439 4.75802C88.3516 6.91105 86.1936 8.4768 84.0357 8.08534C81.8779 7.69388 80.3086 5.54092 80.7009 3.38788C81.0933 1.23485 83.2511 -0.331021 85.409 0.0604396Z" fill="#5672FF"/>
<path d="M111.891 125.915C114.049 126.306 115.619 128.459 115.226 130.612C114.834 132.765 112.676 134.331 110.518 133.94C108.36 133.548 106.791 131.395 107.183 129.242C107.576 126.893 109.734 125.523 111.891 125.915Z" fill="#5672FF"/>
<path d="M111.891 94.4022C114.049 94.7937 115.619 96.9467 115.226 99.0997C114.834 101.253 112.676 102.819 110.518 102.427C108.36 102.036 106.791 99.8827 107.183 97.7297C107.576 95.5766 109.734 94.0108 111.891 94.4022Z" fill="#5672FF"/>
<path d="M111.891 63.0858C114.049 63.4773 115.619 65.6303 115.226 67.7833C114.834 69.9363 112.676 71.5022 110.518 71.1107C108.36 70.7193 106.791 68.5663 107.183 66.4133C107.576 64.0645 109.734 62.4986 111.891 63.0858Z" fill="#5672FF"/>
<path d="M111.891 31.573C114.049 31.9645 115.619 34.1176 115.226 36.2706C114.834 38.4236 112.676 39.9895 110.518 39.598C108.36 39.2066 106.791 37.0535 107.183 34.9005C107.576 32.5517 109.734 31.1816 111.891 31.573Z" fill="#5672FF"/>
<path d="M111.891 0.0604396C114.049 0.4519 115.619 2.60498 115.226 4.75802C114.834 6.91105 112.676 8.4768 110.518 8.08534C108.36 7.69388 106.791 5.54092 107.183 3.38788C107.576 1.23485 109.734 -0.331021 111.891 0.0604396Z" fill="#5672FF"/>
<path d="M138.571 125.915C140.729 126.306 142.298 128.459 141.906 130.612C141.514 132.765 139.356 134.331 137.198 133.94C135.04 133.548 133.471 131.395 133.863 129.242C134.059 126.893 136.217 125.523 138.571 125.915Z" fill="#5672FF"/>
<path d="M138.571 94.4022C140.729 94.7937 142.298 96.9467 141.906 99.0997C141.514 101.253 139.356 102.819 137.198 102.427C135.04 102.036 133.471 99.8827 133.863 97.7297C134.059 95.5766 136.217 94.0108 138.571 94.4022Z" fill="#5672FF"/>
<path d="M138.571 63.0858C140.729 63.4773 142.298 65.6303 141.906 67.7833C141.514 69.9363 139.356 71.5022 137.198 71.1107C135.04 70.7193 133.471 68.5663 133.863 66.4133C134.059 64.0645 136.217 62.4986 138.571 63.0858Z" fill="#5672FF"/>
<path d="M138.571 31.573C140.729 31.9645 142.298 34.1176 141.906 36.2706C141.514 38.4236 139.356 39.9895 137.198 39.598C135.04 39.2066 133.471 37.0535 133.863 34.9005C134.059 32.5517 136.217 31.1816 138.571 31.573Z" fill="#5672FF"/>
<path d="M138.571 0.0604396C140.729 0.4519 142.298 2.60498 141.906 4.75802C141.514 6.91105 139.356 8.4768 137.198 8.08534C135.04 7.69388 133.471 5.54092 133.863 3.38788C134.059 1.23485 136.217 -0.331021 138.571 0.0604396Z" fill="#5672FF"/>
<path d="M165.054 125.915C167.212 126.306 168.781 128.459 168.388 130.612C167.996 132.765 165.838 134.331 163.68 133.94C161.523 133.548 159.953 131.395 160.345 129.242C160.738 126.893 162.896 125.523 165.054 125.915Z" fill="#5672FF"/>
<path d="M165.054 94.4022C167.212 94.7937 168.781 96.9467 168.388 99.0997C167.996 101.253 165.838 102.819 163.68 102.427C161.523 102.036 159.953 99.8827 160.345 97.7297C160.738 95.5766 162.896 94.0108 165.054 94.4022Z" fill="#5672FF"/>
<path d="M165.054 63.0858C167.212 63.4773 168.781 65.6303 168.388 67.7833C167.996 69.9363 165.838 71.5022 163.68 71.1107C161.523 70.7193 159.953 68.5663 160.345 66.4133C160.738 64.0645 162.896 62.4986 165.054 63.0858Z" fill="#5672FF"/>
<path d="M165.054 31.573C167.212 31.9645 168.781 34.1176 168.388 36.2706C167.996 38.4236 165.838 39.9895 163.68 39.598C161.523 39.2066 159.953 37.0535 160.345 34.9005C160.738 32.5517 162.896 31.1816 165.054 31.573Z" fill="#5672FF"/>
<path d="M165.054 0.0604396C167.212 0.4519 168.781 2.60498 168.388 4.75802C167.996 6.91105 165.838 8.4768 163.68 8.08534C161.523 7.69388 159.953 5.54092 160.345 3.38788C160.738 1.23485 162.896 -0.331021 165.054 0.0604396Z" fill="#5672FF"/>
<path d="M191.536 125.915C193.694 126.306 195.263 128.459 194.871 130.612C194.479 132.765 192.321 134.331 190.163 133.94C188.005 133.548 186.436 131.395 186.828 129.242C187.22 126.893 189.378 125.523 191.536 125.915Z" fill="#5672FF"/>
<path d="M191.536 94.4022C193.694 94.7937 195.263 96.9467 194.871 99.0997C194.479 101.253 192.321 102.819 190.163 102.427C188.005 102.036 186.436 99.8827 186.828 97.7297C187.22 95.5766 189.378 94.0108 191.536 94.4022Z" fill="#5672FF"/>
<path d="M191.536 63.0858C193.694 63.4773 195.263 65.6303 194.871 67.7833C194.479 69.9363 192.321 71.5022 190.163 71.1107C188.005 70.7193 186.436 68.5663 186.828 66.4133C187.22 64.0645 189.378 62.4986 191.536 63.0858Z" fill="#5672FF"/>
<path d="M191.536 31.573C193.694 31.9645 195.263 34.1176 194.871 36.2706C194.479 38.4236 192.321 39.9895 190.163 39.598C188.005 39.2066 186.436 37.0535 186.828 34.9005C187.22 32.5517 189.378 31.1816 191.536 31.573Z" fill="#5672FF"/>
<path d="M191.536 0.0604396C193.694 0.4519 195.263 2.60498 194.871 4.75802C194.479 6.91105 192.321 8.4768 190.163 8.08534C188.005 7.69388 186.436 5.54092 186.828 3.38788C187.22 1.23485 189.378 -0.331021 191.536 0.0604396Z" fill="#5672FF"/>
<path d="M218.02 125.915C220.178 126.306 221.748 128.459 221.355 130.612C220.963 132.765 218.805 134.331 216.647 133.94C214.489 133.548 212.92 131.395 213.312 129.242C213.705 126.893 215.863 125.523 218.02 125.915Z" fill="#5672FF"/>
<path d="M221.552 98.5126C221.552 96.2426 219.707 94.4023 217.432 94.4023C215.157 94.4023 213.312 96.2426 213.312 98.5126C213.312 100.783 215.157 102.623 217.432 102.623C219.707 102.623 221.552 100.783 221.552 98.5126Z" fill="#5672FF"/>
<path d="M221.473 66.5179C221.165 64.2687 219.089 62.6938 216.835 63.0002C214.58 63.3067 213.002 65.3785 213.309 67.6277C213.616 69.8769 215.693 71.4518 217.947 71.1453C220.201 70.8388 221.78 68.7671 221.473 66.5179Z" fill="#5672FF"/>
<path d="M218.02 31.573C220.178 31.9645 221.748 34.1176 221.355 36.2706C220.963 38.4236 218.805 39.9895 216.647 39.598C214.489 39.2066 212.92 37.0535 213.312 34.9005C213.705 32.5517 215.863 31.1816 218.02 31.573Z" fill="#5672FF"/>
<path d="M218.02 0.0604396C220.178 0.4519 221.748 2.60498 221.355 4.75802C220.963 6.91105 218.805 8.4768 216.647 8.08534C214.489 7.69388 212.92 5.54092 213.312 3.38788C213.705 1.23485 215.863 -0.331021 218.02 0.0604396Z" fill="#5672FF"/>
<path d="M244.7 125.915C246.858 126.306 248.427 128.459 248.035 130.612C247.643 132.765 245.485 134.331 243.327 133.94C241.169 133.548 239.6 131.395 239.992 129.242C240.384 126.893 242.346 125.523 244.7 125.915Z" fill="#5672FF"/>
<path d="M248.034 98.5126C248.034 96.2426 246.19 94.4023 243.914 94.4023C241.639 94.4023 239.795 96.2426 239.795 98.5126C239.795 100.783 241.639 102.623 243.914 102.623C246.19 102.623 248.034 100.783 248.034 98.5126Z" fill="#5672FF"/>
<path d="M247.955 66.5267C247.648 64.2775 245.571 62.7026 243.317 63.009C241.063 63.3155 239.484 65.3873 239.792 67.6365C240.099 69.8857 242.175 71.4606 244.429 71.1541C246.684 70.8476 248.262 68.7759 247.955 66.5267Z" fill="#5672FF"/>
<path d="M244.7 31.573C246.858 31.9645 248.427 34.1176 248.035 36.2706C247.643 38.4236 245.485 39.9895 243.327 39.598C241.169 39.2066 239.6 37.0535 239.992 34.9005C240.384 32.5517 242.346 31.1816 244.7 31.573Z" fill="#5672FF"/>
<path d="M244.7 0.0604396C246.858 0.4519 248.427 2.60498 248.035 4.75802C247.643 6.91105 245.485 8.4768 243.327 8.08534C241.169 7.69388 239.6 5.54092 239.992 3.38788C240.384 1.23485 242.346 -0.331021 244.7 0.0604396Z" fill="#5672FF"/>
<path d="M271.179 125.915C273.337 126.306 274.906 128.459 274.514 130.612C274.121 132.765 271.963 134.331 269.805 133.94C267.648 133.548 266.078 131.395 266.47 129.242C266.863 126.893 269.021 125.523 271.179 125.915Z" fill="#5672FF"/>
<path d="M274.515 98.5126C274.515 96.2426 272.67 94.4023 270.395 94.4023C268.12 94.4023 266.275 96.2426 266.275 98.5126C266.275 100.783 268.12 102.623 270.395 102.623C272.67 102.623 274.515 100.783 274.515 98.5126Z" fill="#5672FF"/>
<path d="M274.433 66.5345C274.126 64.2853 272.05 62.7104 269.796 63.0168C267.541 63.3233 265.963 65.3951 266.27 67.6443C266.577 69.8935 268.654 71.4684 270.908 71.1619C273.162 70.8554 274.741 68.7837 274.433 66.5345Z" fill="#5672FF"/>
<path d="M271.179 31.573C273.337 31.9645 274.906 34.1176 274.514 36.2706C274.121 38.4236 271.963 39.9895 269.805 39.598C267.648 39.2066 266.078 37.0535 266.47 34.9005C266.863 32.5517 269.021 31.1816 271.179 31.573Z" fill="#5672FF"/>
<path d="M271.179 0.0604396C273.337 0.4519 274.906 2.60498 274.514 4.75802C274.121 6.91105 271.963 8.4768 269.805 8.08534C267.648 7.69388 266.078 5.54092 266.47 3.38788C266.863 1.23485 269.021 -0.331021 271.179 0.0604396Z" fill="#5672FF"/>
</svg>
