<svg width="274" height="134" viewBox="0 0 274 134" fill="none" xmlns="http://www.w3.org/2000/svg">
<path d="M4.76846 125.915C6.92635 126.306 8.49574 128.459 8.1034 130.612C7.71106 132.765 5.55312 134.331 3.39524 133.94C1.23735 133.548 -0.332041 131.395 0.0603013 129.242C0.452644 126.893 2.61058 125.523 4.76846 125.915Z" fill="#CC45FF"/>
<path d="M4.76846 94.4022C6.92635 94.7937 8.49574 96.9467 8.1034 99.0997C7.71106 101.253 5.55312 102.819 3.39524 102.427C1.23735 102.036 -0.332041 99.8827 0.0603013 97.7297C0.452644 95.5766 2.61058 94.0108 4.76846 94.4022Z" fill="#CC45FF"/>
<path d="M4.76846 63.0858C6.92635 63.4773 8.49574 65.6303 8.1034 67.7833C7.71106 69.9363 5.55312 71.5022 3.39524 71.1107C1.23735 70.7193 -0.332041 68.5663 0.0603013 66.4133C0.452644 64.0645 2.61058 62.4986 4.76846 63.0858Z" fill="#CC45FF"/>
<path d="M4.76846 31.573C6.92635 31.9645 8.49574 34.1176 8.1034 36.2706C7.71106 38.4236 5.55312 39.9895 3.39524 39.598C1.23735 39.2066 -0.332041 37.0535 0.0603013 34.9005C0.452644 32.5517 2.61058 31.1816 4.76846 31.573Z" fill="#CC45FF"/>
<path d="M4.76846 0.0604396C6.92635 0.4519 8.49574 2.60498 8.1034 4.75802C7.71106 6.91105 5.55312 8.4768 3.39524 8.08534C1.23735 7.69388 -0.332041 5.54092 0.0603013 3.38788C0.452644 1.23485 2.61058 -0.331021 4.76846 0.0604396Z" fill="#CC45FF"/>
<path d="M31.2509 125.915C33.4088 126.306 34.9782 128.459 34.5858 130.612C34.1935 132.765 32.0355 134.331 29.8777 133.94C27.7198 133.548 26.1504 131.395 26.5427 129.242C26.9351 126.893 29.093 125.523 31.2509 125.915Z" fill="#CC45FF"/>
<path d="M31.2509 94.4022C33.4088 94.7937 34.9782 96.9467 34.5858 99.0997C34.1935 101.253 32.0355 102.819 29.8777 102.427C27.7198 102.036 26.1504 99.8827 26.5427 97.7297C26.9351 95.5766 29.093 94.0108 31.2509 94.4022Z" fill="#CC45FF"/>
<path d="M31.2509 63.0858C33.4088 63.4773 34.9782 65.6303 34.5858 67.7833C34.1935 69.9363 32.0355 71.5022 29.8777 71.1107C27.7198 70.7193 26.1504 68.5663 26.5427 66.4133C26.9351 64.0645 29.093 62.4986 31.2509 63.0858Z" fill="#CC45FF"/>
<path d="M31.2509 31.573C33.4088 31.9645 34.9782 34.1176 34.5858 36.2706C34.1935 38.4236 32.0355 39.9895 29.8777 39.598C27.7198 39.2066 26.1504 37.0535 26.5427 34.9005C26.9351 32.5517 29.093 31.1816 31.2509 31.573Z" fill="#CC45FF"/>
<path d="M31.2509 0.0604396C33.4088 0.4519 34.9782 2.60498 34.5858 4.75802C34.1935 6.91105 32.0355 8.4768 29.8777 8.08534C27.7198 7.69388 26.1504 5.54092 26.5427 3.38788C26.9351 1.23485 29.093 -0.331021 31.2509 0.0604396Z" fill="#CC45FF"/>
<path d="M57.9305 125.915C60.0883 126.306 61.6577 128.459 61.2654 130.612C60.873 132.765 58.7151 134.331 56.5572 133.94C54.3993 133.548 52.8301 131.395 53.2224 129.242C53.6148 126.893 55.5764 125.523 57.9305 125.915Z" fill="#CC45FF"/>
<path d="M57.9305 94.4022C60.0883 94.7937 61.6577 96.9467 61.2654 99.0997C60.873 101.253 58.7151 102.819 56.5572 102.427C54.3993 102.036 52.8301 99.8827 53.2224 97.7297C53.6148 95.5766 55.5764 94.0108 57.9305 94.4022Z" fill="#CC45FF"/>
<path d="M57.9305 63.0858C60.0883 63.4773 61.6577 65.6303 61.2654 67.7833C60.873 69.9363 58.7151 71.5022 56.5572 71.1107C54.3993 70.7193 52.8301 68.5663 53.2224 66.4133C53.6148 64.0645 55.5764 62.4986 57.9305 63.0858Z" fill="#CC45FF"/>
<path d="M57.9305 31.573C60.0883 31.9645 61.6577 34.1176 61.2654 36.2706C60.873 38.4236 58.7151 39.9895 56.5572 39.598C54.3993 39.2066 52.8301 37.0535 53.2224 34.9005C53.6148 32.5517 55.5764 31.1816 57.9305 31.573Z" fill="#CC45FF"/>
<path d="M57.9305 0.0604396C60.0883 0.4519 61.6577 2.60498 61.2654 4.75802C60.873 6.91105 58.7151 8.4768 56.5572 8.08534C54.3993 7.69388 52.8301 5.54092 53.2224 3.38788C53.6148 1.23485 55.5764 -0.331021 57.9305 0.0604396Z" fill="#CC45FF"/>
<path d="M84.4148 125.915C86.5727 126.306 88.1421 128.459 87.7498 130.612C87.3574 132.765 85.1995 134.331 83.0416 133.94C80.8837 133.548 79.3144 131.395 79.7068 129.242C80.0991 126.893 82.2569 125.523 84.4148 125.915Z" fill="#CC45FF"/>
<path d="M84.4148 94.4022C86.5727 94.7937 88.1421 96.9467 87.7498 99.0997C87.3574 101.253 85.1995 102.819 83.0416 102.427C80.8837 102.036 79.3144 99.8827 79.7068 97.7297C80.0991 95.5766 82.2569 94.0108 84.4148 94.4022Z" fill="#CC45FF"/>
<path d="M84.4148 63.0858C86.5727 63.4773 88.1421 65.6303 87.7498 67.7833C87.3574 69.9363 85.1995 71.5022 83.0416 71.1107C80.8837 70.7193 79.3144 68.5663 79.7068 66.4133C80.0991 64.0645 82.2569 62.4986 84.4148 63.0858Z" fill="#CC45FF"/>
<path d="M84.4148 31.573C86.5727 31.9645 88.1421 34.1176 87.7498 36.2706C87.3574 38.4236 85.1995 39.9895 83.0416 39.598C80.8837 39.2066 79.3144 37.0535 79.7068 34.9005C80.0991 32.5517 82.2569 31.1816 84.4148 31.573Z" fill="#CC45FF"/>
<path d="M84.4148 0.0604396C86.5727 0.4519 88.1421 2.60498 87.7498 4.75802C87.3574 6.91105 85.1995 8.4768 83.0416 8.08534C80.8837 7.69388 79.3144 5.54092 79.7068 3.38788C80.0991 1.23485 82.2569 -0.331021 84.4148 0.0604396Z" fill="#CC45FF"/>
<path d="M110.897 125.915C113.055 126.306 114.625 128.459 114.232 130.612C113.84 132.765 111.682 134.331 109.524 133.94C107.366 133.548 105.797 131.395 106.189 129.242C106.582 126.893 108.739 125.523 110.897 125.915Z" fill="#CC45FF"/>
<path d="M110.897 94.4022C113.055 94.7937 114.625 96.9467 114.232 99.0997C113.84 101.253 111.682 102.819 109.524 102.427C107.366 102.036 105.797 99.8827 106.189 97.7297C106.582 95.5766 108.739 94.0108 110.897 94.4022Z" fill="#CC45FF"/>
<path d="M110.897 63.0858C113.055 63.4773 114.625 65.6303 114.232 67.7833C113.84 69.9363 111.682 71.5022 109.524 71.1107C107.366 70.7193 105.797 68.5663 106.189 66.4133C106.582 64.0645 108.739 62.4986 110.897 63.0858Z" fill="#CC45FF"/>
<path d="M110.897 31.573C113.055 31.9645 114.625 34.1176 114.232 36.2706C113.84 38.4236 111.682 39.9895 109.524 39.598C107.366 39.2066 105.797 37.0535 106.189 34.9005C106.582 32.5517 108.739 31.1816 110.897 31.573Z" fill="#CC45FF"/>
<path d="M110.897 0.0604396C113.055 0.4519 114.625 2.60498 114.232 4.75802C113.84 6.91105 111.682 8.4768 109.524 8.08534C107.366 7.69388 105.797 5.54092 106.189 3.38788C106.582 1.23485 108.739 -0.331021 110.897 0.0604396Z" fill="#CC45FF"/>
<path d="M137.577 125.915C139.735 126.306 141.304 128.459 140.912 130.612C140.52 132.765 138.362 134.331 136.204 133.94C134.046 133.548 132.477 131.395 132.869 129.242C133.065 126.893 135.223 125.523 137.577 125.915Z" fill="#CC45FF"/>
<path d="M137.577 94.4022C139.735 94.7937 141.304 96.9467 140.912 99.0997C140.52 101.253 138.362 102.819 136.204 102.427C134.046 102.036 132.477 99.8827 132.869 97.7297C133.065 95.5766 135.223 94.0108 137.577 94.4022Z" fill="#CC45FF"/>
<path d="M137.577 63.0858C139.735 63.4773 141.304 65.6303 140.912 67.7833C140.52 69.9363 138.362 71.5022 136.204 71.1107C134.046 70.7193 132.477 68.5663 132.869 66.4133C133.065 64.0645 135.223 62.4986 137.577 63.0858Z" fill="#CC45FF"/>
<path d="M137.577 31.573C139.735 31.9645 141.304 34.1176 140.912 36.2706C140.52 38.4236 138.362 39.9895 136.204 39.598C134.046 39.2066 132.477 37.0535 132.869 34.9005C133.065 32.5517 135.223 31.1816 137.577 31.573Z" fill="#CC45FF"/>
<path d="M137.577 0.0604396C139.735 0.4519 141.304 2.60498 140.912 4.75802C140.52 6.91105 138.362 8.4768 136.204 8.08534C134.046 7.69388 132.477 5.54092 132.869 3.38788C133.065 1.23485 135.223 -0.331021 137.577 0.0604396Z" fill="#CC45FF"/>
<path d="M164.059 125.915C166.217 126.306 167.787 128.459 167.394 130.612C167.002 132.765 164.844 134.331 162.686 133.94C160.528 133.548 158.959 131.395 159.351 129.242C159.744 126.893 161.902 125.523 164.059 125.915Z" fill="#CC45FF"/>
<path d="M164.059 94.4022C166.217 94.7937 167.787 96.9467 167.394 99.0997C167.002 101.253 164.844 102.819 162.686 102.427C160.528 102.036 158.959 99.8827 159.351 97.7297C159.744 95.5766 161.902 94.0108 164.059 94.4022Z" fill="#CC45FF"/>
<path d="M164.059 63.0858C166.217 63.4773 167.787 65.6303 167.394 67.7833C167.002 69.9363 164.844 71.5022 162.686 71.1107C160.528 70.7193 158.959 68.5663 159.351 66.4133C159.744 64.0645 161.902 62.4986 164.059 63.0858Z" fill="#CC45FF"/>
<path d="M164.059 31.573C166.217 31.9645 167.787 34.1176 167.394 36.2706C167.002 38.4236 164.844 39.9895 162.686 39.598C160.528 39.2066 158.959 37.0535 159.351 34.9005C159.744 32.5517 161.902 31.1816 164.059 31.573Z" fill="#CC45FF"/>
<path d="M164.059 0.0604396C166.217 0.4519 167.787 2.60498 167.394 4.75802C167.002 6.91105 164.844 8.4768 162.686 8.08534C160.528 7.69388 158.959 5.54092 159.351 3.38788C159.744 1.23485 161.902 -0.331021 164.059 0.0604396Z" fill="#CC45FF"/>
<path d="M190.542 125.915C192.7 126.306 194.269 128.459 193.877 130.612C193.484 132.765 191.327 134.331 189.169 133.94C187.011 133.548 185.441 131.395 185.834 129.242C186.226 126.893 188.384 125.523 190.542 125.915Z" fill="#CC45FF"/>
<path d="M190.542 94.4022C192.7 94.7937 194.269 96.9467 193.877 99.0997C193.484 101.253 191.327 102.819 189.169 102.427C187.011 102.036 185.441 99.8827 185.834 97.7297C186.226 95.5766 188.384 94.0108 190.542 94.4022Z" fill="#CC45FF"/>
<path d="M190.542 63.0858C192.7 63.4773 194.269 65.6303 193.877 67.7833C193.484 69.9363 191.327 71.5022 189.169 71.1107C187.011 70.7193 185.441 68.5663 185.834 66.4133C186.226 64.0645 188.384 62.4986 190.542 63.0858Z" fill="#CC45FF"/>
<path d="M190.542 31.573C192.7 31.9645 194.269 34.1176 193.877 36.2706C193.484 38.4236 191.327 39.9895 189.169 39.598C187.011 39.2066 185.441 37.0535 185.834 34.9005C186.226 32.5517 188.384 31.1816 190.542 31.573Z" fill="#CC45FF"/>
<path d="M190.542 0.0604396C192.7 0.4519 194.269 2.60498 193.877 4.75802C193.484 6.91105 191.327 8.4768 189.169 8.08534C187.011 7.69388 185.441 5.54092 185.834 3.38788C186.226 1.23485 188.384 -0.331021 190.542 0.0604396Z" fill="#CC45FF"/>
<path d="M217.026 125.915C219.184 126.306 220.753 128.459 220.361 130.612C219.969 132.765 217.811 134.331 215.653 133.94C213.495 133.548 211.926 131.395 212.318 129.242C212.71 126.893 214.868 125.523 217.026 125.915Z" fill="#CC45FF"/>
<path d="M220.558 98.5126C220.558 96.2426 218.713 94.4023 216.438 94.4023C214.163 94.4023 212.318 96.2426 212.318 98.5126C212.318 100.783 214.163 102.623 216.438 102.623C218.713 102.623 220.558 100.783 220.558 98.5126Z" fill="#CC45FF"/>
<path d="M220.478 66.5179C220.171 64.2687 218.095 62.6938 215.84 63.0002C213.586 63.3067 212.008 65.3785 212.315 67.6277C212.622 69.8769 214.698 71.4518 216.953 71.1453C219.207 70.8388 220.786 68.7671 220.478 66.5179Z" fill="#CC45FF"/>
<path d="M217.026 31.573C219.184 31.9645 220.753 34.1176 220.361 36.2706C219.969 38.4236 217.811 39.9895 215.653 39.598C213.495 39.2066 211.926 37.0535 212.318 34.9005C212.71 32.5517 214.868 31.1816 217.026 31.573Z" fill="#CC45FF"/>
<path d="M217.026 0.0604396C219.184 0.4519 220.753 2.60498 220.361 4.75802C219.969 6.91105 217.811 8.4768 215.653 8.08534C213.495 7.69388 211.926 5.54092 212.318 3.38788C212.71 1.23485 214.868 -0.331021 217.026 0.0604396Z" fill="#CC45FF"/>
<path d="M243.706 125.915C245.864 126.306 247.433 128.459 247.041 130.612C246.649 132.765 244.491 134.331 242.333 133.94C240.175 133.548 238.605 131.395 238.998 129.242C239.39 126.893 241.352 125.523 243.706 125.915Z" fill="#CC45FF"/>
<path d="M247.04 98.5126C247.04 96.2426 245.196 94.4023 242.92 94.4023C240.645 94.4023 238.801 96.2426 238.801 98.5126C238.801 100.783 240.645 102.623 242.92 102.623C245.196 102.623 247.04 100.783 247.04 98.5126Z" fill="#CC45FF"/>
<path d="M246.961 66.5267C246.654 64.2775 244.577 62.7026 242.323 63.009C240.069 63.3155 238.49 65.3873 238.797 67.6365C239.105 69.8857 241.181 71.4606 243.435 71.1541C245.689 70.8476 247.268 68.7759 246.961 66.5267Z" fill="#CC45FF"/>
<path d="M243.706 31.573C245.864 31.9645 247.433 34.1176 247.041 36.2706C246.649 38.4236 244.491 39.9895 242.333 39.598C240.175 39.2066 238.605 37.0535 238.998 34.9005C239.39 32.5517 241.352 31.1816 243.706 31.573Z" fill="#CC45FF"/>
<path d="M243.706 0.0604396C245.864 0.4519 247.433 2.60498 247.041 4.75802C246.649 6.91105 244.491 8.4768 242.333 8.08534C240.175 7.69388 238.605 5.54092 238.998 3.38788C239.39 1.23485 241.352 -0.331021 243.706 0.0604396Z" fill="#CC45FF"/>
<path d="M270.186 125.915C272.344 126.306 273.914 128.459 273.521 130.612C273.129 132.765 270.971 134.331 268.813 133.94C266.655 133.548 265.086 131.395 265.478 129.242C265.871 126.893 268.029 125.523 270.186 125.915Z" fill="#CC45FF"/>
<path d="M273.522 98.5126C273.522 96.2426 271.678 94.4023 269.403 94.4023C267.128 94.4023 265.283 96.2426 265.283 98.5126C265.283 100.783 267.128 102.623 269.403 102.623C271.678 102.623 273.522 100.783 273.522 98.5126Z" fill="#CC45FF"/>
<path d="M273.441 66.5345C273.134 64.2853 271.058 62.7104 268.803 63.0168C266.549 63.3233 264.971 65.3951 265.278 67.6443C265.585 69.8935 267.661 71.4684 269.916 71.1619C272.17 70.8554 273.748 68.7837 273.441 66.5345Z" fill="#CC45FF"/>
<path d="M270.186 31.573C272.344 31.9645 273.914 34.1176 273.521 36.2706C273.129 38.4236 270.971 39.9895 268.813 39.598C266.655 39.2066 265.086 37.0535 265.478 34.9005C265.871 32.5517 268.029 31.1816 270.186 31.573Z" fill="#CC45FF"/>
<path d="M270.186 0.0604396C272.344 0.4519 273.914 2.60498 273.521 4.75802C273.129 6.91105 270.971 8.4768 268.813 8.08534C266.655 7.69388 265.086 5.54092 265.478 3.38788C265.871 1.23485 268.029 -0.331021 270.186 0.0604396Z" fill="#CC45FF"/>
</svg>
