<svg width="275" height="134" viewBox="0 0 275 134" fill="none" xmlns="http://www.w3.org/2000/svg">
<path d="M5.76455 125.915C7.92244 126.306 9.49183 128.459 9.09949 130.612C8.70715 132.765 6.54922 134.331 4.39133 133.94C2.23345 133.548 0.664052 131.395 1.0564 129.242C1.44874 126.893 3.60667 125.523 5.76455 125.915Z" fill="#B4FF24"/>
<path d="M5.76455 94.4022C7.92244 94.7937 9.49183 96.9467 9.09949 99.0997C8.70715 101.253 6.54922 102.819 4.39133 102.427C2.23345 102.036 0.664052 99.8827 1.0564 97.7297C1.44874 95.5766 3.60667 94.0108 5.76455 94.4022Z" fill="#B4FF24"/>
<path d="M5.76455 63.0858C7.92244 63.4773 9.49183 65.6303 9.09949 67.7833C8.70715 69.9363 6.54922 71.5022 4.39133 71.1107C2.23345 70.7193 0.664052 68.5663 1.0564 66.4133C1.44874 64.0645 3.60667 62.4986 5.76455 63.0858Z" fill="#B4FF24"/>
<path d="M5.76455 31.573C7.92244 31.9645 9.49183 34.1176 9.09949 36.2706C8.70715 38.4236 6.54922 39.9895 4.39133 39.598C2.23345 39.2066 0.664052 37.0535 1.0564 34.9005C1.44874 32.5517 3.60667 31.1816 5.76455 31.573Z" fill="#B4FF24"/>
<path d="M5.76455 0.0604396C7.92244 0.4519 9.49183 2.60498 9.09949 4.75802C8.70715 6.91105 6.54922 8.4768 4.39133 8.08534C2.23345 7.69388 0.664052 5.54092 1.0564 3.38788C1.44874 1.23485 3.60667 -0.331021 5.76455 0.0604396Z" fill="#B4FF24"/>
<path d="M32.247 125.915C34.4049 126.306 35.9743 128.459 35.5819 130.612C35.1896 132.765 33.0316 134.331 30.8738 133.94C28.7159 133.548 27.1465 131.395 27.5388 129.242C27.9312 126.893 30.0891 125.523 32.247 125.915Z" fill="#B4FF24"/>
<path d="M32.247 94.4022C34.4049 94.7937 35.9743 96.9467 35.5819 99.0997C35.1896 101.253 33.0316 102.819 30.8738 102.427C28.7159 102.036 27.1465 99.8827 27.5388 97.7297C27.9312 95.5766 30.0891 94.0108 32.247 94.4022Z" fill="#B4FF24"/>
<path d="M32.247 63.0858C34.4049 63.4773 35.9743 65.6303 35.5819 67.7833C35.1896 69.9363 33.0316 71.5022 30.8738 71.1107C28.7159 70.7193 27.1465 68.5663 27.5388 66.4133C27.9312 64.0645 30.0891 62.4986 32.247 63.0858Z" fill="#B4FF24"/>
<path d="M32.247 31.573C34.4049 31.9645 35.9743 34.1176 35.5819 36.2706C35.1896 38.4236 33.0316 39.9895 30.8738 39.598C28.7159 39.2066 27.1465 37.0535 27.5388 34.9005C27.9312 32.5517 30.0891 31.1816 32.247 31.573Z" fill="#B4FF24"/>
<path d="M32.247 0.0604396C34.4049 0.4519 35.9743 2.60498 35.5819 4.75802C35.1896 6.91105 33.0316 8.4768 30.8738 8.08534C28.7159 7.69388 27.1465 5.54092 27.5388 3.38788C27.9312 1.23485 30.0891 -0.331021 32.247 0.0604396Z" fill="#B4FF24"/>
<path d="M58.9265 125.915C61.0844 126.306 62.6538 128.459 62.2615 130.612C61.8691 132.765 59.7112 134.331 57.5533 133.94C55.3954 133.548 53.8262 131.395 54.2185 129.242C54.6109 126.893 56.5725 125.523 58.9265 125.915Z" fill="#B4FF24"/>
<path d="M58.9265 94.4022C61.0844 94.7937 62.6538 96.9467 62.2615 99.0997C61.8691 101.253 59.7112 102.819 57.5533 102.427C55.3954 102.036 53.8262 99.8827 54.2185 97.7297C54.6109 95.5766 56.5725 94.0108 58.9265 94.4022Z" fill="#B4FF24"/>
<path d="M58.9265 63.0858C61.0844 63.4773 62.6538 65.6303 62.2615 67.7833C61.8691 69.9363 59.7112 71.5022 57.5533 71.1107C55.3954 70.7193 53.8262 68.5663 54.2185 66.4133C54.6109 64.0645 56.5725 62.4986 58.9265 63.0858Z" fill="#B4FF24"/>
<path d="M58.9265 31.573C61.0844 31.9645 62.6538 34.1176 62.2615 36.2706C61.8691 38.4236 59.7112 39.9895 57.5533 39.598C55.3954 39.2066 53.8262 37.0535 54.2185 34.9005C54.6109 32.5517 56.5725 31.1816 58.9265 31.573Z" fill="#B4FF24"/>
<path d="M58.9265 0.0604396C61.0844 0.4519 62.6538 2.60498 62.2615 4.75802C61.8691 6.91105 59.7112 8.4768 57.5533 8.08534C55.3954 7.69388 53.8262 5.54092 54.2185 3.38788C54.6109 1.23485 56.5725 -0.331021 58.9265 0.0604396Z" fill="#B4FF24"/>
<path d="M85.4109 125.915C87.5688 126.306 89.1382 128.459 88.7459 130.612C88.3535 132.765 86.1956 134.331 84.0377 133.94C81.8798 133.548 80.3105 131.395 80.7029 129.242C81.0952 126.893 83.253 125.523 85.4109 125.915Z" fill="#B4FF24"/>
<path d="M85.4109 94.4022C87.5688 94.7937 89.1382 96.9467 88.7459 99.0997C88.3535 101.253 86.1956 102.819 84.0377 102.427C81.8798 102.036 80.3105 99.8827 80.7029 97.7297C81.0952 95.5766 83.253 94.0108 85.4109 94.4022Z" fill="#B4FF24"/>
<path d="M85.4109 63.0858C87.5688 63.4773 89.1382 65.6303 88.7459 67.7833C88.3535 69.9363 86.1956 71.5022 84.0377 71.1107C81.8798 70.7193 80.3105 68.5663 80.7029 66.4133C81.0952 64.0645 83.253 62.4986 85.4109 63.0858Z" fill="#B4FF24"/>
<path d="M85.4109 31.573C87.5688 31.9645 89.1382 34.1176 88.7459 36.2706C88.3535 38.4236 86.1956 39.9895 84.0377 39.598C81.8798 39.2066 80.3105 37.0535 80.7029 34.9005C81.0952 32.5517 83.253 31.1816 85.4109 31.573Z" fill="#B4FF24"/>
<path d="M85.4109 0.0604396C87.5688 0.4519 89.1382 2.60498 88.7459 4.75802C88.3535 6.91105 86.1956 8.4768 84.0377 8.08534C81.8798 7.69388 80.3105 5.54092 80.7029 3.38788C81.0952 1.23485 83.253 -0.331021 85.4109 0.0604396Z" fill="#B4FF24"/>
<path d="M111.893 125.915C114.051 126.306 115.621 128.459 115.228 130.612C114.836 132.765 112.678 134.331 110.52 133.94C108.362 133.548 106.793 131.395 107.185 129.242C107.578 126.893 109.735 125.523 111.893 125.915Z" fill="#B4FF24"/>
<path d="M111.893 94.4022C114.051 94.7937 115.621 96.9467 115.228 99.0997C114.836 101.253 112.678 102.819 110.52 102.427C108.362 102.036 106.793 99.8827 107.185 97.7297C107.578 95.5766 109.735 94.0108 111.893 94.4022Z" fill="#B4FF24"/>
<path d="M111.893 63.0858C114.051 63.4773 115.621 65.6303 115.228 67.7833C114.836 69.9363 112.678 71.5022 110.52 71.1107C108.362 70.7193 106.793 68.5663 107.185 66.4133C107.578 64.0645 109.735 62.4986 111.893 63.0858Z" fill="#B4FF24"/>
<path d="M111.893 31.573C114.051 31.9645 115.621 34.1176 115.228 36.2706C114.836 38.4236 112.678 39.9895 110.52 39.598C108.362 39.2066 106.793 37.0535 107.185 34.9005C107.578 32.5517 109.735 31.1816 111.893 31.573Z" fill="#B4FF24"/>
<path d="M111.893 0.0604396C114.051 0.4519 115.621 2.60498 115.228 4.75802C114.836 6.91105 112.678 8.4768 110.52 8.08534C108.362 7.69388 106.793 5.54092 107.185 3.38788C107.578 1.23485 109.735 -0.331021 111.893 0.0604396Z" fill="#B4FF24"/>
<path d="M138.573 125.915C140.731 126.306 142.3 128.459 141.908 130.612C141.516 132.765 139.358 134.331 137.2 133.94C135.042 133.548 133.473 131.395 133.865 129.242C134.061 126.893 136.219 125.523 138.573 125.915Z" fill="#B4FF24"/>
<path d="M138.573 94.4022C140.731 94.7937 142.3 96.9467 141.908 99.0997C141.516 101.253 139.358 102.819 137.2 102.427C135.042 102.036 133.473 99.8827 133.865 97.7297C134.061 95.5766 136.219 94.0108 138.573 94.4022Z" fill="#B4FF24"/>
<path d="M138.573 63.0858C140.731 63.4773 142.3 65.6303 141.908 67.7833C141.516 69.9363 139.358 71.5022 137.2 71.1107C135.042 70.7193 133.473 68.5663 133.865 66.4133C134.061 64.0645 136.219 62.4986 138.573 63.0858Z" fill="#B4FF24"/>
<path d="M138.573 31.573C140.731 31.9645 142.3 34.1176 141.908 36.2706C141.516 38.4236 139.358 39.9895 137.2 39.598C135.042 39.2066 133.473 37.0535 133.865 34.9005C134.061 32.5517 136.219 31.1816 138.573 31.573Z" fill="#B4FF24"/>
<path d="M138.573 0.0604396C140.731 0.4519 142.3 2.60498 141.908 4.75802C141.516 6.91105 139.358 8.4768 137.2 8.08534C135.042 7.69388 133.473 5.54092 133.865 3.38788C134.061 1.23485 136.219 -0.331021 138.573 0.0604396Z" fill="#B4FF24"/>
<path d="M165.056 125.915C167.213 126.306 168.783 128.459 168.39 130.612C167.998 132.765 165.84 134.331 163.682 133.94C161.524 133.548 159.955 131.395 160.347 129.242C160.74 126.893 162.898 125.523 165.056 125.915Z" fill="#B4FF24"/>
<path d="M165.056 94.4022C167.213 94.7937 168.783 96.9467 168.39 99.0997C167.998 101.253 165.84 102.819 163.682 102.427C161.524 102.036 159.955 99.8827 160.347 97.7297C160.74 95.5766 162.898 94.0108 165.056 94.4022Z" fill="#B4FF24"/>
<path d="M165.056 63.0858C167.213 63.4773 168.783 65.6303 168.39 67.7833C167.998 69.9363 165.84 71.5022 163.682 71.1107C161.524 70.7193 159.955 68.5663 160.347 66.4133C160.74 64.0645 162.898 62.4986 165.056 63.0858Z" fill="#B4FF24"/>
<path d="M165.056 31.573C167.213 31.9645 168.783 34.1176 168.39 36.2706C167.998 38.4236 165.84 39.9895 163.682 39.598C161.524 39.2066 159.955 37.0535 160.347 34.9005C160.74 32.5517 162.898 31.1816 165.056 31.573Z" fill="#B4FF24"/>
<path d="M165.056 0.0604396C167.213 0.4519 168.783 2.60498 168.39 4.75802C167.998 6.91105 165.84 8.4768 163.682 8.08534C161.524 7.69388 159.955 5.54092 160.347 3.38788C160.74 1.23485 162.898 -0.331021 165.056 0.0604396Z" fill="#B4FF24"/>
<path d="M191.538 125.915C193.696 126.306 195.265 128.459 194.873 130.612C194.48 132.765 192.323 134.331 190.165 133.94C188.007 133.548 186.437 131.395 186.83 129.242C187.222 126.893 189.38 125.523 191.538 125.915Z" fill="#B4FF24"/>
<path d="M191.538 94.4022C193.696 94.7937 195.265 96.9467 194.873 99.0997C194.48 101.253 192.323 102.819 190.165 102.427C188.007 102.036 186.437 99.8827 186.83 97.7297C187.222 95.5766 189.38 94.0108 191.538 94.4022Z" fill="#B4FF24"/>
<path d="M191.538 63.0858C193.696 63.4773 195.265 65.6303 194.873 67.7833C194.48 69.9363 192.323 71.5022 190.165 71.1107C188.007 70.7193 186.437 68.5663 186.83 66.4133C187.222 64.0645 189.38 62.4986 191.538 63.0858Z" fill="#B4FF24"/>
<path d="M191.538 31.573C193.696 31.9645 195.265 34.1176 194.873 36.2706C194.48 38.4236 192.323 39.9895 190.165 39.598C188.007 39.2066 186.437 37.0535 186.83 34.9005C187.222 32.5517 189.38 31.1816 191.538 31.573Z" fill="#B4FF24"/>
<path d="M191.538 0.0604396C193.696 0.4519 195.265 2.60498 194.873 4.75802C194.48 6.91105 192.323 8.4768 190.165 8.08534C188.007 7.69388 186.437 5.54092 186.83 3.38788C187.222 1.23485 189.38 -0.331021 191.538 0.0604396Z" fill="#B4FF24"/>
<path d="M218.022 125.915C220.18 126.306 221.75 128.459 221.357 130.612C220.965 132.765 218.807 134.331 216.649 133.94C214.491 133.548 212.922 131.395 213.314 129.242C213.707 126.893 215.864 125.523 218.022 125.915Z" fill="#B4FF24"/>
<path d="M221.554 98.5126C221.554 96.2426 219.709 94.4023 217.434 94.4023C215.159 94.4023 213.314 96.2426 213.314 98.5126C213.314 100.783 215.159 102.623 217.434 102.623C219.709 102.623 221.554 100.783 221.554 98.5126Z" fill="#B4FF24"/>
<path d="M221.474 66.5179C221.167 64.2687 219.091 62.6938 216.837 63.0002C214.582 63.3067 213.004 65.3785 213.311 67.6277C213.618 69.8769 215.695 71.4518 217.949 71.1453C220.203 70.8388 221.782 68.7671 221.474 66.5179Z" fill="#B4FF24"/>
<path d="M218.022 31.573C220.18 31.9645 221.75 34.1176 221.357 36.2706C220.965 38.4236 218.807 39.9895 216.649 39.598C214.491 39.2066 212.922 37.0535 213.314 34.9005C213.707 32.5517 215.864 31.1816 218.022 31.573Z" fill="#B4FF24"/>
<path d="M218.022 0.0604396C220.18 0.4519 221.75 2.60498 221.357 4.75802C220.965 6.91105 218.807 8.4768 216.649 8.08534C214.491 7.69388 212.922 5.54092 213.314 3.38788C213.707 1.23485 215.864 -0.331021 218.022 0.0604396Z" fill="#B4FF24"/>
<path d="M244.702 125.915C246.86 126.306 248.429 128.459 248.037 130.612C247.645 132.765 245.487 134.331 243.329 133.94C241.171 133.548 239.602 131.395 239.994 129.242C240.386 126.893 242.348 125.523 244.702 125.915Z" fill="#B4FF24"/>
<path d="M248.036 98.5126C248.036 96.2426 246.192 94.4023 243.916 94.4023C241.641 94.4023 239.797 96.2426 239.797 98.5126C239.797 100.783 241.641 102.623 243.916 102.623C246.192 102.623 248.036 100.783 248.036 98.5126Z" fill="#B4FF24"/>
<path d="M247.957 66.5267C247.65 64.2775 245.573 62.7026 243.319 63.009C241.065 63.3155 239.486 65.3873 239.793 67.6365C240.101 69.8857 242.177 71.4606 244.431 71.1541C246.686 70.8476 248.264 68.7759 247.957 66.5267Z" fill="#B4FF24"/>
<path d="M244.702 31.573C246.86 31.9645 248.429 34.1176 248.037 36.2706C247.645 38.4236 245.487 39.9895 243.329 39.598C241.171 39.2066 239.602 37.0535 239.994 34.9005C240.386 32.5517 242.348 31.1816 244.702 31.573Z" fill="#B4FF24"/>
<path d="M244.702 0.0604396C246.86 0.4519 248.429 2.60498 248.037 4.75802C247.645 6.91105 245.487 8.4768 243.329 8.08534C241.171 7.69388 239.602 5.54092 239.994 3.38788C240.386 1.23485 242.348 -0.331021 244.702 0.0604396Z" fill="#B4FF24"/>
<path d="M271.183 125.915C273.34 126.306 274.91 128.459 274.517 130.612C274.125 132.765 271.967 134.331 269.809 133.94C267.651 133.548 266.082 131.395 266.474 129.242C266.867 126.893 269.025 125.523 271.183 125.915Z" fill="#B4FF24"/>
<path d="M274.519 98.5126C274.519 96.2426 272.674 94.4023 270.399 94.4023C268.124 94.4023 266.279 96.2426 266.279 98.5126C266.279 100.783 268.124 102.623 270.399 102.623C272.674 102.623 274.519 100.783 274.519 98.5126Z" fill="#B4FF24"/>
<path d="M274.437 66.5345C274.13 64.2853 272.054 62.7104 269.799 63.0168C267.545 63.3233 265.967 65.3951 266.274 67.6443C266.581 69.8935 268.657 71.4684 270.912 71.1619C273.166 70.8554 274.745 68.7837 274.437 66.5345Z" fill="#B4FF24"/>
<path d="M271.183 31.573C273.34 31.9645 274.91 34.1176 274.517 36.2706C274.125 38.4236 271.967 39.9895 269.809 39.598C267.651 39.2066 266.082 37.0535 266.474 34.9005C266.867 32.5517 269.025 31.1816 271.183 31.573Z" fill="#B4FF24"/>
<path d="M271.183 0.0604396C273.34 0.4519 274.91 2.60498 274.517 4.75802C274.125 6.91105 271.967 8.4768 269.809 8.08534C267.651 7.69388 266.082 5.54092 266.474 3.38788C266.867 1.23485 269.025 -0.331021 271.183 0.0604396Z" fill="#B4FF24"/>
</svg>
