<svg width="275" height="134" viewBox="0 0 275 134" fill="none" xmlns="http://www.w3.org/2000/svg">
<path d="M5.76651 125.915C7.92439 126.306 9.49379 128.459 9.10144 130.612C8.7091 132.765 6.55117 134.331 4.39328 133.94C2.2354 133.548 0.666006 131.395 1.05835 129.242C1.45069 126.893 3.60862 125.523 5.76651 125.915Z" fill="#9D99FF"/>
<path d="M5.76651 94.4022C7.92439 94.7937 9.49379 96.9467 9.10144 99.0997C8.7091 101.253 6.55117 102.819 4.39328 102.427C2.2354 102.036 0.666006 99.8827 1.05835 97.7297C1.45069 95.5766 3.60862 94.0108 5.76651 94.4022Z" fill="#9D99FF"/>
<path d="M5.76651 63.0858C7.92439 63.4773 9.49379 65.6303 9.10144 67.7833C8.7091 69.9363 6.55117 71.5022 4.39328 71.1107C2.2354 70.7193 0.666006 68.5663 1.05835 66.4133C1.45069 64.0645 3.60862 62.4986 5.76651 63.0858Z" fill="#9D99FF"/>
<path d="M5.76651 31.573C7.92439 31.9645 9.49379 34.1176 9.10144 36.2706C8.7091 38.4236 6.55117 39.9895 4.39328 39.598C2.2354 39.2066 0.666006 37.0535 1.05835 34.9005C1.45069 32.5517 3.60862 31.1816 5.76651 31.573Z" fill="#9D99FF"/>
<path d="M5.76651 0.0604396C7.92439 0.4519 9.49379 2.60498 9.10144 4.75802C8.7091 6.91105 6.55117 8.4768 4.39328 8.08534C2.2354 7.69388 0.666006 5.54092 1.05835 3.38788C1.45069 1.23485 3.60862 -0.331021 5.76651 0.0604396Z" fill="#9D99FF"/>
<path d="M32.2489 125.915C34.4068 126.306 35.9762 128.459 35.5839 130.612C35.1915 132.765 33.0336 134.331 30.8757 133.94C28.7178 133.548 27.1484 131.395 27.5408 129.242C27.9331 126.893 30.091 125.523 32.2489 125.915Z" fill="#9D99FF"/>
<path d="M32.2489 94.4022C34.4068 94.7937 35.9762 96.9467 35.5839 99.0997C35.1915 101.253 33.0336 102.819 30.8757 102.427C28.7178 102.036 27.1484 99.8827 27.5408 97.7297C27.9331 95.5766 30.091 94.0108 32.2489 94.4022Z" fill="#9D99FF"/>
<path d="M32.2489 63.0858C34.4068 63.4773 35.9762 65.6303 35.5839 67.7833C35.1915 69.9363 33.0336 71.5022 30.8757 71.1107C28.7178 70.7193 27.1484 68.5663 27.5408 66.4133C27.9331 64.0645 30.091 62.4986 32.2489 63.0858Z" fill="#9D99FF"/>
<path d="M32.2489 31.573C34.4068 31.9645 35.9762 34.1176 35.5839 36.2706C35.1915 38.4236 33.0336 39.9895 30.8757 39.598C28.7178 39.2066 27.1484 37.0535 27.5408 34.9005C27.9331 32.5517 30.091 31.1816 32.2489 31.573Z" fill="#9D99FF"/>
<path d="M32.2489 0.0604396C34.4068 0.4519 35.9762 2.60498 35.5839 4.75802C35.1915 6.91105 33.0336 8.4768 30.8757 8.08534C28.7178 7.69388 27.1484 5.54092 27.5408 3.38788C27.9331 1.23485 30.091 -0.331021 32.2489 0.0604396Z" fill="#9D99FF"/>
<path d="M58.9285 125.915C61.0864 126.306 62.6558 128.459 62.2634 130.612C61.8711 132.765 59.7132 134.331 57.5553 133.94C55.3974 133.548 53.8281 131.395 54.2205 129.242C54.6128 126.893 56.5744 125.523 58.9285 125.915Z" fill="#9D99FF"/>
<path d="M58.9285 94.4022C61.0864 94.7937 62.6558 96.9467 62.2634 99.0997C61.8711 101.253 59.7132 102.819 57.5553 102.427C55.3974 102.036 53.8281 99.8827 54.2205 97.7297C54.6128 95.5766 56.5744 94.0108 58.9285 94.4022Z" fill="#9D99FF"/>
<path d="M58.9285 63.0858C61.0864 63.4773 62.6558 65.6303 62.2634 67.7833C61.8711 69.9363 59.7132 71.5022 57.5553 71.1107C55.3974 70.7193 53.8281 68.5663 54.2205 66.4133C54.6128 64.0645 56.5744 62.4986 58.9285 63.0858Z" fill="#9D99FF"/>
<path d="M58.9285 31.573C61.0864 31.9645 62.6558 34.1176 62.2634 36.2706C61.8711 38.4236 59.7132 39.9895 57.5553 39.598C55.3974 39.2066 53.8281 37.0535 54.2205 34.9005C54.6128 32.5517 56.5744 31.1816 58.9285 31.573Z" fill="#9D99FF"/>
<path d="M58.9285 0.0604396C61.0864 0.4519 62.6558 2.60498 62.2634 4.75802C61.8711 6.91105 59.7132 8.4768 57.5553 8.08534C55.3974 7.69388 53.8281 5.54092 54.2205 3.38788C54.6128 1.23485 56.5744 -0.331021 58.9285 0.0604396Z" fill="#9D99FF"/>
<path d="M85.4129 125.915C87.5708 126.306 89.1402 128.459 88.7478 130.612C88.3555 132.765 86.1975 134.331 84.0397 133.94C81.8818 133.548 80.3125 131.395 80.7048 129.242C81.0972 126.893 83.255 125.523 85.4129 125.915Z" fill="#9D99FF"/>
<path d="M85.4129 94.4022C87.5708 94.7937 89.1402 96.9467 88.7478 99.0997C88.3555 101.253 86.1975 102.819 84.0397 102.427C81.8818 102.036 80.3125 99.8827 80.7048 97.7297C81.0972 95.5766 83.255 94.0108 85.4129 94.4022Z" fill="#9D99FF"/>
<path d="M85.4129 63.0858C87.5708 63.4773 89.1402 65.6303 88.7478 67.7833C88.3555 69.9363 86.1975 71.5022 84.0397 71.1107C81.8818 70.7193 80.3125 68.5663 80.7048 66.4133C81.0972 64.0645 83.255 62.4986 85.4129 63.0858Z" fill="#9D99FF"/>
<path d="M85.4129 31.573C87.5708 31.9645 89.1402 34.1176 88.7478 36.2706C88.3555 38.4236 86.1975 39.9895 84.0397 39.598C81.8818 39.2066 80.3125 37.0535 80.7048 34.9005C81.0972 32.5517 83.255 31.1816 85.4129 31.573Z" fill="#9D99FF"/>
<path d="M85.4129 0.0604396C87.5708 0.4519 89.1402 2.60498 88.7478 4.75802C88.3555 6.91105 86.1975 8.4768 84.0397 8.08534C81.8818 7.69388 80.3125 5.54092 80.7048 3.38788C81.0972 1.23485 83.255 -0.331021 85.4129 0.0604396Z" fill="#9D99FF"/>
<path d="M111.895 125.915C114.053 126.306 115.623 128.459 115.23 130.612C114.838 132.765 112.68 134.331 110.522 133.94C108.364 133.548 106.795 131.395 107.187 129.242C107.58 126.893 109.737 125.523 111.895 125.915Z" fill="#9D99FF"/>
<path d="M111.895 94.4022C114.053 94.7937 115.623 96.9467 115.23 99.0997C114.838 101.253 112.68 102.819 110.522 102.427C108.364 102.036 106.795 99.8827 107.187 97.7297C107.58 95.5766 109.737 94.0108 111.895 94.4022Z" fill="#9D99FF"/>
<path d="M111.895 63.0858C114.053 63.4773 115.623 65.6303 115.23 67.7833C114.838 69.9363 112.68 71.5022 110.522 71.1107C108.364 70.7193 106.795 68.5663 107.187 66.4133C107.58 64.0645 109.737 62.4986 111.895 63.0858Z" fill="#9D99FF"/>
<path d="M111.895 31.573C114.053 31.9645 115.623 34.1176 115.23 36.2706C114.838 38.4236 112.68 39.9895 110.522 39.598C108.364 39.2066 106.795 37.0535 107.187 34.9005C107.58 32.5517 109.737 31.1816 111.895 31.573Z" fill="#9D99FF"/>
<path d="M111.895 0.0604396C114.053 0.4519 115.623 2.60498 115.23 4.75802C114.838 6.91105 112.68 8.4768 110.522 8.08534C108.364 7.69388 106.795 5.54092 107.187 3.38788C107.58 1.23485 109.737 -0.331021 111.895 0.0604396Z" fill="#9D99FF"/>
<path d="M138.575 125.915C140.733 126.306 142.302 128.459 141.91 130.612C141.518 132.765 139.36 134.331 137.202 133.94C135.044 133.548 133.475 131.395 133.867 129.242C134.063 126.893 136.221 125.523 138.575 125.915Z" fill="#9D99FF"/>
<path d="M138.575 94.4022C140.733 94.7937 142.302 96.9467 141.91 99.0997C141.518 101.253 139.36 102.819 137.202 102.427C135.044 102.036 133.475 99.8827 133.867 97.7297C134.063 95.5766 136.221 94.0108 138.575 94.4022Z" fill="#9D99FF"/>
<path d="M138.575 63.0858C140.733 63.4773 142.302 65.6303 141.91 67.7833C141.518 69.9363 139.36 71.5022 137.202 71.1107C135.044 70.7193 133.475 68.5663 133.867 66.4133C134.063 64.0645 136.221 62.4986 138.575 63.0858Z" fill="#9D99FF"/>
<path d="M138.575 31.573C140.733 31.9645 142.302 34.1176 141.91 36.2706C141.518 38.4236 139.36 39.9895 137.202 39.598C135.044 39.2066 133.475 37.0535 133.867 34.9005C134.063 32.5517 136.221 31.1816 138.575 31.573Z" fill="#9D99FF"/>
<path d="M138.575 0.0604396C140.733 0.4519 142.302 2.60498 141.91 4.75802C141.518 6.91105 139.36 8.4768 137.202 8.08534C135.044 7.69388 133.475 5.54092 133.867 3.38788C134.063 1.23485 136.221 -0.331021 138.575 0.0604396Z" fill="#9D99FF"/>
<path d="M165.058 125.915C167.215 126.306 168.785 128.459 168.392 130.612C168 132.765 165.842 134.331 163.684 133.94C161.526 133.548 159.957 131.395 160.349 129.242C160.742 126.893 162.9 125.523 165.058 125.915Z" fill="#9D99FF"/>
<path d="M165.058 94.4022C167.215 94.7937 168.785 96.9467 168.392 99.0997C168 101.253 165.842 102.819 163.684 102.427C161.526 102.036 159.957 99.8827 160.349 97.7297C160.742 95.5766 162.9 94.0108 165.058 94.4022Z" fill="#9D99FF"/>
<path d="M165.058 63.0858C167.215 63.4773 168.785 65.6303 168.392 67.7833C168 69.9363 165.842 71.5022 163.684 71.1107C161.526 70.7193 159.957 68.5663 160.349 66.4133C160.742 64.0645 162.9 62.4986 165.058 63.0858Z" fill="#9D99FF"/>
<path d="M165.058 31.573C167.215 31.9645 168.785 34.1176 168.392 36.2706C168 38.4236 165.842 39.9895 163.684 39.598C161.526 39.2066 159.957 37.0535 160.349 34.9005C160.742 32.5517 162.9 31.1816 165.058 31.573Z" fill="#9D99FF"/>
<path d="M165.058 0.0604396C167.215 0.4519 168.785 2.60498 168.392 4.75802C168 6.91105 165.842 8.4768 163.684 8.08534C161.526 7.69388 159.957 5.54092 160.349 3.38788C160.742 1.23485 162.9 -0.331021 165.058 0.0604396Z" fill="#9D99FF"/>
<path d="M191.54 125.915C193.698 126.306 195.267 128.459 194.875 130.612C194.482 132.765 192.325 134.331 190.167 133.94C188.009 133.548 186.439 131.395 186.832 129.242C187.224 126.893 189.382 125.523 191.54 125.915Z" fill="#9D99FF"/>
<path d="M191.54 94.4022C193.698 94.7937 195.267 96.9467 194.875 99.0997C194.482 101.253 192.325 102.819 190.167 102.427C188.009 102.036 186.439 99.8827 186.832 97.7297C187.224 95.5766 189.382 94.0108 191.54 94.4022Z" fill="#9D99FF"/>
<path d="M191.54 63.0858C193.698 63.4773 195.267 65.6303 194.875 67.7833C194.482 69.9363 192.325 71.5022 190.167 71.1107C188.009 70.7193 186.439 68.5663 186.832 66.4133C187.224 64.0645 189.382 62.4986 191.54 63.0858Z" fill="#9D99FF"/>
<path d="M191.54 31.573C193.698 31.9645 195.267 34.1176 194.875 36.2706C194.482 38.4236 192.325 39.9895 190.167 39.598C188.009 39.2066 186.439 37.0535 186.832 34.9005C187.224 32.5517 189.382 31.1816 191.54 31.573Z" fill="#9D99FF"/>
<path d="M191.54 0.0604396C193.698 0.4519 195.267 2.60498 194.875 4.75802C194.482 6.91105 192.325 8.4768 190.167 8.08534C188.009 7.69388 186.439 5.54092 186.832 3.38788C187.224 1.23485 189.382 -0.331021 191.54 0.0604396Z" fill="#9D99FF"/>
<path d="M218.024 125.915C220.182 126.306 221.751 128.459 221.359 130.612C220.967 132.765 218.809 134.331 216.651 133.94C214.493 133.548 212.924 131.395 213.316 129.242C213.709 126.893 215.866 125.523 218.024 125.915Z" fill="#9D99FF"/>
<path d="M221.556 98.5126C221.556 96.2426 219.711 94.4023 217.436 94.4023C215.161 94.4023 213.316 96.2426 213.316 98.5126C213.316 100.783 215.161 102.623 217.436 102.623C219.711 102.623 221.556 100.783 221.556 98.5126Z" fill="#9D99FF"/>
<path d="M221.476 66.5179C221.169 64.2687 219.093 62.6938 216.838 63.0002C214.584 63.3067 213.006 65.3785 213.313 67.6277C213.62 69.8769 215.697 71.4518 217.951 71.1453C220.205 70.8388 221.784 68.7671 221.476 66.5179Z" fill="#9D99FF"/>
<path d="M218.024 31.573C220.182 31.9645 221.751 34.1176 221.359 36.2706C220.967 38.4236 218.809 39.9895 216.651 39.598C214.493 39.2066 212.924 37.0535 213.316 34.9005C213.709 32.5517 215.866 31.1816 218.024 31.573Z" fill="#9D99FF"/>
<path d="M218.024 0.0604396C220.182 0.4519 221.751 2.60498 221.359 4.75802C220.967 6.91105 218.809 8.4768 216.651 8.08534C214.493 7.69388 212.924 5.54092 213.316 3.38788C213.709 1.23485 215.866 -0.331021 218.024 0.0604396Z" fill="#9D99FF"/>
<path d="M244.704 125.915C246.862 126.306 248.431 128.459 248.039 130.612C247.647 132.765 245.489 134.331 243.331 133.94C241.173 133.548 239.604 131.395 239.996 129.242C240.388 126.893 242.35 125.523 244.704 125.915Z" fill="#9D99FF"/>
<path d="M248.038 98.5126C248.038 96.2426 246.194 94.4023 243.918 94.4023C241.643 94.4023 239.799 96.2426 239.799 98.5126C239.799 100.783 241.643 102.623 243.918 102.623C246.194 102.623 248.038 100.783 248.038 98.5126Z" fill="#9D99FF"/>
<path d="M247.959 66.5267C247.652 64.2775 245.575 62.7026 243.321 63.009C241.067 63.3155 239.488 65.3873 239.795 67.6365C240.103 69.8857 242.179 71.4606 244.433 71.1541C246.687 70.8476 248.266 68.7759 247.959 66.5267Z" fill="#9D99FF"/>
<path d="M244.704 31.573C246.862 31.9645 248.431 34.1176 248.039 36.2706C247.647 38.4236 245.489 39.9895 243.331 39.598C241.173 39.2066 239.604 37.0535 239.996 34.9005C240.388 32.5517 242.35 31.1816 244.704 31.573Z" fill="#9D99FF"/>
<path d="M244.704 0.0604396C246.862 0.4519 248.431 2.60498 248.039 4.75802C247.647 6.91105 245.489 8.4768 243.331 8.08534C241.173 7.69388 239.604 5.54092 239.996 3.38788C240.388 1.23485 242.35 -0.331021 244.704 0.0604396Z" fill="#9D99FF"/>
<path d="M271.183 125.915C273.34 126.306 274.91 128.459 274.517 130.612C274.125 132.765 271.967 134.331 269.809 133.94C267.651 133.548 266.082 131.395 266.474 129.242C266.867 126.893 269.025 125.523 271.183 125.915Z" fill="#9D99FF"/>
<path d="M274.519 98.5126C274.519 96.2426 272.674 94.4023 270.399 94.4023C268.124 94.4023 266.279 96.2426 266.279 98.5126C266.279 100.783 268.124 102.623 270.399 102.623C272.674 102.623 274.519 100.783 274.519 98.5126Z" fill="#9D99FF"/>
<path d="M274.437 66.5345C274.13 64.2853 272.054 62.7104 269.799 63.0168C267.545 63.3233 265.967 65.3951 266.274 67.6443C266.581 69.8935 268.657 71.4684 270.912 71.1619C273.166 70.8554 274.745 68.7837 274.437 66.5345Z" fill="#9D99FF"/>
<path d="M271.183 31.573C273.34 31.9645 274.91 34.1176 274.517 36.2706C274.125 38.4236 271.967 39.9895 269.809 39.598C267.651 39.2066 266.082 37.0535 266.474 34.9005C266.867 32.5517 269.025 31.1816 271.183 31.573Z" fill="#9D99FF"/>
<path d="M271.183 0.0604396C273.34 0.4519 274.91 2.60498 274.517 4.75802C274.125 6.91105 271.967 8.4768 269.809 8.08534C267.651 7.69388 266.082 5.54092 266.474 3.38788C266.867 1.23485 269.025 -0.331021 271.183 0.0604396Z" fill="#9D99FF"/>
</svg>
