<svg width="320" height="112" viewBox="0 0 320 112" fill="none" xmlns="http://www.w3.org/2000/svg">
<path fill-rule="evenodd" clip-rule="evenodd" d="M9.86481 11.7983L6.1322 8.06573L9.86481 4.33307C10.2203 3.9776 10.2203 3.62213 9.86481 3.2666C9.50934 2.91113 9.15387 2.91113 8.79834 3.2666L5.06573 6.99921L1.33307 3.2666C0.9776 2.91113 0.622131 2.91113 0.266602 3.2666C-0.0888672 3.62213 -0.0888672 3.9776 0.266602 4.33307L3.99927 8.06573L0.266602 11.7983C-0.0888672 12.1539 -0.0888672 12.5093 0.266602 12.8648C0.622131 13.2203 0.9776 13.2203 1.33307 12.8648L5.06573 9.1322L8.79834 12.8648C9.15387 13.2203 9.50934 13.2203 9.86481 12.8648C10.2203 12.6871 10.2203 12.1539 9.86481 11.7983ZM40.7921 11.7983L37.0594 8.06573L40.7921 4.33307C41.1476 3.9776 41.1476 3.62213 40.7921 3.2666C40.4366 2.91113 40.0811 2.91113 39.7256 3.2666L35.993 6.99921L32.2603 3.2666C31.9048 2.91113 31.5494 2.91113 31.1938 3.2666C30.8384 3.62213 30.8384 3.9776 31.1938 4.33307L34.9265 8.06573L31.1938 11.7983C30.8384 12.1539 30.8384 12.5093 31.1938 12.8648C31.5494 13.2203 31.9048 13.2203 32.2603 12.8648L35.993 9.1322L39.7256 12.8648C40.0811 13.2203 40.4366 13.2203 40.7921 12.8648C41.1476 12.6871 41.1476 12.1539 40.7921 11.7983ZM67.8094 8.06573L71.5421 11.7983C71.8976 12.1539 71.8976 12.6871 71.5421 12.8648C71.1866 13.2203 70.8311 13.2203 70.4756 12.8648L66.743 9.1322L63.0103 12.8648C62.6548 13.2203 62.2994 13.2203 61.9438 12.8648C61.5884 12.5093 61.5884 12.1539 61.9438 11.7983L65.6765 8.06573L61.9438 4.33307C61.5884 3.9776 61.5884 3.62213 61.9438 3.2666C62.2994 2.91113 62.6548 2.91113 63.0103 3.2666L66.743 6.99921L70.4756 3.2666C70.8311 2.91113 71.1866 2.91113 71.5421 3.2666C71.8976 3.62213 71.8976 3.9776 71.5421 4.33307L67.8094 8.06573ZM102.47 11.7983L98.7371 8.06573L102.47 4.33307C102.825 3.9776 102.825 3.62213 102.47 3.2666C102.114 2.91113 101.759 2.91113 101.403 3.2666L97.6707 6.99921L93.938 3.2666C93.5826 2.91113 93.2271 2.91113 92.8716 3.2666C92.5161 3.62213 92.5161 3.9776 92.8716 4.33307L96.6042 8.06573L92.8716 11.7983C92.5161 12.1539 92.5161 12.5093 92.8716 12.8648C93.2271 13.2203 93.5826 13.2203 93.938 12.8648L97.6707 9.1322L101.403 12.8648C101.759 13.2203 102.114 13.2203 102.47 12.8648C102.825 12.6871 102.825 12.1539 102.47 11.7983ZM129.665 8.06573L133.397 11.7983C133.753 12.1539 133.753 12.6871 133.397 12.8648C133.042 13.2203 132.686 13.2203 132.331 12.8648L128.598 9.1322L124.866 12.8648C124.51 13.2203 124.155 13.2203 123.799 12.8648C123.444 12.5093 123.444 12.1539 123.799 11.7983L127.532 8.06573L123.799 4.33307C123.444 3.9776 123.444 3.62213 123.799 3.2666C124.155 2.91113 124.51 2.91113 124.866 3.2666L128.598 6.99921L132.331 3.2666C132.686 2.91113 133.042 2.91113 133.397 3.2666C133.753 3.62213 133.753 3.9776 133.397 4.33307L129.665 8.06573ZM164.147 11.7983L160.414 8.06573L164.147 4.33307C164.503 3.9776 164.503 3.62213 164.147 3.2666C163.792 2.91113 163.436 2.91113 163.081 3.2666L159.348 6.99921L155.615 3.2666C155.26 2.91113 154.904 2.91113 154.549 3.2666C154.193 3.62213 154.193 3.9776 154.549 4.33307L158.281 8.06573L154.549 11.7983C154.193 12.1539 154.193 12.5093 154.549 12.8648C154.904 13.2203 155.26 13.2203 155.615 12.8648L159.348 9.1322L163.081 12.8648C163.436 13.2203 163.792 13.2203 164.147 12.8648C164.503 12.6871 164.503 12.1539 164.147 11.7983ZM191.342 8.06573L195.074 11.7983C195.43 12.1539 195.43 12.6871 195.074 12.8648C194.719 13.2203 194.363 13.2203 194.008 12.8648L190.275 9.1322L186.543 12.8648C186.187 13.2203 185.832 13.2203 185.476 12.8648C185.121 12.5093 185.121 12.1539 185.476 11.7983L189.209 8.06573L185.476 4.33307C185.121 3.9776 185.121 3.62213 185.476 3.2666C185.832 2.91113 186.187 2.91113 186.543 3.2666L190.275 6.99921L194.008 3.2666C194.363 2.91113 194.719 2.91113 195.074 3.2666C195.43 3.62213 195.43 3.9776 195.074 4.33307L191.342 8.06573ZM226.002 11.7983L222.27 8.06573L226.002 4.33307C226.358 3.9776 226.358 3.62213 226.002 3.2666C225.647 2.91113 225.291 2.91113 224.936 3.2666L221.203 6.99921L217.471 3.2666C217.115 2.91113 216.76 2.91113 216.404 3.2666C216.049 3.62213 216.049 3.9776 216.404 4.33307L220.137 8.06573L216.404 11.7983C216.049 12.1539 216.049 12.5093 216.404 12.8648C216.76 13.2203 217.115 13.2203 217.471 12.8648L221.203 9.1322L224.936 12.8648C225.291 13.2203 225.647 13.2203 226.002 12.8648C226.358 12.6871 226.358 12.1539 226.002 11.7983ZM253.019 8.06573L256.751 11.7983C257.107 12.1539 257.107 12.6871 256.751 12.8648C256.396 13.2203 256.041 13.2203 255.685 12.8648L251.953 9.1322L248.22 12.8648C247.864 13.2203 247.509 13.2203 247.153 12.8648C246.798 12.5093 246.798 12.1539 247.153 11.7983L250.886 8.06573L247.153 4.33307C246.798 3.9776 246.798 3.62213 247.153 3.2666C247.509 2.91113 247.864 2.91113 248.22 3.2666L251.953 6.99921L255.685 3.2666C256.041 2.91113 256.396 2.91113 256.751 3.2666C257.107 3.62213 257.107 3.9776 256.751 4.33307L253.019 8.06573ZM287.68 11.7983L283.947 8.06573L287.68 4.33307C288.035 3.9776 288.035 3.62213 287.68 3.2666C287.324 2.91113 286.969 2.91113 286.613 3.2666L282.88 6.99921L279.148 3.2666C278.792 2.91113 278.437 2.91113 278.081 3.2666C277.726 3.62213 277.726 3.9776 278.081 4.33307L281.814 8.06573L278.081 11.7983C277.726 12.1539 277.726 12.5093 278.081 12.8648C278.437 13.2203 278.792 13.2203 279.148 12.8648L282.88 9.1322L286.613 12.8648C286.969 13.2203 287.324 13.2203 287.68 12.8648C288.035 12.6871 288.035 12.1539 287.68 11.7983ZM314.874 8.06573L318.607 11.7983C318.962 12.1539 318.962 12.5093 318.607 12.8648C318.251 13.2203 317.896 13.2203 317.54 12.8648L313.808 9.1322L310.075 12.8648C309.719 13.2203 309.364 13.2203 309.009 12.8648C308.653 12.5093 308.653 12.1539 309.009 11.7983L312.741 8.06573L309.009 4.33307C308.653 3.9776 308.653 3.62213 309.009 3.2666C309.364 2.91113 309.719 2.91113 310.075 3.2666L313.808 6.99921L317.54 3.2666C317.896 2.91113 318.251 2.91113 318.607 3.2666C318.962 3.62213 318.962 3.9776 318.607 4.33307L314.874 8.06573ZM9.86481 36.5049L6.1322 32.7723L9.86481 29.0396C10.2203 28.6841 10.2203 28.3287 9.86481 27.9731C9.50934 27.6177 9.15387 27.6177 8.79834 27.9731L5.06573 31.7058L1.33307 27.9731C0.9776 27.6177 0.622131 27.6177 0.266602 27.9731C-0.0888672 28.3287 -0.0888672 28.6841 0.266602 29.0396L3.99927 32.7723L0.266602 36.5049C-0.0888672 36.8604 -0.0888672 37.2159 0.266602 37.5714C0.622131 37.9269 0.9776 37.9269 1.33307 37.5714L5.06573 33.8387L8.79834 37.5714C9.15387 37.9269 9.50934 37.9269 9.86481 37.5714C10.2203 37.2159 10.2203 36.6826 9.86481 36.5049ZM37.0594 32.7723L40.7921 36.5049C41.1476 36.6826 41.1476 37.2159 40.7921 37.5714C40.4366 37.9269 40.0811 37.9269 39.7256 37.5714L35.993 33.8387L32.2603 37.5714C31.9048 37.9269 31.5494 37.9269 31.1938 37.5714C30.8384 37.2159 30.8384 36.8604 31.1938 36.5049L34.9265 32.7723L31.1938 29.0396C30.8384 28.6841 30.8384 28.3287 31.1938 27.9731C31.5494 27.6177 31.9048 27.6177 32.2603 27.9731L35.993 31.7058L39.7256 27.9731C40.0811 27.6177 40.4366 27.6177 40.7921 27.9731C41.1476 28.3287 41.1476 28.6841 40.7921 29.0396L37.0594 32.7723ZM71.5421 36.5049L67.8094 32.7723L71.5421 29.0396C71.8976 28.6841 71.8976 28.3287 71.5421 27.9731C71.1866 27.6177 70.8311 27.6177 70.4756 27.9731L66.743 31.7058L63.0103 27.9731C62.6548 27.6177 62.2994 27.6177 61.9438 27.9731C61.5884 28.3287 61.5884 28.6841 61.9438 29.0396L65.6765 32.7723L61.9438 36.5049C61.5884 36.8604 61.5884 37.2159 61.9438 37.5714C62.2994 37.9269 62.6548 37.9269 63.0103 37.5714L66.743 33.8387L70.4756 37.5714C70.8311 37.9269 71.1866 37.9269 71.5421 37.5714C71.8976 37.2159 71.8976 36.6826 71.5421 36.5049ZM98.7371 32.7723L102.47 36.5049C102.825 36.6826 102.825 37.2159 102.47 37.5714C102.114 37.9269 101.759 37.9269 101.403 37.5714L97.6707 33.8387L93.938 37.5714C93.5826 37.9269 93.2271 37.9269 92.8716 37.5714C92.5161 37.2159 92.5161 36.8604 92.8716 36.5049L96.6042 32.7723L92.8716 29.0396C92.5161 28.6841 92.5161 28.3287 92.8716 27.9731C93.2271 27.6177 93.5826 27.6177 93.938 27.9731L97.6707 31.7058L101.403 27.9731C101.759 27.6177 102.114 27.6177 102.47 27.9731C102.825 28.3287 102.825 28.6841 102.47 29.0396L98.7371 32.7723ZM133.397 36.5049L129.665 32.7723L133.397 29.0396C133.753 28.6841 133.753 28.3287 133.397 27.9731C133.042 27.6177 132.686 27.6177 132.331 27.9731L128.598 31.7058L124.866 27.9731C124.51 27.6177 124.155 27.6177 123.799 27.9731C123.444 28.3287 123.444 28.6841 123.799 29.0396L127.532 32.7723L123.799 36.5049C123.444 36.8604 123.444 37.2159 123.799 37.5714C124.155 37.9269 124.51 37.9269 124.866 37.5714L128.598 33.8387L132.331 37.5714C132.686 37.9269 133.042 37.9269 133.397 37.5714C133.753 37.2159 133.753 36.6826 133.397 36.5049ZM160.414 32.7723L164.147 36.5049C164.503 36.6826 164.503 37.2159 164.147 37.5714C163.792 37.9269 163.436 37.9269 163.081 37.5714L159.348 33.8387L155.615 37.5714C155.26 37.9269 154.904 37.9269 154.549 37.5714C154.193 37.2159 154.193 36.8604 154.549 36.5049L158.281 32.7723L154.549 29.0396C154.193 28.6841 154.193 28.3287 154.549 27.9731C154.904 27.6177 155.26 27.6177 155.615 27.9731L159.348 31.7058L163.081 27.9731C163.436 27.6177 163.792 27.6177 164.147 27.9731C164.503 28.3287 164.503 28.6841 164.147 29.0396L160.414 32.7723ZM195.074 36.5049L191.342 32.7723L195.074 29.0396C195.43 28.6841 195.43 28.3287 195.074 27.9731C194.719 27.6177 194.363 27.6177 194.008 27.9731L190.275 31.7058L186.543 27.9731C186.187 27.6177 185.832 27.6177 185.476 27.9731C185.121 28.3287 185.121 28.6841 185.476 29.0396L189.209 32.7723L185.476 36.5049C185.121 36.8604 185.121 37.2159 185.476 37.5714C185.832 37.9269 186.187 37.9269 186.543 37.5714L190.275 33.8387L194.008 37.5714C194.363 37.9269 194.719 37.9269 195.074 37.5714C195.43 37.2159 195.43 36.6826 195.074 36.5049ZM222.27 32.7723L226.002 36.5049C226.358 36.6826 226.358 37.2159 226.002 37.5714C225.647 37.9269 225.291 37.9269 224.936 37.5714L221.203 33.8387L217.471 37.5714C217.115 37.9269 216.76 37.9269 216.404 37.5714C216.049 37.2159 216.049 36.8604 216.404 36.5049L220.137 32.7723L216.404 29.0396C216.049 28.6841 216.049 28.3287 216.404 27.9731C216.76 27.6177 217.115 27.6177 217.471 27.9731L221.203 31.7058L224.936 27.9731C225.291 27.6177 225.647 27.6177 226.002 27.9731C226.358 28.3287 226.358 28.6841 226.002 29.0396L222.27 32.7723ZM256.751 36.5049L253.019 32.7723L256.751 29.0396C257.107 28.6841 257.107 28.3287 256.751 27.9731C256.396 27.6177 256.041 27.6177 255.685 27.9731L251.953 31.7058L248.22 27.9731C247.864 27.6177 247.509 27.6177 247.153 27.9731C246.798 28.3287 246.798 28.6841 247.153 29.0396L250.886 32.7723L247.153 36.5049C246.798 36.8604 246.798 37.2159 247.153 37.5714C247.509 37.9269 247.864 37.9269 248.22 37.5714L251.953 33.8387L255.685 37.5714C256.041 37.9269 256.396 37.9269 256.751 37.5714C257.107 37.2159 257.107 36.6826 256.751 36.5049ZM283.947 32.7723L287.68 36.5049C288.035 36.6826 288.035 37.2159 287.68 37.5714C287.324 37.9269 286.969 37.9269 286.613 37.5714L282.88 33.8387L279.148 37.5714C278.792 37.9269 278.437 37.9269 278.081 37.5714C277.726 37.2159 277.726 36.8604 278.081 36.5049L281.814 32.7723L278.081 29.0396C277.726 28.6841 277.726 28.3287 278.081 27.9731C278.437 27.6177 278.792 27.6177 279.148 27.9731L282.88 31.7058L286.613 27.9731C286.969 27.6177 287.324 27.6177 287.68 27.9731C288.035 28.3287 288.035 28.6841 287.68 29.0396L283.947 32.7723ZM318.607 36.5049L314.874 32.7723L318.607 29.0396C318.962 28.6841 318.962 28.3287 318.607 27.9731C318.251 27.6177 317.896 27.6177 317.54 27.9731L313.808 31.7058L310.075 27.9731C309.719 27.6177 309.364 27.6177 309.009 27.9731C308.653 28.3287 308.653 28.6841 309.009 29.0396L312.741 32.7723L309.009 36.5049C308.653 36.8604 308.653 37.2159 309.009 37.5714C309.364 37.9269 309.719 37.9269 310.075 37.5714L313.808 33.8387L317.54 37.5714C317.896 37.9269 318.251 37.9269 318.607 37.5714C318.962 37.2159 318.962 36.6826 318.607 36.5049ZM6.1322 57.3008L9.86481 61.0334C10.2203 61.3889 10.2203 61.9222 9.86481 62.0999C9.50934 62.4554 9.15387 62.4554 8.79834 62.0999L5.06573 58.3672L1.33307 62.0999C0.9776 62.4554 0.622131 62.4554 0.266602 62.0999C-0.0888672 61.7444 -0.0888672 61.3889 0.266602 61.0334L3.99927 57.3008L0.266602 53.5682C-0.0888672 53.2127 -0.0888672 52.8572 0.266602 52.5017C0.622131 52.1462 0.9776 52.1462 1.33307 52.5017L5.06573 56.2344L8.79834 52.5017C9.15387 52.1462 9.50934 52.1462 9.86481 52.5017C10.2203 52.8572 10.2203 53.2127 9.86481 53.5682L6.1322 57.3008ZM40.7921 61.0334L37.0594 57.3008L40.7921 53.5682C41.1476 53.2127 41.1476 52.8572 40.7921 52.5017C40.4366 52.1462 40.0811 52.1462 39.7256 52.5017L35.993 56.2344L32.2603 52.5017C31.9048 52.1462 31.5494 52.1462 31.1938 52.5017C30.8384 52.8572 30.8384 53.2127 31.1938 53.5682L34.9265 57.3008L31.1938 61.0334C30.8384 61.3889 30.8384 61.7444 31.1938 62.0999C31.5494 62.4554 31.9048 62.4554 32.2603 62.0999L35.993 58.3672L39.7256 62.0999C40.0811 62.4554 40.4366 62.4554 40.7921 62.0999C41.1476 61.9222 41.1476 61.3889 40.7921 61.0334ZM67.8094 57.3008L71.5421 61.0334C71.8976 61.3889 71.8976 61.9222 71.5421 62.0999C71.1866 62.4554 70.8311 62.4554 70.4756 62.0999L66.743 58.3672L63.0103 62.0999C62.6548 62.4554 62.2994 62.4554 61.9438 62.0999C61.5884 61.7444 61.5884 61.3889 61.9438 61.0334L65.6765 57.3008L61.9438 53.5682C61.5884 53.2127 61.5884 52.8572 61.9438 52.5017C62.2994 52.1462 62.6548 52.1462 63.0103 52.5017L66.743 56.2344L70.4756 52.5017C70.8311 52.1462 71.1866 52.1462 71.5421 52.5017C71.8976 52.8572 71.8976 53.2127 71.5421 53.5682L67.8094 57.3008ZM102.47 61.0334L98.7371 57.3008L102.47 53.5682C102.825 53.2127 102.825 52.8572 102.47 52.5017C102.114 52.1462 101.759 52.1462 101.403 52.5017L97.6707 56.2344L93.938 52.5017C93.5826 52.1462 93.2271 52.1462 92.8716 52.5017C92.5161 52.8572 92.5161 53.2127 92.8716 53.5682L96.6042 57.3008L92.8716 61.0334C92.5161 61.3889 92.5161 61.7444 92.8716 62.0999C93.2271 62.4554 93.5826 62.4554 93.938 62.0999L97.6707 58.3672L101.403 62.0999C101.759 62.4554 102.114 62.4554 102.47 62.0999C102.825 61.9222 102.825 61.3889 102.47 61.0334ZM129.664 57.3008L133.397 61.0334C133.753 61.3889 133.753 61.9222 133.219 62.0999C132.864 62.4554 132.508 62.4554 132.153 62.0999L128.42 58.3672L124.688 62.0999C124.332 62.4554 123.977 62.4554 123.621 62.0999C123.266 61.7444 123.266 61.3889 123.621 61.0334L127.354 57.3008L123.621 53.5682C123.266 53.2127 123.266 52.8572 123.621 52.5017C123.977 52.1462 124.332 52.1462 124.688 52.5017L128.598 56.2344L132.331 52.5017C132.686 52.1462 133.042 52.1462 133.397 52.5017C133.753 52.8572 133.753 53.2127 133.397 53.5682L129.664 57.3008ZM164.147 61.0334L160.414 57.3008L164.147 53.5682C164.503 53.2127 164.503 52.8572 164.147 52.5017C163.792 52.1462 163.436 52.1462 163.081 52.5017L159.348 56.2344L155.615 52.5017C155.26 52.1462 154.904 52.1462 154.549 52.5017C154.193 52.8572 154.193 53.2127 154.549 53.5682L158.281 57.3008L154.549 61.0334C154.193 61.3889 154.193 61.7444 154.549 62.0999C154.904 62.4554 155.26 62.4554 155.615 62.0999L159.348 58.3672L163.081 62.0999C163.436 62.4554 163.792 62.4554 164.147 62.0999C164.503 61.9222 164.503 61.3889 164.147 61.0334ZM191.342 57.3008L195.074 61.0334C195.43 61.3889 195.43 61.9222 195.074 62.0999C194.719 62.4554 194.363 62.4554 194.008 62.0999L190.275 58.3672L186.543 62.0999C186.187 62.4554 185.832 62.4554 185.476 62.0999C185.121 61.7444 185.121 61.3889 185.476 61.0334L189.209 57.3008L185.476 53.5682C185.121 53.2127 185.121 52.8572 185.476 52.5017C185.832 52.1462 186.187 52.1462 186.543 52.5017L190.275 56.2344L194.008 52.5017C194.363 52.1462 194.719 52.1462 195.074 52.5017C195.43 52.8572 195.43 53.2127 195.074 53.5682L191.342 57.3008ZM226.002 61.0334L222.27 57.3008L226.002 53.5682C226.358 53.2127 226.358 52.8572 226.002 52.5017C225.647 52.1462 225.291 52.1462 224.936 52.5017L221.203 56.2344L217.471 52.5017C217.115 52.1462 216.76 52.1462 216.404 52.5017C216.049 52.8572 216.049 53.2127 216.404 53.5682L220.137 57.3008L216.404 61.0334C216.049 61.3889 216.049 61.7444 216.404 62.0999C216.76 62.4554 217.115 62.4554 217.471 62.0999L221.203 58.3672L224.936 62.0999C225.291 62.4554 225.647 62.4554 226.002 62.0999C226.358 61.9222 226.358 61.3889 226.002 61.0334ZM253.019 57.3008L256.751 61.0334C257.107 61.3889 257.107 61.9222 256.751 62.0999C256.396 62.4554 256.041 62.4554 255.685 62.0999L251.953 58.3672L248.22 62.0999C247.864 62.4554 247.509 62.4554 247.153 62.0999C246.798 61.7444 246.798 61.3889 247.153 61.0334L250.886 57.3008L247.153 53.5682C246.798 53.2127 246.798 52.8572 247.153 52.5017C247.509 52.1462 247.864 52.1462 248.22 52.5017L251.953 56.2344L255.685 52.5017C256.041 52.1462 256.396 52.1462 256.751 52.5017C257.107 52.8572 257.107 53.2127 256.751 53.5682L253.019 57.3008ZM287.68 61.0334L283.947 57.3008L287.68 53.5682C288.035 53.2127 288.035 52.8572 287.68 52.5017C287.324 52.1462 286.969 52.1462 286.613 52.5017L282.88 56.2344L279.148 52.5017C278.792 52.1462 278.437 52.1462 278.081 52.5017C277.726 52.8572 277.726 53.2127 278.081 53.5682L281.814 57.3008L278.081 61.0334C277.726 61.3889 277.726 61.7444 278.081 62.0999C278.437 62.4554 278.792 62.4554 279.148 62.0999L282.88 58.3672L286.613 62.0999C286.969 62.4554 287.324 62.4554 287.68 62.0999C288.035 61.9222 288.035 61.3889 287.68 61.0334ZM314.874 57.3008L318.607 61.0334C318.962 61.3889 318.962 61.7444 318.607 62.0999C318.251 62.4554 317.896 62.4554 317.54 62.0999L313.808 58.3672L310.075 62.0999C309.719 62.4554 309.364 62.4554 309.009 62.0999C308.653 61.7444 308.653 61.3889 309.009 61.0334L312.741 57.3008L309.009 53.5682C308.653 53.2127 308.653 52.8572 309.009 52.5017C309.364 52.1462 309.719 52.1462 310.075 52.5017L313.808 56.2344L317.54 52.5017C317.896 52.1462 318.251 52.1462 318.607 52.5017C318.962 52.8572 318.962 53.2127 318.607 53.5682L314.874 57.3008ZM9.86481 85.7401L6.1322 82.0074L9.86481 78.2747C10.2203 77.9193 10.2203 77.5638 9.86481 77.2083C9.50934 76.8528 9.15387 76.8528 8.79834 77.2083L5.06573 80.9409L1.33307 77.2083C0.9776 76.8528 0.622131 76.8528 0.266602 77.2083C-0.0888672 77.5638 -0.0888672 77.9193 0.266602 78.2747L3.99927 82.0074L0.266602 85.7401C-0.0888672 86.0955 -0.0888672 86.451 0.266602 86.8065C0.622131 87.1619 0.9776 87.1619 1.33307 86.8065L5.06573 83.0739L8.79834 86.8065C9.15387 87.1619 9.50934 87.1619 9.86481 86.8065C10.2203 86.451 10.2203 85.9178 9.86481 85.7401ZM37.0594 82.0074L40.7921 85.7401C41.1476 85.9178 41.1476 86.451 40.7921 86.8065C40.4366 87.1619 40.0811 87.1619 39.7256 86.8065L35.993 83.0739L32.2603 86.8065C31.9048 87.1619 31.5494 87.1619 31.1938 86.8065C30.8384 86.451 30.8384 86.0955 31.1938 85.7401L34.9265 82.0074L31.1938 78.2747C30.8384 77.9193 30.8384 77.5638 31.1938 77.2083C31.5494 76.8528 31.9048 76.8528 32.2603 77.2083L35.993 80.9409L39.7256 77.2083C40.0811 76.8528 40.4366 76.8528 40.7921 77.2083C41.1476 77.5638 41.1476 77.9193 40.7921 78.2747L37.0594 82.0074ZM71.5421 85.7401L67.8094 82.0074L71.5421 78.2747C71.8976 77.9193 71.8976 77.5638 71.5421 77.2083C71.1866 76.8528 70.8311 76.8528 70.4756 77.2083L66.743 80.9409L63.0103 77.2083C62.6548 76.8528 62.2994 76.8528 61.9438 77.2083C61.5884 77.5638 61.5884 77.9193 61.9438 78.2747L65.6765 82.0074L61.9438 85.7401C61.5884 86.0955 61.5884 86.451 61.9438 86.8065C62.2994 87.1619 62.6548 87.1619 63.0103 86.8065L66.743 83.0739L70.4756 86.8065C70.8311 87.1619 71.1866 87.1619 71.5421 86.8065C71.8976 86.451 71.8976 85.9178 71.5421 85.7401ZM98.7371 82.0074L102.47 85.7401C102.825 85.9178 102.825 86.451 102.47 86.8065C102.114 87.1619 101.759 87.1619 101.403 86.8065L97.6707 83.0739L93.938 86.8065C93.5826 87.1619 93.2271 87.1619 92.8716 86.8065C92.5161 86.451 92.5161 86.0955 92.8716 85.7401L96.6042 82.0074L92.8716 78.2747C92.5161 77.9193 92.5161 77.5638 92.8716 77.2083C93.2271 76.8528 93.5826 76.8528 93.938 77.2083L97.6707 80.9409L101.403 77.2083C101.759 76.8528 102.114 76.8528 102.47 77.2083C102.825 77.5638 102.825 77.9193 102.47 78.2747L98.7371 82.0074ZM133.397 85.7401L129.665 82.0074L133.397 78.2747C133.753 77.9193 133.753 77.5638 133.397 77.2083C133.042 76.8528 132.686 76.8528 132.331 77.2083L128.598 80.9409L124.866 77.2083C124.51 76.8528 124.155 76.8528 123.799 77.2083C123.444 77.5638 123.444 77.9193 123.799 78.2747L127.532 82.0074L123.799 85.7401C123.444 86.0955 123.444 86.451 123.799 86.8065C124.155 87.1619 124.51 87.1619 124.866 86.8065L128.598 83.0739L132.331 86.8065C132.686 87.1619 133.042 87.1619 133.397 86.8065C133.753 86.451 133.753 85.9178 133.397 85.7401ZM160.414 82.0074L164.147 85.7401C164.503 85.9178 164.503 86.451 164.147 86.8065C163.792 87.1619 163.436 87.1619 163.081 86.8065L159.348 83.0739L155.615 86.8065C155.26 87.1619 154.904 87.1619 154.549 86.8065C154.193 86.451 154.193 86.0955 154.549 85.7401L158.281 82.0074L154.549 78.2747C154.193 77.9193 154.193 77.5638 154.549 77.2083C154.904 76.8528 155.26 76.8528 155.615 77.2083L159.348 80.9409L163.081 77.2083C163.436 76.8528 163.792 76.8528 164.147 77.2083C164.503 77.5638 164.503 77.9193 164.147 78.2747L160.414 82.0074ZM195.074 85.7401L191.342 82.0074L195.074 78.2747C195.43 77.9193 195.43 77.5638 195.074 77.2083C194.719 76.8528 194.363 76.8528 194.008 77.2083L190.275 80.9409L186.543 77.2083C186.187 76.8528 185.832 76.8528 185.476 77.2083C185.121 77.5638 185.121 77.9193 185.476 78.2747L189.209 82.0074L185.476 85.7401C185.121 86.0955 185.121 86.451 185.476 86.8065C185.832 87.1619 186.187 87.1619 186.543 86.8065L190.275 83.0739L194.008 86.8065C194.363 87.1619 194.719 87.1619 195.074 86.8065C195.43 86.451 195.43 85.9178 195.074 85.7401ZM222.27 82.0074L226.002 85.7401C226.358 85.9178 226.358 86.451 226.002 86.8065C225.647 87.1619 225.291 87.1619 224.936 86.8065L221.203 83.0739L217.471 86.8065C217.115 87.1619 216.76 87.1619 216.404 86.8065C216.049 86.451 216.049 86.0955 216.404 85.7401L220.137 82.0074L216.404 78.2747C216.049 77.9193 216.049 77.5638 216.404 77.2083C216.76 76.8528 217.115 76.8528 217.471 77.2083L221.203 80.9409L224.936 77.2083C225.291 76.8528 225.647 76.8528 226.002 77.2083C226.358 77.5638 226.358 77.9193 226.002 78.2747L222.27 82.0074ZM256.751 85.7401L253.019 82.0074L256.751 78.2747C257.107 77.9193 257.107 77.5638 256.751 77.2083C256.396 76.8528 256.041 76.8528 255.685 77.2083L251.953 80.9409L248.22 77.2083C247.864 76.8528 247.509 76.8528 247.153 77.2083C246.798 77.5638 246.798 77.9193 247.153 78.2747L250.886 82.0074L247.153 85.7401C246.798 86.0955 246.798 86.451 247.153 86.8065C247.509 87.1619 247.864 87.1619 248.22 86.8065L251.953 83.0739L255.685 86.8065C256.041 87.1619 256.396 87.1619 256.751 86.8065C257.107 86.451 257.107 85.9178 256.751 85.7401ZM283.947 82.0074L287.68 85.7401C288.035 85.9178 288.035 86.451 287.68 86.8065C287.324 87.1619 286.969 87.1619 286.613 86.8065L282.88 83.0739L279.148 86.8065C278.792 87.1619 278.437 87.1619 278.081 86.8065C277.726 86.451 277.726 86.0955 278.081 85.7401L281.814 82.0074L278.081 78.2747C277.726 77.9193 277.726 77.5638 278.081 77.2083C278.437 76.8528 278.792 76.8528 279.148 77.2083L282.88 80.9409L286.613 77.2083C286.969 76.8528 287.324 76.8528 287.68 77.2083C288.035 77.5638 288.035 77.9193 287.68 78.2747L283.947 82.0074ZM318.607 85.7401L314.874 82.0074L318.607 78.2747C318.962 77.9193 318.962 77.5638 318.607 77.2083C318.251 76.8528 317.896 76.8528 317.54 77.2083L313.808 80.9409L310.075 77.2083C309.719 76.8528 309.364 76.8528 309.009 77.2083C308.653 77.5638 308.653 77.9193 309.009 78.2747L312.741 82.0074L309.009 85.7401C308.653 86.0955 308.653 86.451 309.009 86.8065C309.364 87.1619 309.719 87.1619 310.075 86.8065L313.808 83.0739L317.54 86.8065C317.896 87.1619 318.251 87.1619 318.607 86.8065C318.962 86.451 318.962 85.9178 318.607 85.7401ZM6.1322 106.536L9.86481 110.269C10.2203 110.624 10.2203 110.98 9.86481 111.335C9.50934 111.691 9.15387 111.691 8.79834 111.335L5.06573 107.603L1.33307 111.335C0.9776 111.691 0.622131 111.691 0.266602 111.335C-0.0888672 110.98 -0.0888672 110.624 0.266602 110.269L3.99927 106.536L0.266602 102.804C-0.0888672 102.448 -0.0888672 102.093 0.266602 101.737C0.622131 101.382 0.9776 101.382 1.33307 101.737L5.06573 105.47L8.79834 101.737C9.15387 101.382 9.50934 101.382 9.86481 101.737C10.2203 102.093 10.2203 102.448 9.86481 102.804L6.1322 106.536ZM40.7921 110.269L37.0594 106.536L40.7921 102.804C41.1476 102.448 41.1476 102.093 40.7921 101.737C40.4366 101.382 40.0811 101.382 39.7256 101.737L35.993 105.47L32.2603 101.737C31.9048 101.382 31.5494 101.382 31.1938 101.737C30.8384 102.093 30.8384 102.448 31.1938 102.804L34.9265 106.536L31.1938 110.269C30.8384 110.624 30.8384 110.98 31.1938 111.335C31.5494 111.691 31.9048 111.691 32.2603 111.335L35.993 107.603L39.7256 111.335C40.0811 111.691 40.4366 111.691 40.7921 111.335C41.1476 110.98 41.1476 110.624 40.7921 110.269ZM67.8094 106.536L71.5421 110.269C71.8976 110.624 71.8976 110.98 71.5421 111.335C71.1866 111.691 70.8311 111.691 70.4756 111.335L66.743 107.603L63.0103 111.335C62.6548 111.691 62.2994 111.691 61.9438 111.335C61.5884 110.98 61.5884 110.624 61.9438 110.269L65.6765 106.536L61.9438 102.804C61.5884 102.448 61.5884 102.093 61.9438 101.737C62.2994 101.382 62.6548 101.382 63.0103 101.737L66.743 105.47L70.4756 101.737C70.8311 101.382 71.1866 101.382 71.5421 101.737C71.8976 102.093 71.8976 102.448 71.5421 102.804L67.8094 106.536ZM102.47 110.269L98.7371 106.536L102.47 102.804C102.825 102.448 102.825 102.093 102.47 101.737C102.114 101.382 101.759 101.382 101.403 101.737L97.6707 105.47L93.938 101.737C93.5826 101.382 93.2271 101.382 92.8716 101.737C92.5161 102.093 92.5161 102.448 92.8716 102.804L96.6042 106.536L92.8716 110.269C92.5161 110.624 92.5161 110.98 92.8716 111.335C93.2271 111.691 93.5826 111.691 93.938 111.335L97.6707 107.603L101.403 111.335C101.759 111.691 102.114 111.691 102.47 111.335C102.825 110.98 102.825 110.624 102.47 110.269ZM129.665 106.536L133.397 110.269C133.753 110.624 133.753 110.98 133.397 111.335C133.042 111.691 132.686 111.691 132.331 111.335L128.598 107.603L124.866 111.335C124.51 111.691 124.155 111.691 123.799 111.335C123.444 110.98 123.444 110.624 123.799 110.269L127.532 106.536L123.799 102.804C123.444 102.448 123.444 102.093 123.799 101.737C124.155 101.382 124.51 101.382 124.866 101.737L128.598 105.47L132.331 101.737C132.686 101.382 133.042 101.382 133.397 101.737C133.753 102.093 133.753 102.448 133.397 102.804L129.665 106.536ZM164.147 110.269L160.414 106.536L164.147 102.804C164.503 102.448 164.503 102.093 164.147 101.737C163.792 101.382 163.436 101.382 163.081 101.737L159.348 105.47L155.615 101.737C155.26 101.382 154.904 101.382 154.549 101.737C154.193 102.093 154.193 102.448 154.549 102.804L158.281 106.536L154.549 110.269C154.193 110.624 154.193 110.98 154.549 111.335C154.904 111.691 155.26 111.691 155.615 111.335L159.348 107.603L163.081 111.335C163.436 111.691 163.792 111.691 164.147 111.335C164.503 110.98 164.503 110.624 164.147 110.269ZM191.342 106.536L195.074 110.269C195.43 110.624 195.43 110.98 195.074 111.335C194.719 111.691 194.363 111.691 194.008 111.335L190.275 107.603L186.543 111.335C186.187 111.691 185.832 111.691 185.476 111.335C185.121 110.98 185.121 110.624 185.476 110.269L189.209 106.536L185.476 102.804C185.121 102.448 185.121 102.093 185.476 101.737C185.832 101.382 186.187 101.382 186.543 101.737L190.275 105.47L194.008 101.737C194.363 101.382 194.719 101.382 195.074 101.737C195.43 102.093 195.43 102.448 195.074 102.804L191.342 106.536ZM226.002 110.269L222.27 106.536L226.002 102.804C226.358 102.448 226.358 102.093 226.002 101.737C225.647 101.382 225.291 101.382 224.936 101.737L221.203 105.47L217.471 101.737C217.115 101.382 216.76 101.382 216.404 101.737C216.049 102.093 216.049 102.448 216.404 102.804L220.137 106.536L216.404 110.269C216.049 110.624 216.049 110.98 216.404 111.335C216.76 111.691 217.115 111.691 217.471 111.335L221.203 107.603L224.936 111.335C225.291 111.691 225.647 111.691 226.002 111.335C226.358 110.98 226.358 110.624 226.002 110.269ZM253.019 106.536L256.751 110.269C257.107 110.624 257.107 110.98 256.751 111.335C256.396 111.691 256.041 111.691 255.685 111.335L251.953 107.603L248.22 111.335C247.864 111.691 247.509 111.691 247.153 111.335C246.798 110.98 246.798 110.624 247.153 110.269L250.886 106.536L247.153 102.804C246.798 102.448 246.798 102.093 247.153 101.737C247.509 101.382 247.864 101.382 248.22 101.737L251.953 105.47L255.685 101.737C256.041 101.382 256.396 101.382 256.751 101.737C257.107 102.093 257.107 102.448 256.751 102.804L253.019 106.536ZM287.68 110.269L283.947 106.536L287.68 102.804C288.035 102.448 288.035 102.093 287.68 101.737C287.324 101.382 286.969 101.382 286.613 101.737L282.88 105.47L279.148 101.737C278.792 101.382 278.437 101.382 278.081 101.737C277.726 102.093 277.726 102.448 278.081 102.804L281.814 106.536L278.081 110.269C277.726 110.624 277.726 110.98 278.081 111.335C278.437 111.691 278.792 111.691 279.148 111.335L282.88 107.603L286.613 111.335C286.969 111.691 287.324 111.691 287.68 111.335C288.035 110.98 288.035 110.624 287.68 110.269ZM314.874 106.536L318.607 110.269C318.962 110.624 318.962 110.98 318.607 111.335C318.251 111.691 317.896 111.691 317.54 111.335L313.808 107.603L310.075 111.335C309.719 111.691 309.364 111.691 309.009 111.335C308.653 110.98 308.653 110.624 309.009 110.269L312.741 106.536L309.009 102.804C308.653 102.448 308.653 102.093 309.009 101.737C309.364 101.382 309.719 101.382 310.075 101.737L313.808 105.47L317.54 101.737C317.896 101.382 318.251 101.382 318.607 101.737C318.962 102.093 318.962 102.448 318.607 102.804L314.874 106.536Z" fill="url(#paint0_linear_3619_2184)"/>
<defs>
<linearGradient id="paint0_linear_3619_2184" x1="-6.59228e-07" y1="16.8282" x2="72.2903" y2="177.662" gradientUnits="userSpaceOnUse">
<stop stop-color="#41DABE"/>
<stop offset="1" stop-color="#B4FF24"/>
</linearGradient>
</defs>
</svg>
