<svg width="120" height="218" viewBox="0 0 120 218" fill="none" xmlns="http://www.w3.org/2000/svg">
<path fill-rule="evenodd" clip-rule="evenodd" d="M119.099 31.2146L119.635 202.515L119.634 202.515C119.634 202.559 119.635 202.602 119.635 202.645C119.66 210.707 110.93 217.27 100.136 217.304C93.4659 217.325 87.5688 214.848 84.0299 211.051C80.5148 214.87 74.6332 217.384 67.9637 217.405C61.1839 217.426 55.2023 214.866 51.6846 210.962C48.1913 214.888 42.2258 217.485 35.4461 217.506C24.6517 217.54 15.8807 211.032 15.8555 202.97C15.8553 202.923 15.8555 202.876 15.8559 202.829L15.3261 33.3938C15.3254 33.3547 15.3249 33.3155 15.3245 33.2763C15.3244 33.257 15.3243 33.2377 15.3242 33.2184C15.324 33.1599 15.3243 33.1014 15.325 33.0431L15.3203 31.5391L15.4469 31.5387C16.5392 24.2639 24.7895 18.5907 34.8235 18.5593C41.6033 18.5381 47.5849 21.0977 51.1026 25.0021C54.5959 21.0758 60.5614 18.4788 67.3411 18.4576C74.0107 18.4367 79.9078 20.9135 83.4468 24.7112C86.9619 20.8914 92.8434 18.3779 99.513 18.357C109.547 18.3256 117.833 23.9472 118.97 31.215L119.099 31.2146Z" fill="#F1FFE6"/>
<mask id="path-2-inside-1_3618_1650" fill="white">
<path fill-rule="evenodd" clip-rule="evenodd" d="M103.82 12.9187L104.355 184.219L104.354 184.219C104.355 184.263 104.355 184.306 104.356 184.349C104.381 192.411 95.6506 198.974 84.8562 199.008C78.1866 199.029 72.2895 196.552 68.7506 192.755C65.2355 196.574 59.3539 199.088 52.6844 199.109C45.9046 199.13 39.923 196.57 36.4053 192.666C32.912 196.592 26.9466 199.189 20.1668 199.211C9.37238 199.244 0.601362 192.736 0.576154 184.674C0.576008 184.627 0.576159 184.58 0.5766 184.533L0.0468357 15.0979C0.0460954 15.0588 0.0455611 15.0196 0.0452402 14.9804C0.0450807 14.9611 0.0449669 14.9418 0.0449065 14.9225C0.0447235 14.864 0.0449986 14.8055 0.0457392 14.7472L0.0410368 13.2432L0.167577 13.2428C1.2599 5.968 9.51024 0.29476 19.5442 0.263387C26.324 0.242189 32.3056 2.80178 35.8233 6.70622C39.3166 2.77985 45.2821 0.1829 52.0618 0.161702C58.7314 0.140849 64.6285 2.61759 68.1675 6.41526C71.6826 2.59554 77.5641 0.0819698 84.2337 0.0611163C94.2677 0.0297435 102.553 5.65128 103.691 12.9191L103.82 12.9187Z"/>
</mask>
<path d="M104.355 184.219L104.368 188.219L108.368 188.207L108.355 184.207L104.355 184.219ZM103.82 12.9187L107.82 12.9062L107.807 8.90622L103.807 8.91873L103.82 12.9187ZM104.354 184.219L104.342 180.219L100.295 180.232L100.355 184.279L104.354 184.219ZM68.7506 192.755L71.6769 190.028L68.7322 186.868L65.8072 190.046L68.7506 192.755ZM36.4053 192.666L39.377 189.989L36.3865 186.669L33.4168 190.007L36.4053 192.666ZM0.5766 184.533L4.57642 184.571L4.57666 184.546L4.57658 184.521L0.5766 184.533ZM0.0468357 15.0979L4.04682 15.0853L4.04672 15.0537L4.04612 15.0221L0.0468357 15.0979ZM0.0452402 14.9804L4.04511 14.9477L4.0451 14.9474L0.0452402 14.9804ZM0.0457392 14.7472L4.04542 14.7979L4.04582 14.7663L4.04572 14.7347L0.0457392 14.7472ZM0.0410368 13.2432L0.0285303 9.24321L-3.97145 9.25571L-3.95894 13.2557L0.0410368 13.2432ZM0.167577 13.2428L0.180084 17.2428L3.61342 17.232L4.12323 13.8367L0.167577 13.2428ZM35.8233 6.70622L32.8516 9.38366L35.8421 12.7029L38.8118 9.36502L35.8233 6.70622ZM68.1675 6.41526L65.2411 9.14224L68.1859 12.3023L71.1108 9.12389L68.1675 6.41526ZM103.691 12.9191L99.7393 13.5378L100.27 16.9298L103.704 16.9191L103.691 12.9191ZM108.355 184.207L107.82 12.9062L99.8197 12.9312L100.355 184.232L108.355 184.207ZM104.367 188.219L104.368 188.219L104.343 180.219L104.342 180.219L104.367 188.219ZM108.356 184.337C108.355 184.278 108.355 184.219 108.354 184.16L100.355 184.279C100.355 184.306 100.355 184.334 100.356 184.362L108.356 184.337ZM84.8687 203.008C91.0439 202.989 96.7837 201.107 101.067 197.887C105.351 194.666 108.373 189.916 108.356 184.337L100.356 184.362C100.363 186.844 99.0332 189.407 96.2596 191.492C93.4854 193.578 89.463 194.994 84.8437 195.008L84.8687 203.008ZM65.8242 195.482C70.2415 200.222 77.272 203.032 84.8687 203.008L84.8437 195.008C79.1013 195.026 74.3376 192.883 71.6769 190.028L65.8242 195.482ZM52.6969 203.109C60.2936 203.085 67.3064 200.231 71.6939 195.463L65.8072 190.046C63.1645 192.918 58.4143 195.091 52.6718 195.109L52.6969 203.109ZM33.4335 195.343C37.8364 200.23 44.9785 203.133 52.6969 203.109L52.6718 195.109C46.8307 195.127 42.0096 192.911 39.377 189.989L33.4335 195.343ZM33.4168 190.007C30.8026 192.946 25.9955 195.192 20.1543 195.211L20.1793 203.21C27.8976 203.186 35.0214 200.239 39.3937 195.325L33.4168 190.007ZM20.1543 195.211C15.535 195.225 11.5038 193.834 8.71661 191.766C5.93004 189.698 4.5839 187.144 4.57613 184.661L-3.42383 184.686C-3.40638 190.266 -0.354413 194.997 3.94943 198.19C8.25264 201.383 14.0042 203.23 20.1793 203.21L20.1543 195.211ZM4.57613 184.661C4.57604 184.631 4.57614 184.601 4.57642 184.571L-3.42322 184.495C-3.42382 184.559 -3.42403 184.622 -3.42383 184.686L4.57613 184.661ZM-3.95314 15.1104L-3.42338 184.546L4.57658 184.521L4.04682 15.0853L-3.95314 15.1104ZM-3.95463 15.0132C-3.95419 15.0669 -3.95345 15.1204 -3.95245 15.1736L4.04612 15.0221C4.04565 14.9971 4.04531 14.9723 4.04511 14.9477L-3.95463 15.0132ZM-3.95507 14.935C-3.95499 14.9617 -3.95483 14.9879 -3.95462 15.0135L4.0451 14.9474C4.045 14.9344 4.04492 14.922 4.04489 14.91L-3.95507 14.935ZM-3.95394 14.6964C-3.95495 14.7761 -3.95532 14.8556 -3.95507 14.935L4.04489 14.91C4.04477 14.8723 4.04495 14.835 4.04542 14.7979L-3.95394 14.6964ZM-3.95894 13.2557L-3.95424 14.7597L4.04572 14.7347L4.04102 13.2307L-3.95894 13.2557ZM0.155071 9.24281L0.0285303 9.24321L0.0535433 17.2432L0.180084 17.2428L0.155071 9.24281ZM19.5317 -3.73659C8.41174 -3.70183 -2.28756 2.65549 -3.78808 12.6488L4.12323 13.8367C4.80736 9.2805 10.6087 4.29134 19.5567 4.26337L19.5317 -3.73659ZM38.7951 4.02878C34.3921 -0.858139 27.2501 -3.76073 19.5317 -3.73659L19.5567 4.26337C25.3979 4.2451 30.219 6.4617 32.8516 9.38366L38.7951 4.02878ZM52.0493 -3.83828C44.331 -3.81415 37.2072 -0.866948 32.8349 4.04742L38.8118 9.36502C41.426 6.42665 46.2331 4.17995 52.0743 4.16168L52.0493 -3.83828ZM71.0938 3.68828C66.6766 -1.05192 59.6461 -3.86203 52.0493 -3.83828L52.0743 4.16168C57.8168 4.14373 62.5805 6.28711 65.2411 9.14224L71.0938 3.68828ZM84.2212 -3.93886C76.6244 -3.91511 69.6116 -1.0611 65.2241 3.70663L71.1108 9.12389C73.7535 6.25217 78.5038 4.07905 84.2462 4.0611L84.2212 -3.93886ZM107.643 12.3004C106.08 2.31666 95.3412 -3.97363 84.2212 -3.93886L84.2462 4.0611C93.1942 4.03312 99.0267 8.9859 99.7393 13.5378L107.643 12.3004ZM103.807 8.91873L103.679 8.91913L103.704 16.9191L103.832 16.9187L103.807 8.91873Z" fill="#B4FF24" mask="url(#path-2-inside-1_3618_1650)"/>
</svg>
