<svg width="120" height="218" viewBox="0 0 120 218" fill="none" xmlns="http://www.w3.org/2000/svg">
<path opacity="0.4" fill-rule="evenodd" clip-rule="evenodd" d="M119.099 31.2146L119.635 202.515L119.634 202.515C119.634 202.559 119.635 202.602 119.635 202.645C119.66 210.707 110.93 217.27 100.136 217.304C93.4659 217.325 87.5688 214.848 84.0299 211.051C80.5148 214.87 74.6332 217.384 67.9637 217.405C61.1839 217.426 55.2023 214.866 51.6846 210.962C48.1913 214.888 42.2258 217.485 35.4461 217.506C24.6517 217.54 15.8807 211.032 15.8555 202.97C15.8553 202.923 15.8555 202.876 15.8559 202.829L15.3261 33.3938C15.3254 33.3547 15.3249 33.3155 15.3245 33.2763C15.3244 33.257 15.3243 33.2377 15.3242 33.2184C15.324 33.1599 15.3243 33.1014 15.325 33.0431L15.3203 31.5391L15.4469 31.5387C16.5392 24.2639 24.7895 18.5907 34.8235 18.5593C41.6033 18.5381 47.5849 21.0977 51.1026 25.0021C54.5959 21.0758 60.5614 18.4788 67.3411 18.4576C74.0107 18.4367 79.9078 20.9135 83.4468 24.7112C86.9619 20.8914 92.8434 18.3779 99.513 18.357C109.547 18.3256 117.833 23.9472 118.97 31.215L119.099 31.2146Z" fill="url(#paint0_linear_3619_1459)"/>
<mask id="path-2-inside-1_3619_1459" fill="white">
<path fill-rule="evenodd" clip-rule="evenodd" d="M103.82 12.9187L104.355 184.219L104.354 184.219C104.355 184.263 104.355 184.306 104.356 184.349C104.381 192.411 95.6506 198.974 84.8562 199.008C78.1866 199.029 72.2895 196.552 68.7506 192.755C65.2355 196.574 59.3539 199.088 52.6844 199.109C45.9046 199.13 39.923 196.57 36.4053 192.666C32.912 196.592 26.9466 199.189 20.1668 199.211C9.37238 199.244 0.601362 192.736 0.576154 184.674C0.576008 184.627 0.576159 184.58 0.5766 184.533L0.0468357 15.0979C0.0460954 15.0588 0.0455611 15.0196 0.0452402 14.9804C0.0450807 14.9611 0.0449669 14.9418 0.0449065 14.9225C0.0447235 14.864 0.0449986 14.8055 0.0457392 14.7472L0.0410368 13.2432L0.167577 13.2428C1.2599 5.968 9.51024 0.29476 19.5442 0.263387C26.324 0.242189 32.3056 2.80178 35.8233 6.70622C39.3166 2.77985 45.2821 0.1829 52.0618 0.161702C58.7314 0.140849 64.6285 2.61759 68.1675 6.41526C71.6826 2.59554 77.5641 0.0819698 84.2337 0.0611163C94.2677 0.0297435 102.553 5.65128 103.691 12.9191L103.82 12.9187Z"/>
</mask>
<path d="M104.355 184.219L104.38 192.219L112.38 192.194L112.355 184.194L104.355 184.219ZM103.82 12.9187L111.82 12.8937L111.795 4.89373L103.795 4.91875L103.82 12.9187ZM104.354 184.219L104.329 176.219L96.2357 176.245L96.3553 184.338L104.354 184.219ZM68.7506 192.755L74.6033 187.301L68.7138 180.981L62.8639 187.337L68.7506 192.755ZM36.4053 192.666L42.3488 187.311L36.3678 180.673L30.4284 187.348L36.4053 192.666ZM0.5766 184.533L8.57624 184.609L8.57672 184.558L8.57656 184.508L0.5766 184.533ZM0.0468357 15.0979L8.0468 15.0728L8.0466 15.0096L8.0454 14.9464L0.0468357 15.0979ZM0.0452402 14.9804L8.04498 14.9149L8.04497 14.9143L0.0452402 14.9804ZM0.0457392 14.7472L8.0451 14.8487L8.0459 14.7854L8.0457 14.7222L0.0457392 14.7472ZM0.0410368 13.2432L0.0160237 5.24322L-7.98394 5.26824L-7.95892 13.2682L0.0410368 13.2432ZM0.167577 13.2428L0.19259 21.2428L7.05927 21.2213L8.07889 14.4307L0.167577 13.2428ZM35.8233 6.70622L29.8798 12.0611L35.8608 18.6996L41.8002 12.0238L35.8233 6.70622ZM68.1675 6.41526L62.3148 11.8692L68.2043 18.1893L74.0542 11.8325L68.1675 6.41526ZM103.691 12.9191L95.7874 14.1565L96.8495 20.9405L103.716 20.9191L103.691 12.9191ZM112.355 184.194L111.82 12.8937L95.8197 12.9437L96.3553 184.244L112.355 184.194ZM104.379 192.219L104.38 192.219L104.33 176.219L104.329 176.219L104.379 192.219ZM112.356 184.324C112.355 184.25 112.355 184.175 112.354 184.101L96.3553 184.338C96.3555 184.35 96.3556 184.362 96.3556 184.374L112.356 184.324ZM84.8812 207.008C91.8343 206.986 98.4329 204.871 103.471 201.084C108.509 197.296 112.378 191.452 112.356 184.324L96.3556 184.374C96.3585 185.308 95.8745 186.777 93.856 188.295C91.8363 189.813 88.6726 190.996 84.8312 191.008L84.8812 207.008ZM62.8979 198.209C68.1934 203.891 76.3573 207.035 84.8812 207.008L84.8312 191.008C80.0159 191.023 76.3856 189.213 74.6033 187.301L62.8979 198.209ZM52.7094 207.109C61.2333 207.082 69.3774 203.888 74.6373 198.172L62.8639 187.337C61.0936 189.261 57.4746 191.094 52.6593 191.109L52.7094 207.109ZM30.4618 198.021C35.7499 203.89 44.0524 207.136 52.7094 207.109L52.6593 191.109C47.7567 191.124 44.0962 189.251 42.3488 187.311L30.4618 198.021ZM30.4284 187.348C28.6931 189.299 25.0444 191.195 20.1418 191.211L20.1918 207.21C28.8487 207.183 37.1308 203.886 42.3821 197.984L30.4284 187.348ZM20.1418 191.211C16.3004 191.223 13.1294 190.059 11.1002 188.554C9.07227 187.049 8.57904 185.583 8.57611 184.649L-7.42381 184.699C-7.40152 191.827 -3.49664 197.646 1.56583 201.403C6.62706 205.158 13.2388 207.232 20.1918 207.21L20.1418 191.211ZM8.57611 184.649C8.57607 184.636 8.57612 184.622 8.57624 184.609L-7.42304 184.458C-7.4238 184.538 -7.42406 184.618 -7.42381 184.699L8.57611 184.649ZM-7.95313 15.1229L-7.42336 184.558L8.57656 184.508L8.0468 15.0728L-7.95313 15.1229ZM-7.95449 15.046C-7.95393 15.1142 -7.953 15.182 -7.95173 15.2493L8.0454 14.9464C8.04519 14.9355 8.04505 14.925 8.04498 14.9149L-7.95449 15.046ZM-7.95505 14.9475C-7.95495 14.9816 -7.95475 15.0146 -7.95449 15.0466L8.04497 14.9143C8.04491 14.9077 8.04488 14.9021 8.04487 14.8975L-7.95505 14.9475ZM-7.95362 14.6457C-7.9549 14.7467 -7.95537 14.8473 -7.95505 14.9475L8.04487 14.8975C8.04481 14.8807 8.04489 14.8644 8.0451 14.8487L-7.95362 14.6457ZM-7.95892 13.2682L-7.95422 14.7722L8.0457 14.7222L8.041 13.2182L-7.95892 13.2682ZM0.142564 5.24283L0.0160237 5.24322L0.0660498 21.2431L0.19259 21.2428L0.142564 5.24283ZM19.5192 -7.73657C7.31324 -7.69841 -5.83502 -0.657009 -7.74374 12.0549L8.07889 14.4307C8.35483 12.593 11.7072 8.28793 19.5693 8.26335L19.5192 -7.73657ZM41.7668 1.35134C36.4787 -4.51806 28.1762 -7.76364 19.5192 -7.73657L19.5693 8.26335C24.4719 8.24802 28.1324 10.1216 29.8798 12.0611L41.7668 1.35134ZM52.0368 -7.83826C43.3799 -7.81119 35.0978 -4.51375 29.8465 1.38861L41.8002 12.0238C43.5354 10.0735 47.1842 8.17699 52.0868 8.16166L52.0368 -7.83826ZM74.0202 0.961296C68.7246 -4.72144 60.5607 -7.86491 52.0368 -7.83826L52.0868 8.16166C56.9021 8.14661 60.5325 9.95662 62.3148 11.8692L74.0202 0.961296ZM84.2087 -7.93884C75.6848 -7.91219 67.5407 -4.71774 62.2808 0.997999L74.0542 11.8325C75.8245 9.90881 79.4434 8.07613 84.2587 8.06108L84.2087 -7.93884ZM111.595 11.6818C109.607 -1.01796 96.4147 -7.97701 84.2087 -7.93884L84.2587 8.06108C92.1207 8.0365 95.5 12.3205 95.7874 14.1565L111.595 11.6818ZM103.795 4.91875L103.666 4.91915L103.716 20.9191L103.845 20.9187L103.795 4.91875Z" fill="#B4FF24" mask="url(#path-2-inside-1_3619_1459)"/>
<defs>
<linearGradient id="paint0_linear_3619_1459" x1="107.735" y1="52.5658" x2="33.6989" y2="67.2956" gradientUnits="userSpaceOnUse">
<stop stop-color="#9D99FF"/>
<stop offset="1" stop-color="#5672FF"/>
</linearGradient>
</defs>
</svg>
