<svg width="184" height="110" viewBox="0 0 184 110" fill="none" xmlns="http://www.w3.org/2000/svg">
<path d="M50.4513 8.92954C50.5905 11.0298 50.5596 13.1454 50.3584 15.2304C50.3275 15.491 50.312 15.7516 50.2656 15.9969C50.2501 16.1195 50.2347 16.2422 50.2192 16.3648C50.2037 16.5488 50.2656 16.0735 50.2192 16.3495C50.2037 16.4261 50.2037 16.5181 50.1882 16.5948C50.1109 17.116 50.0181 17.6372 49.9253 18.1585C49.7241 19.2009 49.4611 20.2434 49.1516 21.2552C48.9969 21.7305 48.8422 22.2057 48.672 22.681C48.5792 22.9109 48.5017 23.1409 48.3934 23.3708C48.378 23.4168 48.3161 23.4935 48.3161 23.5548C48.3161 23.4015 48.4089 23.3555 48.3471 23.4628C48.2852 23.5855 48.2387 23.7081 48.1768 23.8307C47.8055 24.6433 47.3568 25.4251 46.8617 26.161C46.7534 26.3296 46.6296 26.4982 46.5059 26.6669C46.444 26.7589 46.3666 26.8509 46.3047 26.9428C46.2737 26.9735 46.2428 27.0195 46.2273 27.0501C46.382 26.7742 46.2892 26.9735 46.2428 27.0348C45.9643 27.3874 45.6549 27.74 45.3455 28.0773C45.036 28.3992 44.7265 28.7058 44.3861 29.0125C44.2314 29.1504 44.0613 29.2884 43.8911 29.4264C43.8137 29.4877 43.7364 29.549 43.659 29.6103C43.5352 29.7023 43.891 29.4264 43.7054 29.5797C43.6435 29.6257 43.5971 29.6563 43.5352 29.7023C43.1329 29.9936 42.7151 30.2696 42.2819 30.5148C41.8487 30.7601 41.4 30.9441 40.9513 31.174C40.9668 31.1587 41.2143 31.0667 41.0441 31.1281C40.9822 31.1587 40.9204 31.1741 40.8585 31.2047C40.7347 31.2507 40.6109 31.2967 40.4717 31.3427C40.2396 31.4193 40.0075 31.496 39.7599 31.5573C39.2803 31.6953 38.7852 31.7873 38.2901 31.8486C38.0271 31.8792 37.7176 32.1552 37.5938 32.3698C37.4701 32.5998 37.4237 32.8451 37.4546 33.1057C37.532 33.6576 38.0116 34.1022 38.5995 34.1022C39.729 34.0868 40.8585 34.0868 41.9879 34.1635C42.251 34.1788 42.4985 34.2095 42.7616 34.2401C42.777 34.2401 43.0556 34.2861 42.8699 34.2555C42.6687 34.2248 42.9472 34.2708 42.9781 34.2708C43.1174 34.2861 43.2567 34.3168 43.3959 34.3475C43.9529 34.4548 44.4945 34.5927 45.0205 34.7614C45.1134 34.792 45.2216 34.838 45.3145 34.8687C45.3609 34.884 45.4228 34.9147 45.4692 34.93C45.562 34.9607 45.6549 35.0527 45.4073 34.8994C45.593 35.022 45.8251 35.0833 46.0262 35.1906C46.413 35.3899 46.7844 35.6045 47.1248 35.8498C47.2176 35.9112 47.3104 35.9725 47.4032 36.0491C47.4342 36.0798 47.4806 36.1105 47.5116 36.1258C47.6663 36.2331 47.4497 36.0798 47.4342 36.0645C47.5889 36.2178 47.7901 36.3558 47.9602 36.4937C48.3006 36.8003 48.6255 37.1069 48.935 37.4442C49.0742 37.5975 49.2135 37.7508 49.3373 37.9041C49.3992 37.9808 49.4611 38.0574 49.5384 38.1494C49.6313 38.272 49.3682 37.9195 49.5075 38.1034C49.5539 38.1647 49.5848 38.2107 49.6312 38.2721C49.8943 38.6247 50.1264 38.9926 50.3584 39.3605C50.5905 39.7438 50.8072 40.1424 51.0083 40.541C51.1011 40.7403 51.194 40.9396 51.2868 41.1388C51.3023 41.1848 51.3177 41.2308 51.3487 41.2615C51.2249 40.9702 51.3022 41.1388 51.3332 41.2155C51.3796 41.3381 51.4261 41.4455 51.4725 41.5681C51.8283 42.4879 52.0913 43.4231 52.2925 44.3736C52.3544 44.6495 52.4008 44.9101 52.4472 45.1861C52.4627 45.2934 52.4781 45.416 52.5091 45.5234C52.5246 45.6153 52.5401 45.692 52.5401 45.784C52.5401 45.738 52.5246 45.692 52.5246 45.646C52.5246 45.7073 52.5401 45.7533 52.5401 45.8146C52.6019 46.3665 52.6638 46.9031 52.6948 47.455C52.865 49.9845 52.7102 52.5294 52.5401 55.0436C52.5091 55.6108 53.0042 56.1014 53.5457 56.178C54.1182 56.2547 54.6442 55.9021 54.8144 55.3502C56.0367 51.5023 56.1915 47.4397 57.1044 43.5304C57.3055 42.6566 57.5376 41.7827 57.847 40.9242C57.9089 40.7403 57.9863 40.5563 58.0482 40.3876C58.0791 40.2957 58.141 40.2037 58.1719 40.0964C58.1719 40.1117 58.0636 40.357 58.141 40.1884C58.1564 40.1424 58.1874 40.0811 58.2029 40.0351C58.3731 39.6671 58.5433 39.3145 58.729 38.9619C59.1003 38.2567 59.5335 37.5822 60.0131 36.9536C60.0441 36.923 60.075 36.877 60.0905 36.8463C59.9358 37.0763 59.9822 36.9843 60.0286 36.923C60.0905 36.8463 60.1524 36.7697 60.2143 36.693C60.3381 36.5397 60.4773 36.3864 60.6165 36.2331C60.8796 35.9418 61.1581 35.6659 61.4366 35.4206C61.6068 35.2673 61.7615 35.1293 61.9472 34.9913C61.9781 34.9607 62.0091 34.9453 62.0555 34.9147C61.777 35.1293 61.9781 34.976 62.0245 34.93C62.1174 34.8687 62.1947 34.8074 62.2876 34.746C62.628 34.5161 62.9838 34.3015 63.3551 34.1175C63.448 34.0715 63.5563 34.0255 63.6491 33.9795C63.6955 33.9642 63.7265 33.9489 63.7729 33.9335C63.9895 33.8415 63.5408 34.0255 63.742 33.9489C63.9431 33.8722 64.1442 33.7956 64.3608 33.7342C64.5775 33.6729 64.7786 33.6116 64.9952 33.5656C65.0881 33.5503 65.1963 33.5196 65.2892 33.5043C65.382 33.489 65.8152 33.4276 65.4129 33.4736C65.7224 33.4276 66.0164 33.3816 66.233 33.1364C66.4032 32.9524 66.5115 32.7378 66.5579 32.4771C66.6353 31.9559 66.2948 31.3274 65.7224 31.22C65.2737 31.1281 64.825 31.0207 64.3763 30.8828C64.1752 30.8214 63.9895 30.7448 63.7883 30.6835C63.68 30.6375 63.5718 30.5915 63.4635 30.5608C63.8193 30.6988 63.417 30.5302 63.3242 30.4995C62.5041 30.1162 61.7151 29.6563 60.9879 29.1198C60.957 29.0891 60.9105 29.0584 60.8796 29.0431C60.7249 28.9205 60.9415 29.0891 60.9569 29.1044C60.8796 29.0278 60.7713 28.9665 60.6785 28.8898C60.4928 28.7365 60.3226 28.5985 60.1524 28.4452C59.812 28.1386 59.4716 27.8167 59.1622 27.4641C58.8527 27.1268 58.5588 26.7895 58.2648 26.4369C58.2338 26.3909 58.2029 26.345 58.1565 26.299C58.1719 26.3143 58.3267 26.5136 58.2029 26.3603C58.1256 26.2683 58.0636 26.1763 57.9862 26.0843C57.847 25.9004 57.7078 25.7011 57.584 25.5171C57.0734 24.7659 56.6247 23.9687 56.2224 23.1562C56.1296 22.9569 56.0368 22.773 55.944 22.5737C55.913 22.5277 55.8975 22.4663 55.8821 22.4204C55.8047 22.2517 55.913 22.4817 55.913 22.497C55.8666 22.359 55.8047 22.2364 55.7583 22.1137C55.5881 21.6998 55.4333 21.2706 55.2786 20.8413C54.6288 18.9557 54.1492 17.0087 53.7623 15.0464C53.5457 13.9579 53.3446 12.8541 53.1744 11.7504C53.0971 11.2291 53.0197 10.7232 52.9423 10.202C52.9114 9.94136 52.865 9.69607 52.834 9.43546C52.8185 9.34347 52.7566 8.91422 52.8185 9.29748C52.8031 9.1595 52.7876 9.03686 52.7721 8.89889C52.7257 8.57695 52.6638 8.31632 52.4317 8.08637C52.2306 7.88707 51.9057 7.73377 51.6117 7.7491C51.3177 7.76443 50.9928 7.85641 50.7916 8.08637C50.5905 8.33165 50.4049 8.63826 50.4513 8.92954C50.9928 12.9615 51.6117 17.0394 52.865 20.918C54.0718 24.6126 56.0368 28.1386 59.1158 30.6068C60.8641 32.0019 62.8755 33.075 65.0881 33.4889C65.1964 32.7377 65.2892 31.9866 65.3975 31.2354C64.4382 31.358 63.5563 31.6033 62.6589 31.9866C61.8698 32.3238 61.1426 32.7837 60.4618 33.3203C59.1312 34.3474 58.0327 35.6812 57.1662 37.1069C56.2534 38.594 55.5881 40.2343 55.1394 41.9207C54.5978 43.9137 54.2884 45.968 53.9789 48.0069C53.6386 50.3065 53.2827 52.606 52.571 54.829C53.3291 54.9363 54.0873 55.0283 54.8454 55.1356C55.1394 50.5978 55.4024 45.8453 53.8552 41.4761C52.571 37.8275 50.049 34.4088 46.382 32.8757C43.922 31.8486 41.2298 31.8179 38.5995 31.8486C38.7078 32.5998 38.8007 33.351 38.909 34.1022C42.808 33.5656 46.1345 31.0667 48.4089 28.0006C50.9309 24.5973 52.0295 20.3201 52.5555 16.1809C52.865 13.774 52.9268 11.3518 52.7566 8.94487C52.7102 8.34698 52.2461 7.76442 51.5962 7.79508C51.0083 7.81041 50.4049 8.28566 50.4513 8.92954Z" fill="#020202"/>
<path d="M7.46025 39.9766C7.72214 41.1209 7.95321 42.2805 8.15347 43.4401C8.2613 44.0046 8.35378 44.5691 8.4308 45.1336C8.47702 45.4235 8.5232 45.6982 8.55401 45.9881C8.56941 46.1101 8.58479 46.2474 8.60019 46.3695C8.631 46.5831 8.60019 46.3848 8.60019 46.3542C8.6156 46.4458 8.63103 46.5373 8.63103 46.6441C8.93913 48.948 9.12396 51.2519 9.21638 53.5711C9.2626 54.5628 9.26266 55.5393 9.20104 56.531C9.18564 56.7599 9.17017 56.9888 9.13936 57.2176C9.12396 57.3397 9.10858 57.4617 9.09318 57.5838C9.07777 57.7059 9.12399 57.7974 9.09318 57.5533C9.10858 57.6296 9.06234 57.7211 9.06234 57.7974C8.98531 58.2704 8.89288 58.7281 8.75424 59.1858C8.69262 59.4147 8.61561 59.6283 8.53859 59.8572C8.50778 59.9487 8.44621 60.0555 8.4308 60.1471C8.49242 59.9182 8.49238 60.025 8.46157 60.086C8.43076 60.1623 8.39993 60.2234 8.36912 60.2996C8.15346 60.7421 7.90699 61.1541 7.6143 61.5508C7.53728 61.6423 7.47567 61.7491 7.39865 61.8407C7.41406 61.8101 7.55273 61.6423 7.42949 61.7949C7.39868 61.8407 7.36784 61.8864 7.32163 61.9169C7.16758 62.1153 6.9981 62.3136 6.82864 62.512C6.50514 62.8782 6.15088 63.2443 5.79657 63.5953C5.41145 63.9767 5.01088 64.3276 4.59495 64.6786C4.37928 64.8616 4.16365 65.0447 3.93257 65.2126C3.88636 65.2583 3.82474 65.3041 3.77853 65.3346C3.74772 65.3499 3.56286 65.5025 3.7015 65.3957C3.85555 65.2889 3.63988 65.4414 3.62448 65.4567C3.56286 65.5025 3.48587 65.5482 3.42425 65.6093C2.49996 66.2806 1.54486 66.9062 0.574362 67.5012C0.158433 67.7606 -0.118913 68.3098 0.0505397 68.7981C0.204588 69.2558 0.651356 69.6678 1.15971 69.6373C2.13022 69.5762 3.10072 69.5305 4.08662 69.5762C4.73362 69.6068 5.38062 69.6678 6.01222 69.7441C6.36653 69.7746 6.70541 69.8051 7.05972 69.8356C7.16755 69.8356 7.2754 69.8509 7.38323 69.8661C7.41404 69.8661 7.42945 69.8661 7.46025 69.8814C7.58349 69.8966 7.55267 69.8966 7.36781 69.8661C7.39862 69.8814 7.4757 69.8814 7.50651 69.8814C7.75299 69.9272 7.99944 69.9729 8.24591 70.0492C8.46158 70.1102 8.67726 70.1865 8.87752 70.2628C8.93914 70.2781 8.98537 70.3086 9.04699 70.3238C9.20104 70.3849 8.76966 70.2018 9.00073 70.3086C9.12397 70.3696 9.23185 70.4154 9.35509 70.4764C9.78642 70.69 10.1869 70.9342 10.5721 71.2088C10.6183 71.2393 10.6645 71.2851 10.7107 71.3156C10.8801 71.4376 10.6645 71.2851 10.6491 71.2698C10.6953 71.3461 10.8647 71.4377 10.9263 71.4987C11.1266 71.6665 11.3115 71.8343 11.4963 72.0022C11.8506 72.3378 12.205 72.704 12.5131 73.0702C12.6671 73.2533 12.8211 73.4364 12.9598 73.6195C13.1292 73.8331 12.8057 73.4059 12.9598 73.6195C12.9906 73.6653 13.0214 73.6958 13.0522 73.7415C13.1447 73.8636 13.237 73.9857 13.3141 74.1077C13.6068 74.5197 13.884 74.9316 14.1459 75.3588C14.7159 76.2895 15.2397 77.266 15.7172 78.2425C15.9791 78.7765 16.241 79.3258 16.4875 79.8598C16.5491 79.9819 16.5953 80.1039 16.6569 80.226C16.6877 80.287 16.7186 80.3633 16.7494 80.4244C16.8264 80.6227 16.7494 80.4396 16.734 80.3938C16.8726 80.699 16.9804 81.0041 17.1037 81.3093C18.105 83.8115 18.8752 86.3901 19.4144 89.0296C19.5222 89.5941 20.1538 89.9145 20.6776 89.8535C21.2938 89.7772 21.6173 89.3042 21.6789 88.7245C22.2181 84.1319 21.0473 79.5699 21.3246 74.9621C21.34 74.596 21.3862 74.2298 21.417 73.8789C21.4324 73.7873 21.4478 73.6958 21.4478 73.6042C21.4632 73.4516 21.4016 73.9246 21.4324 73.6958C21.4324 73.65 21.4478 73.6195 21.4478 73.5737C21.4787 73.3754 21.5094 73.177 21.5402 72.9787C21.6789 72.2005 21.8637 71.4224 22.0794 70.6748C22.2026 70.2781 22.3259 69.8814 22.4645 69.4847C22.5261 69.3016 22.5878 69.1338 22.6648 68.9659C22.6956 68.8744 22.7418 68.7828 22.7726 68.6913C22.8496 68.5235 22.7418 68.7676 22.7264 68.7828C22.7572 68.7218 22.7726 68.6608 22.8034 68.5998C23.1269 67.8826 23.4966 67.1808 23.9434 66.5247C24.0512 66.3569 24.1745 66.1891 24.2977 66.0212C24.3131 65.9907 24.4517 65.8229 24.3131 65.9907C24.1898 66.1585 24.3285 65.9755 24.3593 65.9449C24.4209 65.8686 24.4825 65.7924 24.5596 65.7161C24.8214 65.4109 25.1141 65.121 25.4222 64.8617C25.4993 64.7854 25.5917 64.7243 25.6687 64.6633C25.7766 64.5718 25.4531 64.8159 25.5763 64.7396C25.6225 64.7091 25.6687 64.6786 25.7149 64.6328C25.8844 64.526 26.0385 64.4192 26.2233 64.3124C26.3928 64.2208 26.5622 64.1293 26.7317 64.053C26.7625 64.0377 26.9473 63.9615 26.7471 64.0377C26.5622 64.114 26.7163 64.053 26.7625 64.0377C26.8703 63.992 26.9781 63.9615 27.0859 63.9309C27.5481 63.7784 27.964 63.3359 27.9332 62.8324C27.9024 62.3136 27.5943 61.9017 27.0859 61.7339C25.1141 61.0778 23.0499 60.8031 21.0627 60.1776C20.8317 60.1013 20.6006 60.025 20.3695 59.9335C20.3233 59.9182 20.277 59.903 20.2308 59.8877C20.2 59.8724 19.9997 59.7656 20.1692 59.8572C20.3387 59.9487 20.1384 59.8419 20.1076 59.8267C20.046 59.7961 19.969 59.7656 19.9074 59.7351C19.4606 59.5368 19.0447 59.2926 18.6441 59.018C18.5825 58.9722 18.5209 58.9265 18.4593 58.896C18.3206 58.8044 18.4901 58.9417 18.5209 58.9417C18.4747 58.957 18.2744 58.7434 18.2282 58.6976C18.0279 58.5145 17.8277 58.3314 17.6428 58.1331C17.4888 57.9652 17.3347 57.7822 17.1807 57.5991C17.1037 57.5075 17.0266 57.416 16.9496 57.3244C17.1499 57.5533 17.0267 57.416 16.9805 57.3549C16.9342 57.2939 16.888 57.2176 16.8264 57.1566C16.2718 56.409 15.8096 55.6156 15.3937 54.7917C15.2859 54.5781 15.1935 54.3797 15.101 54.1661C15.0548 54.0746 15.0086 53.983 14.9778 53.8762C14.947 53.8304 14.9316 53.7694 14.9008 53.7236C14.8084 53.51 14.9932 53.9372 14.9008 53.7389C14.716 53.2964 14.5464 52.8387 14.377 52.3962C13.6838 50.5043 13.1446 48.5513 12.5438 46.6289C11.712 44.0351 10.7415 41.4871 9.4783 39.0764C9.20101 38.5424 8.39999 38.344 7.89163 38.6644C7.33706 39.0154 7.18298 39.6562 7.47567 40.236C7.78377 40.8158 8.07649 41.4108 8.35378 42.0058C8.47702 42.2805 8.61564 42.5551 8.72348 42.8298C8.70807 42.7992 8.63103 42.6009 8.70806 42.7992C8.73887 42.8603 8.76969 42.9366 8.8005 42.9976C8.86212 43.1502 8.92369 43.3027 8.98531 43.4401C9.41665 44.5081 9.80178 45.5914 10.1561 46.6899C10.8031 48.6581 11.3577 50.6569 12.0355 52.6098C12.6825 54.4713 13.4682 56.3174 14.5927 57.95C15.1935 58.8197 15.8713 59.7046 16.7031 60.3759C17.5966 61.1236 18.5826 61.6576 19.6763 62.0695C21.8638 62.9087 24.2361 63.1528 26.4544 63.8852C26.4544 63.1528 26.4544 62.4204 26.4544 61.6728C23.0962 62.7409 21.1705 66.0517 20.1076 69.1643C19.553 70.7663 19.2141 72.4446 19.0447 74.123C18.829 76.2895 18.983 78.4866 19.1679 80.6532C19.3836 83.3233 19.6455 85.9934 19.3374 88.6634C20.0922 88.5566 20.8471 88.4651 21.6019 88.3583C21.1089 85.9628 20.4157 83.5979 19.553 81.3093C18.6749 79.0054 17.6428 76.732 16.395 74.596C15.3321 72.7956 14.0535 71.0409 12.4206 69.7135C11.5271 68.9964 10.6028 68.4167 9.52448 68.0047C8.56938 67.6233 7.5681 67.5165 6.55139 67.4249C5.81196 67.3639 5.08796 67.2723 4.34853 67.2266C3.25479 67.1655 2.17643 67.2113 1.08269 67.2723C1.28295 67.9894 1.46778 68.6913 1.66804 69.4084C3.48581 68.2946 5.25737 67.074 6.84406 65.6245C8.41535 64.1751 9.87885 62.512 10.6645 60.5133C11.4193 58.5908 11.5426 56.4395 11.4963 54.3797C11.4501 52.0453 11.2652 49.7109 10.9879 47.407C10.6644 44.6912 10.2023 41.9753 9.6015 39.3053C9.46286 38.7255 8.75429 38.3288 8.18431 38.5119C7.64514 38.7712 7.30621 39.351 7.46025 39.9766Z" fill="#020202"/>
<path d="M64.3323 70.7496C64.5497 71.5976 64.7205 72.4457 64.8447 73.3246C64.8292 73.2166 64.8136 73.1241 64.7981 73.0162C65.031 74.7277 65.0621 76.4855 64.8292 78.197C64.8447 78.089 64.8602 77.9965 64.8757 77.8886C64.6894 79.2763 64.3323 80.6332 63.7889 81.9129C63.8354 81.8204 63.8665 81.7279 63.9131 81.6354C63.6492 82.2522 63.3542 82.8535 62.9971 83.424C62.8263 83.717 62.6244 84.0099 62.4225 84.2875C62.3294 84.4108 62.2363 84.5342 62.1431 84.6575C62.3915 84.3337 62.1897 84.5958 62.1276 84.6729C62.0655 84.75 62.0033 84.8271 61.9412 84.8888C61.5065 85.413 61.0096 85.891 60.4973 86.3382C60.3731 86.4461 60.2333 86.554 60.1091 86.662C60.0315 86.7237 59.7675 86.9241 60.0936 86.6774C60.0159 86.7236 59.9538 86.7853 59.8762 86.847C59.5812 87.0629 59.2707 87.2633 58.9602 87.4638C58.3701 87.8184 57.7801 88.1268 57.1435 88.3889C57.2367 88.3426 57.3298 88.3118 57.423 88.2656C56.9727 88.4506 56.5225 88.6356 56.0722 88.836C55.7617 88.9748 55.4667 89.0982 55.2338 89.3294C54.7059 89.8229 54.799 90.6709 55.3424 91.0872C55.6219 91.3031 55.9946 91.3648 56.3206 91.4573C56.8796 91.6269 57.4385 91.8273 57.9819 92.0586C57.8888 92.0124 57.7957 91.9815 57.7025 91.9353C59.1775 92.5674 60.6059 93.3538 61.8791 94.3098C61.9102 94.3406 61.9412 94.356 61.9723 94.3869C61.7083 94.1864 61.817 94.2789 61.8791 94.3098C61.9568 94.3715 62.0188 94.4177 62.0965 94.4794C62.2362 94.5873 62.376 94.7107 62.5002 94.8186C62.7331 95.0345 62.966 95.2503 63.1833 95.497C63.292 95.605 63.3852 95.7283 63.4939 95.8517C63.5404 95.9133 63.587 95.975 63.6336 96.0367C63.6802 96.0984 63.7579 96.2063 63.5405 95.9288C63.5715 95.975 63.6025 96.0059 63.6336 96.0521C63.8199 96.2988 64.0063 96.5609 64.1616 96.8385C64.5652 97.4707 64.8913 98.1491 65.2018 98.843C65.1552 98.7504 65.1242 98.6579 65.0776 98.5654C66.1955 101.217 66.7078 104.07 67.2047 106.892C67.3289 107.647 67.4687 108.403 67.6084 109.158C67.655 109.42 67.9189 109.729 68.1363 109.852C68.3692 109.975 68.6177 110.022 68.8816 109.991C69.4561 109.914 69.8753 109.436 69.8908 108.85C69.9374 107.57 69.984 106.29 70.0306 104.995C70.0771 103.762 70.0771 102.513 70.2479 101.279C70.2324 101.387 70.2169 101.48 70.2014 101.588C70.3566 100.524 70.5895 99.4597 70.869 98.4266C71.0087 97.9178 71.164 97.409 71.3192 96.9002C71.459 96.4839 71.5832 96.0521 71.754 95.6358C71.7074 95.7283 71.6763 95.8208 71.6298 95.9134C71.8471 95.4199 72.1267 94.9574 72.4527 94.5256C72.4993 94.464 72.5459 94.4023 72.5924 94.3252C72.7011 94.1864 72.3906 94.5719 72.5614 94.356C72.67 94.2173 72.7787 94.0939 72.8874 93.9551C73.0893 93.7084 73.3067 93.4771 73.524 93.2459C73.9898 92.7679 74.4867 92.3053 74.9991 91.8582C75.1233 91.7502 75.2475 91.6577 75.3717 91.5498C75.4338 91.5035 75.4959 91.4573 75.558 91.3956C75.5891 91.3648 75.6201 91.3339 75.6667 91.3185C75.6201 91.3493 75.4338 91.5035 75.5736 91.3802C75.822 91.1951 76.0859 91.0101 76.3344 90.8251C76.8467 90.4859 77.3746 90.1621 77.9491 89.9308C77.8559 89.977 77.7628 90.0079 77.6697 90.0541C77.7162 90.0387 77.7628 90.0233 77.8094 89.9925C78.0889 89.8845 78.3528 89.7303 78.5081 89.4682C78.6323 89.2369 78.6788 88.9902 78.6478 88.7281C78.5702 88.1576 78.0889 87.7259 77.4988 87.7259C77.2349 87.7259 76.9709 87.7105 76.7225 87.6796C76.8312 87.695 76.9244 87.7105 77.033 87.7259C76.5207 87.6488 76.0083 87.51 75.5269 87.3096C75.6201 87.3558 75.7133 87.3867 75.8065 87.4329C75.5115 87.3096 75.2319 87.1708 74.968 87.0012C74.8282 86.9241 74.7041 86.8316 74.5643 86.7545C74.5022 86.7082 74.4246 86.662 74.3625 86.6157C74.3314 86.6003 74.3003 86.5695 74.2693 86.554C74.2538 86.5386 74.2383 86.5232 74.2227 86.5232C74.114 86.4307 74.378 86.6465 74.3625 86.6311C73.8346 86.1994 73.3377 85.7368 72.8719 85.228C72.7632 85.0892 72.639 84.9659 72.5304 84.8271C72.4838 84.7654 72.4217 84.6883 72.3751 84.6267C72.2509 84.4725 72.4993 84.7809 72.4527 84.7192C72.4217 84.6729 72.3906 84.6421 72.3595 84.5958C72.1266 84.3029 71.9248 83.9945 71.7074 83.6861C71.2727 83.0385 70.8846 82.3601 70.5274 81.6662C70.1082 80.8644 69.7201 80.0318 69.3629 79.1992C69.4095 79.2917 69.4406 79.3842 69.4871 79.4767C68.4469 77.0251 67.6394 74.4656 66.9718 71.8752C66.8165 71.2739 66.6768 70.6879 66.5371 70.0866C66.3973 69.5007 65.6831 69.0998 65.1086 69.2848C64.5186 69.5315 64.177 70.1174 64.3323 70.7496C64.6583 72.1527 65.0155 73.5559 65.4347 74.9436C65.916 76.5626 66.475 78.1815 67.1116 79.7543C67.7948 81.4041 68.5556 83.0385 69.5182 84.5496C70.3722 85.9064 71.3969 87.2325 72.6545 88.2347C73.2601 88.7127 73.8967 89.1598 74.6109 89.4682C75.4027 89.8074 76.1791 90.0233 77.0486 90.1004C77.2194 90.1158 77.3901 90.1158 77.5454 90.1158C77.4367 89.3603 77.3436 88.6048 77.2349 87.8492C75.9617 88.3426 74.8593 89.1136 73.8035 89.9616C72.7477 90.8097 71.754 91.7657 70.9156 92.8296C70.4964 93.3538 70.1082 93.878 69.7977 94.4794C69.4406 95.1887 69.2077 95.9596 68.9748 96.7151C68.4158 98.55 67.9655 100.416 67.8258 102.328C67.7481 103.407 67.7326 104.502 67.7016 105.581C67.6705 106.691 67.6239 107.786 67.5929 108.896C68.3537 108.788 69.1145 108.696 69.8753 108.588C69.3163 105.519 68.8971 102.405 67.9034 99.4443C67.391 97.9487 66.7544 96.453 65.8228 95.1578C65.3571 94.4948 64.8292 93.878 64.2392 93.323C63.556 92.7062 62.7952 92.1511 62.0188 91.6577C61.1649 91.1026 60.2644 90.6092 59.3328 90.1929C58.8049 89.9462 58.2614 89.7303 57.7025 89.5299C57.2522 89.3757 56.8019 89.2524 56.3517 89.1136C56.4448 89.1599 56.538 89.1907 56.6312 89.2369C56.7709 89.3757 56.8951 89.4991 57.0348 89.6378C57.0814 89.7303 57.1125 89.8229 57.1591 89.9154C57.1746 90.0233 57.1901 90.1158 57.2056 90.2238C57.1901 90.3317 57.1746 90.4242 57.1591 90.5321C57.1125 90.6246 57.0814 90.7172 57.0348 90.8097C56.9416 90.9484 56.8175 91.118 56.6777 91.1797C56.7088 91.1643 56.7243 91.1489 56.7554 91.1335C56.833 91.0872 56.9106 91.0564 56.9883 91.0101C57.2056 90.9022 57.4385 90.8097 57.6714 90.7172C57.5783 90.7634 57.4851 90.7943 57.392 90.8405C58.0286 90.5784 58.6806 90.3163 59.3017 89.9925C60.0159 89.6224 60.6836 89.1907 61.3201 88.7127C62.671 87.6796 63.8355 86.4615 64.7515 85.043C66.5216 82.3447 67.2979 79.0758 67.3134 75.8841C67.3134 73.9722 67.0494 72.0448 66.5836 70.1945C66.4284 69.6086 65.7452 69.1923 65.1552 69.3927C64.5342 69.5315 64.1615 70.1174 64.3323 70.7496Z" fill="#020202"/>
<path d="M159.621 3.6335C159.568 4.20541 159.501 4.7727 159.419 5.33537C159.38 5.60947 159.337 5.89802 159.294 6.18658C159.281 6.27795 159.225 6.70587 159.268 6.36932C159.247 6.53759 159.211 6.70126 159.179 6.85046C158.962 7.99082 158.711 9.13639 158.415 10.2681C157.819 12.5459 157.086 14.7966 156.216 16.9721C155.997 17.5076 155.778 18.0431 155.554 18.593C155.447 18.8295 155.349 19.0851 155.241 19.3217C155.19 19.4327 155.138 19.5437 155.082 19.6692C155.064 19.727 155.031 19.7803 155.017 19.8236C154.975 19.9057 155.003 19.867 155.073 19.6981C155.059 19.7415 155.031 19.7803 155.017 19.8236C154.59 20.7072 154.094 21.5533 153.559 22.371C153.284 22.7775 152.994 23.1794 152.694 23.5623C152.537 23.7514 152.394 23.9451 152.237 24.1342C152.204 24.1874 152.16 24.2215 152.127 24.2747C152.303 24.0278 152.208 24.1729 152.156 24.236C152.06 24.3331 151.975 24.4493 151.879 24.5465C151.21 25.2746 150.497 25.9408 149.704 26.5503C149.488 26.7209 149.257 26.8869 149.031 27.0384C148.968 27.0824 148.857 27.1269 149.093 26.9944C149.031 27.0384 148.953 27.0777 148.891 27.1217C148.77 27.1951 148.665 27.2732 148.544 27.3466C148.082 27.6306 147.614 27.881 147.116 28.1221C146.87 28.2355 146.623 28.3488 146.362 28.4576C146.232 28.5119 146.091 28.5472 145.975 28.6062C146.226 28.4784 146.12 28.5565 146.028 28.5912C145.956 28.616 145.883 28.6409 145.796 28.6611C145.272 28.8306 144.724 28.9764 144.176 29.0741C143.695 29.1614 143.28 29.6512 143.284 30.1457C143.288 30.3377 143.321 30.5389 143.412 30.7106C143.518 30.935 143.831 31.2241 144.09 31.2739C145.112 31.4681 146.116 31.7202 147.093 32.0591C147.573 32.2262 148.035 32.4031 148.506 32.5991C148.619 32.6506 148.747 32.7067 148.86 32.7581C148.944 32.8003 149.367 32.9969 149.003 32.8188C149.239 32.9408 149.48 33.0484 149.716 33.1704C150.621 33.6301 151.504 34.1621 152.338 34.7426C152.763 35.0352 153.183 35.3423 153.579 35.6736C153.668 35.7494 153.747 35.806 153.836 35.8818C153.886 35.9292 153.94 35.9621 153.99 36.0096C153.718 35.7968 153.901 35.9338 153.965 35.9858C154.168 36.1611 154.357 36.3316 154.56 36.5069C155.324 37.2083 156.044 37.9438 156.702 38.7233C157.031 39.1131 157.345 39.4982 157.636 39.9076C157.716 40.0123 157.795 40.1169 157.875 40.2216C157.906 40.2788 157.955 40.3262 157.986 40.3835C157.806 40.136 157.886 40.2407 157.931 40.3025C158.096 40.5454 158.251 40.7692 158.402 41.0074C158.944 41.8459 159.438 42.733 159.865 43.6304C160.088 44.0982 160.292 44.5759 160.491 45.068C160.522 45.1732 160.573 45.2686 160.604 45.3739C160.456 45.0252 160.63 45.4456 160.651 45.5318C160.733 45.7804 160.816 46.0291 160.899 46.2777C161.236 47.3539 161.5 48.4549 161.667 49.5571C161.706 49.8399 161.746 50.1226 161.775 50.3863C161.799 50.6165 161.75 50.1082 161.77 50.3528C161.776 50.4343 161.778 50.5303 161.784 50.6119C161.792 50.7414 161.799 50.8709 161.806 51.0005C161.846 51.5857 161.853 52.1761 161.829 52.7573C161.816 53.3575 162.325 53.9468 162.943 53.9346C163.236 53.9311 163.551 53.8553 163.762 53.6512C163.996 53.4228 164.094 53.1672 164.146 52.8497C164.151 52.8352 164.194 52.5467 164.168 52.7294C164.142 52.9121 164.181 52.6381 164.186 52.6236C164.203 52.5178 164.221 52.412 164.238 52.3061C164.283 52.0656 164.327 51.825 164.386 51.5891C164.471 51.2184 164.557 50.8477 164.657 50.4816C164.822 49.9132 165.021 49.3395 165.186 48.7711C165.411 48.0627 165.588 47.3549 165.74 46.6234C165.852 46.0699 165.948 45.5119 166.045 44.9539C166.102 44.6219 166.159 44.29 166.221 43.9436C166.225 43.8812 166.243 43.8233 166.247 43.7609C166.29 43.4723 166.221 43.9436 166.247 43.7609C166.283 43.5972 166.299 43.4434 166.335 43.2798C166.53 42.2117 166.743 41.1338 167.045 40.0836C167.201 39.5441 167.367 39.0236 167.581 38.5026C167.674 38.2614 167.772 38.0058 167.894 37.7739C167.738 38.059 167.969 37.6386 167.988 37.5808C168.063 37.4455 168.119 37.32 168.195 37.1847C168.426 36.7643 168.696 36.3722 168.977 35.9992C169.095 35.8298 169.229 35.6649 169.362 35.5001C169.419 35.4226 169.476 35.3451 169.543 35.2867C169.577 35.2335 169.62 35.1994 169.653 35.1462C169.829 34.9473 169.572 35.248 169.648 35.1607C170.245 34.5055 170.877 33.893 171.569 33.3471C171.761 33.2008 172.016 33.0585 172.199 32.8931C172.179 32.903 171.972 33.0447 172.136 32.9371C172.199 32.8932 172.257 32.8637 172.319 32.8197C172.42 32.7561 172.521 32.6925 172.623 32.6289C173.042 32.379 173.471 32.1483 173.926 31.9412C174.153 31.8377 174.395 31.7388 174.636 31.6399C174.82 31.5705 174.578 31.6694 174.564 31.6648C174.632 31.6544 174.694 31.6105 174.762 31.6C174.888 31.5601 175.014 31.5202 175.126 31.4757C175.61 31.3259 176.096 31.2241 176.606 31.146C177.082 31.0732 177.506 30.5544 177.497 30.0745C177.487 29.5465 177.182 29.1324 176.691 28.9463C176.186 28.7554 175.685 28.5502 175.188 28.3304C175.075 28.279 174.962 28.2275 174.849 28.1761C174.79 28.1576 174.741 28.1101 174.682 28.0916C174.981 28.1697 174.78 28.1385 174.697 28.0963C174.446 27.9696 174.19 27.8575 173.954 27.7355C173.009 27.2474 172.093 26.7207 171.224 26.1453C170.785 25.8481 170.36 25.5555 169.944 25.234C169.751 25.0779 169.554 24.9362 169.346 24.7754C169.321 24.7517 169.049 24.5389 169.049 24.5389C169.089 24.5673 169.124 24.61 169.163 24.6384C169.124 24.61 169.089 24.5673 169.049 24.5389C169 24.4915 168.935 24.4395 168.886 24.3921C168.088 23.6958 167.353 22.9557 166.67 22.1525C166.331 21.7437 165.992 21.3348 165.691 20.9063C165.656 20.8635 165.636 20.8254 165.601 20.7826C165.796 21.0347 165.632 20.8398 165.601 20.7826C165.536 20.6825 165.456 20.5779 165.391 20.4778C165.236 20.2541 165.1 20.0204 164.964 19.7868C164.702 19.3387 164.445 18.8761 164.221 18.4082C163.988 17.9213 163.808 17.4194 163.589 16.9371C163.722 17.2332 163.564 16.8654 163.543 16.7793C163.501 16.655 163.455 16.5451 163.414 16.4208C163.321 16.153 163.243 15.8899 163.165 15.6268C163.009 15.1006 162.887 14.5691 162.765 14.0377C162.535 12.9795 162.374 11.9108 162.251 10.8225C162.25 10.7745 162.235 10.7219 162.234 10.6739C162.233 10.6259 162.217 10.5733 162.216 10.5253C162.229 10.6883 162.239 10.7074 162.227 10.5923C162.21 10.4437 162.197 10.2807 162.18 10.132C162.16 9.83944 162.14 9.54684 162.12 9.25424C162.084 8.65457 162.053 8.04043 162.032 7.44538C161.989 6.2073 161.976 4.97846 161.963 3.74962C161.956 3.15921 161.482 2.56478 160.849 2.57232C160.21 2.54632 159.614 2.99508 159.621 3.6335C159.651 8.11223 159.699 12.7396 161.164 17.0332C161.907 19.2231 162.993 21.2505 164.446 23.0911C165.819 24.827 167.489 26.3386 169.297 27.6229C171.357 29.0818 173.626 30.2405 175.996 31.1293C176.021 30.3897 176.057 29.6691 176.082 28.9295C172.223 29.5131 168.863 32.0351 166.739 35.2001C165.445 37.131 164.77 39.3522 164.33 41.5994C164.21 42.2297 164.095 42.8456 163.99 43.4805C163.959 43.6297 163.947 43.7691 163.915 43.9183C163.912 43.9807 163.893 44.0386 163.889 44.101C163.846 44.3896 163.915 43.9183 163.885 44.1155C163.842 44.404 163.779 44.7024 163.736 44.991C163.567 45.8763 163.398 46.7617 163.142 47.6192C162.949 48.2744 162.727 48.9204 162.535 49.5756C162.238 50.6113 162.028 51.6747 161.849 52.7474C162.615 52.7815 163.385 52.8012 164.166 52.8399C164.285 48.5514 163.064 44.2548 160.836 40.58C158.612 36.8907 155.419 33.7074 151.622 31.6067C149.504 30.4317 147.196 29.547 144.81 29.1146C144.785 29.8542 144.75 30.5747 144.724 31.3143C148.964 30.5005 152.524 27.7553 155.01 24.37C156.297 22.612 157.24 20.6661 158.06 18.6496C158.979 16.4255 159.765 14.1598 160.404 11.8479C161.134 9.19875 161.688 6.49412 161.958 3.76408C162.015 3.17771 161.444 2.58444 160.844 2.58677C160.161 2.5469 159.692 3.00375 159.621 3.6335Z" fill="#020202"/>
</svg>
