<svg width="366" height="288" viewBox="0 0 366 288" fill="none" xmlns="http://www.w3.org/2000/svg">
<path opacity="0.5" d="M148.221 288H5.11826C1.18417 288 -1.27476 283.574 0.692288 280.131L71.9977 156.207L143.303 32.2839C145.27 28.8416 150.188 28.8416 152.155 32.2839L223.46 156.207L294.766 280.131C296.733 283.574 294.274 288 290.34 288H148.221Z" fill="#CC45FF"/>
<path d="M214.99 3.57921L214.993 3.57402C216.192 1.47533 219.172 1.47533 220.371 3.57403L220.374 3.57921L291.68 127.503L362.982 251.422C362.983 251.423 362.983 251.424 362.984 251.425C364.226 253.605 362.609 256.298 360.293 256.298H218.174H75.0714C72.7543 256.298 71.1367 253.603 72.3813 251.423C72.3815 251.423 72.3817 251.422 72.3819 251.422L143.684 127.503L214.99 3.57921Z" stroke="url(#paint0_linear_3619_1689)" stroke-width="4" stroke-miterlimit="10"/>
<defs>
<linearGradient id="paint0_linear_3619_1689" x1="68.5254" y1="128.156" x2="364.34" y2="128.156" gradientUnits="userSpaceOnUse">
<stop stop-color="#8427FD"/>
<stop offset="1" stop-color="#CC45FF"/>
</linearGradient>
</defs>
</svg>
